font.ufo
<glyph name="seven" format="2">
	<unicode hex="0037"/>
	<advance width="540"/>
	<outline>
		<contour>
			<point x="142" y="0" type="curve"/>
			<point x="314" y="0" type="line"/>
			<point x="326" y="247"/>
			<point x="348" y="354"/>
			<point x="498" y="528" type="curve"/>
			<point x="498" y="634" type="line"/>
			<point x="44" y="634" type="line"/>
			<point x="44" y="490" type="line"/>
			<point x="316" y="490" type="line"/>
			<point x="194" y="324"/>
			<point x="154" y="200"/>
		</contour>
	</outline>
</glyph>
<glyph name="C" format="2">
	<unicode hex="0043"/>
	<advance width="586"/>
	<outline>
		<contour>
			<point x="358" y="-12" type="curve" smooth="yes"/>
			<point x="438" y="-12"/>
			<point x="508" y="18"/>
			<point x="566" y="82" type="curve"/>
			<point x="480" y="184" type="line"/>
			<point x="454" y="158"/>
			<point x="416" y="136"/>
			<point x="370" y="136" type="curve" smooth="yes"/>
			<point x="281" y="136"/>
			<point x="220" y="204"/>
			<point x="220" y="326" type="curve" smooth="yes"/>
			<point x="220" y="442"/>
			<point x="288" y="514"/>
			<point x="362" y="514" type="curve" smooth="yes"/>
			<point x="406" y="514"/>
			<point x="438" y="500"/>
			<point x="470" y="472" type="curve"/>
			<point x="560" y="576" type="line"/>
			<point x="514" y="624"/>
			<point x="444" y="662"/>
			<point x="358" y="662" type="curve" smooth="yes"/>
			<point x="194" y="662"/>
			<point x="44" y="538"/>
			<point x="44" y="320" type="curve" smooth="yes"/>
			<point x="44" y="98"/>
			<point x="190" y="-12"/>
		</contour>
	</outline>
	<anchor name="aboverightUC" x="500" y="672"/>
	<anchor name="aboveUC" x="350" y="672"/>
	<anchor name="baseLC" x="350" y="0"/>
	<anchor name="belowLC" x="350" y="-22"/>
</glyph>
<glyph name="H" format="2">
	<unicode hex="0048"/>
	<advance width="682"/>
	<outline>
		<contour>
			<point x="72" y="0" type="line"/>
			<point x="244" y="0" type="line"/>
			<point x="244" y="258" type="line"/>
			<point x="438" y="258" type="line"/>
			<point x="438" y="0" type="line"/>
			<point x="610" y="0" type="line"/>
			<point x="610" y="650" type="line"/>
			<point x="438" y="650" type="line"/>
			<point x="438" y="408" type="line"/>
			<point x="244" y="408" type="line"/>
			<point x="244" y="650" type="line"/>
			<point x="72" y="650" type="line"/>
		</contour>
	</outline>
	<anchor name="aboveUC" x="340" y="672"/>
	<anchor name="belowLC" x="340" y="-22"/>
</glyph>
<glyph name="N" format="2">
	<unicode hex="004E"/>
	<advance width="672"/>
	<outline>
		<contour>
			<point x="72" y="0" type="line"/>
			<point x="236" y="0" type="line"/>
			<point x="236" y="188" type="line" smooth="yes"/>
			<point x="236" y="268"/>
			<point x="222" y="362"/>
			<point x="214" y="436" type="curve"/>
			<point x="218" y="436" type="line"/>
			<point x="238" y="386"/>
			<point x="258" y="334"/>
			<point x="280" y="290" type="curve" smooth="yes"/>
			<point x="424" y="0" type="line"/>
			<point x="600" y="0" type="line"/>
			<point x="600" y="650" type="line"/>
			<point x="436" y="650" type="line"/>
			<point x="436" y="462" type="line" smooth="yes"/>
			<point x="436" y="382"/>
			<point x="450" y="284"/>
			<point x="458" y="214" type="curve"/>
			<point x="454" y="214" type="line"/>
			<point x="434" y="264"/>
			<point x="414" y="316"/>
			<point x="392" y="360" type="curve" smooth="yes"/>
			<point x="248" y="650" type="line"/>
			<point x="72" y="650" type="line"/>
		</contour>
	</outline>
	<anchor name="aboveUC" x="340" y="672"/>
	<anchor name="belowLC" x="350" y="-22"/>
</glyph>
<glyph name="S" format="2">
	<unicode hex="0053"/>
	<advance width="564"/>
	<outline>
		<contour>
			<point x="278" y="-12" type="curve" smooth="yes"/>
			<point x="440" y="-12"/>
			<point x="532" y="86"/>
			<point x="532" y="196" type="curve" smooth="yes"/>
			<point x="532" y="286"/>
			<point x="486" y="342"/>
			<point x="405" y="374" type="curve" smooth="yes"/>
			<point x="326" y="405" type="line" smooth="yes"/>
			<point x="267" y="428"/>
			<point x="230" y="439"/>
			<point x="230" y="470" type="curve" smooth="yes"/>
			<point x="230" y="499"/>
			<point x="256" y="514"/>
			<point x="298" y="514" type="curve" smooth="yes"/>
			<point x="336" y="514"/>
			<point x="380" y="498"/>
			<point x="424" y="468" type="curve"/>
			<point x="514" y="580" type="line"/>
			<point x="455" y="634"/>
			<point x="376" y="662"/>
			<point x="298" y="662" type="curve" smooth="yes"/>
			<point x="156" y="662"/>
			<point x="56" y="571"/>
			<point x="56" y="460" type="curve" smooth="yes"/>
			<point x="56" y="366"/>
			<point x="117" y="307"/>
			<point x="187" y="278" type="curve" smooth="yes"/>
			<point x="268" y="245" type="line" smooth="yes"/>
			<point x="323" y="223"/>
			<point x="356" y="213"/>
			<point x="356" y="182" type="curve" smooth="yes"/>
			<point x="356" y="153"/>
			<point x="334" y="136"/>
			<point x="282" y="136" type="curve" smooth="yes"/>
			<point x="230" y="136"/>
			<point x="168" y="156"/>
			<point x="122" y="194" type="curve"/>
			<point x="32" y="82" type="line"/>
			<point x="102" y="16"/>
			<point x="192" y="-12"/>
		</contour>
	</outline>
	<anchor name="aboveUC" x="300" y="672"/>
	<anchor name="baseLC" x="282" y="0"/>
	<anchor name="belowLC" x="282" y="-22"/>
</glyph>
<glyph name="U" format="2">
	<unicode hex="0055"/>
	<advance width="672"/>
	<outline>
		<contour>
			<point x="338" y="-12" type="curve" smooth="yes"/>
			<point x="520" y="-12"/>
			<point x="604" y="92"/>
			<point x="604" y="314" type="curve" smooth="yes"/>
			<point x="604" y="650" type="line"/>
			<point x="438" y="650" type="line"/>
			<point x="438" y="294" type="line" smooth="yes"/>
			<point x="438" y="178"/>
			<point x="406" y="136"/>
			<point x="338" y="136" type="curve" smooth="yes"/>
			<point x="270" y="136"/>
			<point x="240" y="178"/>
			<point x="240" y="294" type="curve" smooth="yes"/>
			<point x="240" y="650" type="line"/>
			<point x="68" y="650" type="line"/>
			<point x="68" y="314" type="line" smooth="yes"/>
			<point x="68" y="92"/>
			<point x="156" y="-12"/>
		</contour>
	</outline>
	<anchor name="aboveUC" x="336" y="672"/>
	<anchor name="belowLC" x="336" y="-22"/>
	<anchor name="hornLC" x="552" y="660"/>
	<anchor name="ogonekUC" x="336" y="0"/>
</glyph>
<glyph name="V" format="2">
	<unicode hex="0056"/>
	<advance width="572"/>
	<outline>
		<contour>
			<point x="178" y="0" type="line"/>
			<point x="386" y="0" type="line"/>
			<point x="582" y="650" type="line"/>
			<point x="406" y="650" type="line"/>
			<point x="336" y="366" type="line" smooth="yes"/>
			<point x="319" y="297"/>
			<point x="306" y="230"/>
			<point x="288" y="160" type="curve"/>
			<point x="284" y="160" type="line"/>
			<point x="266" y="230"/>
			<point x="252" y="297"/>
			<point x="236" y="366" type="curve" smooth="yes"/>
			<point x="172" y="650" type="line"/>
			<point x="-10" y="650" type="line"/>
		</contour>
	</outline>
	<anchor name="aboveUC" x="286" y="672"/>
	<anchor name="belowLC" x="282" y="-22"/>
</glyph>
<glyph name="j" format="1">
	<unicode hex="006A"/>
	<advance width="290"/>
	<outline>
		<component base="dotlessj"/>
		<component base="dotaccentcmb" xOffset="146"/>
		<contour>
			<point name="aboveLC" x="147" y="733" type="move"/>
		</contour>
		<contour>
			<point name="belowLC" x="86" y="-237" type="move"/>
		</contour>
	</outline>
</glyph>
<glyph name="o" format="2">
	<unicode hex="006F"/>
	<advance width="560"/>
	<outline>
		<contour>
			<point x="280" y="-12" type="curve" smooth="yes"/>
			<point x="408" y="-12"/>
			<point x="528" y="84"/>
			<point x="528" y="250" type="curve" smooth="yes"/>
			<point x="528" y="416"/>
			<point x="408" y="512"/>
			<point x="280" y="512" type="curve" smooth="yes"/>
			<point x="152" y="512"/>
			<point x="32" y="416"/>
			<point x="32" y="250" type="curve" smooth="yes"/>
			<point x="32" y="84"/>
			<point x="152" y="-12"/>
		</contour>
		<contour>
			<point x="280" y="126" type="curve" smooth="yes"/>
			<point x="228" y="126"/>
			<point x="208" y="174"/>
			<point x="208" y="250" type="curve" smooth="yes"/>
			<point x="208" y="326"/>
			<point x="228" y="374"/>
			<point x="280" y="374" type="curve" smooth="yes"/>
			<point x="332" y="374"/>
			<point x="352" y="326"/>
			<point x="352" y="250" type="curve" smooth="yes"/>
			<point x="352" y="174"/>
			<point x="332" y="126"/>
		</contour>
	</outline>
	<anchor name="aboveLC" x="280" y="522"/>
	<anchor name="aboverightLC" x="570" y="522"/>
	<anchor name="belowLC" x="280" y="-22"/>
	<anchor name="hornLC" x="374" y="500"/>
	<anchor name="ogonekLC" x="280" y="0"/>
</glyph>
<glyph name="s" format="1">
	<unicode hex="0073"/>
	<advance width="452"/>
	<outline>
		<contour>
			<point x="212" y="-12" type="curve" smooth="yes"/>
			<point x="352" y="-12"/>
			<point x="426" y="60"/>
			<point x="426" y="154" type="curve" smooth="yes"/>
			<point x="426" y="244"/>
			<point x="358" y="282"/>
			<point x="298" y="304" type="curve" smooth="yes"/>
			<point x="248" y="322"/>
			<point x="206" y="332"/>
			<point x="206" y="358" type="curve" smooth="yes"/>
			<point x="206" y="378"/>
			<point x="221" y="386"/>
			<point x="250" y="386" type="curve" smooth="yes"/>
			<point x="281" y="386"/>
			<point x="316" y="370"/>
			<point x="352" y="344" type="curve"/>
			<point x="428" y="446" type="line"/>
			<point x="384" y="479"/>
			<point x="326" y="512"/>
			<point x="244" y="512" type="curve" smooth="yes"/>
			<point x="126" y="512"/>
			<point x="46" y="448"/>
			<point x="46" y="350" type="curve" smooth="yes"/>
			<point x="46" y="268"/>
			<point x="112" y="225"/>
			<point x="170" y="202" type="curve" smooth="yes"/>
			<point x="220" y="182"/>
			<point x="266" y="170"/>
			<point x="266" y="144" type="curve" smooth="yes"/>
			<point x="266" y="124"/>
			<point x="252" y="114"/>
			<point x="216" y="114" type="curve" smooth="yes"/>
			<point x="181" y="114"/>
			<point x="140" y="130"/>
			<point x="94" y="164" type="curve"/>
			<point x="18" y="58" type="line"/>
			<point x="70" y="16"/>
			<point x="148" y="-12"/>
		</contour>
		<contour>
			<point name="aboveLC" x="240" y="522" type="move"/>
		</contour>
		<contour>
			<point name="baseLC" x="220" y="0" type="move"/>
		</contour>
		<contour>
			<point name="belowLC" x="220" y="-22" type="move"/>
		</contour>
	</outline>
</glyph>
<glyph name="t" format="2">
	<unicode hex="0074"/>
	<advance width="400"/>
	<outline>
		<contour>
			<point x="264" y="-12" type="curve" smooth="yes"/>
			<point x="316" y="-12"/>
			<point x="356" y="-2"/>
			<point x="382" y="8" type="curve"/>
			<point x="356" y="128" type="line"/>
			<point x="344" y="124"/>
			<point x="328" y="122"/>
			<point x="312" y="122" type="curve" smooth="yes"/>
			<point x="280" y="122"/>
			<point x="252" y="140"/>
			<point x="252" y="195" type="curve" smooth="yes"/>
			<point x="252" y="366" type="line"/>
			<point x="366" y="366" type="line"/>
			<point x="366" y="500" type="line"/>
			<point x="252" y="500" type="line"/>
			<point x="252" y="650" type="line"/>
			<point x="110" y="650" type="line"/>
			<point x="90" y="500" type="line"/>
			<point x="14" y="494" type="line"/>
			<point x="14" y="366" type="line"/>
			<point x="80" y="366" type="line"/>
			<point x="80" y="192" type="line" smooth="yes"/>
			<point x="80" y="70"/>
			<point x="134" y="-12"/>
		</contour>
	</outline>
	<anchor name="aboveLC" x="180" y="662"/>
	<anchor name="aboverightLC" x="380" y="522"/>
	<anchor name="baseLC" x="240" y="0"/>
	<anchor name="belowLC" x="240" y="-22"/>
	<anchor name="center" x="180" y="250"/>
</glyph>
<glyph name="u" format="2">
	<unicode hex="0075"/>
	<advance width="578"/>
	<outline>
		<contour>
			<point x="210" y="-12" type="curve" smooth="yes"/>
			<point x="278" y="-12"/>
			<point x="324" y="18"/>
			<point x="364" y="66" type="curve"/>
			<point x="368" y="66" type="line"/>
			<point x="380" y="0" type="line"/>
			<point x="520" y="0" type="line"/>
			<point x="520" y="500" type="line"/>
			<point x="348" y="500" type="line"/>
			<point x="348" y="178" type="line"/>
			<point x="326" y="146"/>
			<point x="308" y="134"/>
			<point x="276" y="134" type="curve" smooth="yes"/>
			<point x="242" y="134"/>
			<point x="226" y="150"/>
			<point x="226" y="214" type="curve" smooth="yes"/>
			<point x="226" y="500" type="line"/>
			<point x="54" y="500" type="line"/>
			<point x="54" y="192" type="line" smooth="yes"/>
			<point x="54" y="68"/>
			<point x="100" y="-12"/>
		</contour>
	</outline>
	<anchor name="aboveLC" x="290" y="522"/>
	<anchor name="baseLC" x="250" y="0"/>
	<anchor name="belowLC" x="280" y="-22"/>
	<anchor name="hornLC" x="438" y="510"/>
	<anchor name="ogonekLC" x="420" y="0"/>
</glyph>
<glyph name="w" format="2">
	<unicode hex="0077"/>
	<advance width="798"/>
	<outline>
		<contour>
			<point x="149" y="14" type="line"/>
			<point x="345" y="14" type="line"/>
			<point x="379" y="188" type="line"/>
			<point x="387" y="234"/>
			<point x="393" y="280"/>
			<point x="401" y="335" type="curve"/>
			<point x="405" y="335" type="line"/>
			<point x="413" y="280"/>
			<point x="421" y="234"/>
			<point x="429" y="188" type="curve"/>
			<point x="465" y="14" type="line"/>
			<point x="665" y="14" type="line"/>
			<point x="779" y="514" type="line"/>
			<point x="621" y="514" type="line"/>
			<point x="583" y="304" type="line"/>
			<point x="575" y="254"/>
			<point x="571" y="204"/>
			<point x="563" y="152" type="curve"/>
			<point x="559" y="152" type="line"/>
			<point x="549" y="204"/>
			<point x="541" y="254"/>
			<point x="529" y="304" type="curve"/>
			<point x="481" y="514" type="line"/>
			<point x="335" y="514" type="line"/>
			<point x="289" y="304" type="line"/>
			<point x="277" y="256"/>
			<point x="269" y="204"/>
			<point x="261" y="152" type="curve"/>
			<point x="257" y="152" type="line"/>
			<point x="249" y="204"/>
			<point x="245" y="254"/>
			<point x="237" y="304" type="curve"/>
			<point x="199" y="514" type="line"/>
			<point x="29" y="514" type="line"/>
		</contour>
	</outline>
	<anchor name="aboveLC" x="405" y="536"/>
	<anchor name="belowLC" x="405" y="-8"/>
</glyph>
<glyph name="sterling" format="2">
	<unicode hex="00A3"/>
	<advance width="540"/>
	<outline>
		<contour>
			<point x="46" y="0" type="line"/>
			<point x="514" y="0" type="line"/>
			<point x="514" y="144" type="line"/>
			<point x="264" y="144" type="line"/>
			<point x="264" y="148" type="line"/>
			<point x="292" y="182"/>
			<point x="302" y="209"/>
			<point x="302" y="248" type="curve" smooth="yes"/>
			<point x="302" y="310"/>
			<point x="274" y="367"/>
			<point x="274" y="422" type="curve" smooth="yes"/>
			<point x="274" y="480"/>
			<point x="306" y="508"/>
			<point x="354" y="508" type="curve" smooth="yes"/>
			<point x="382" y="508"/>
			<point x="404" y="498"/>
			<point x="426" y="472" type="curve"/>
			<point x="514" y="558" type="line"/>
			<point x="474" y="610"/>
			<point x="416" y="646"/>
			<point x="332" y="646" type="curve" smooth="yes"/>
			<point x="206" y="646"/>
			<point x="110" y="564"/>
			<point x="110" y="432" type="curve" smooth="yes"/>
			<point x="110" y="377"/>
			<point x="152" y="309"/>
			<point x="152" y="250" type="curve" smooth="yes"/>
			<point x="152" y="180"/>
			<point x="102" y="130"/>
			<point x="46" y="106" type="curve"/>
		</contour>
		<contour>
			<point x="52" y="266" type="line"/>
			<point x="424" y="266" type="line"/>
			<point x="424" y="370" type="line"/>
			<point x="120" y="370" type="line"/>
			<point x="52" y="364" type="line"/>
		</contour>
	</outline>
</glyph>
<glyph name="Eth" format="2">
	<unicode hex="00D0"/>
	<advance width="662"/>
	<outline>
		<contour>
			<point x="22" y="278" type="line"/>
			<point x="380" y="278" type="line"/>
			<point x="380" y="390" type="line"/>
			<point x="94" y="390" type="line"/>
			<point x="22" y="384" type="line"/>
		</contour>
		<component base="D" xOffset="20"/>
	</outline>
	<anchor name="aboveUC" x="350" y="672"/>
	<anchor name="belowLC" x="340" y="-22"/>
</glyph>
<glyph name="Aogonek" format="2">
	<unicode hex="0104"/>
	<advance width="584"/>
	<outline>
		<contour>
			<point x="504" y="-228" type="curve" smooth="yes"/>
			<point x="544" y="-228"/>
			<point x="594" y="-212"/>
			<point x="624" y="-190" type="curve"/>
			<point x="586" y="-94" type="line"/>
			<point x="576" y="-100"/>
			<point x="560" y="-108"/>
			<point x="544" y="-108" type="curve" smooth="yes"/>
			<point x="518" y="-108"/>
			<point x="502" y="-98"/>
			<point x="502" y="-74" type="curve" smooth="yes"/>
			<point x="502" y="-39"/>
			<point x="538" y="0"/>
			<point x="594" y="0" type="curve"/>
			<point x="396" y="650" type="line"/>
			<point x="188" y="650" type="line"/>
			<point x="-10" y="0" type="line"/>
			<point x="166" y="0" type="line"/>
			<point x="240" y="316" type="line" smooth="yes"/>
			<point x="256" y="378"/>
			<point x="272" y="456"/>
			<point x="286" y="522" type="curve"/>
			<point x="290" y="522" type="line"/>
			<point x="306" y="457"/>
			<point x="322" y="378"/>
			<point x="338" y="316" type="curve" smooth="yes"/>
			<point x="412" y="0" type="line"/>
			<point x="450" y="0" type="line"/>
			<point x="418" y="-16"/>
			<point x="368" y="-62"/>
			<point x="368" y="-126" type="curve" smooth="yes"/>
			<point x="368" y="-191"/>
			<point x="428" y="-228"/>
		</contour>
		<contour>
			<point x="132" y="138" type="line"/>
			<point x="450" y="138" type="line"/>
			<point x="450" y="271" type="line"/>
			<point x="132" y="271" type="line"/>
		</contour>
	</outline>
	<anchor name="aboveUC" x="290" y="672"/>
</glyph>
<glyph name="dcroat" format="1">
	<unicode hex="0111"/>
	<advance width="580"/>
	<outline>
		<contour>
			<point x="240" y="-12" type="curve" smooth="yes"/>
			<point x="286" y="-12"/>
			<point x="331" y="8"/>
			<point x="364" y="40" type="curve"/>
			<point x="368" y="40" type="line"/>
			<point x="378" y="0" type="line"/>
			<point x="522" y="0" type="line"/>
			<point x="522" y="696" type="line"/>
			<point x="350" y="696" type="line"/>
			<point x="350" y="482" type="line"/>
			<point x="356" y="410" type="line"/>
			<point x="326" y="440"/>
			<point x="294" y="460"/>
			<point x="240" y="460" type="curve" smooth="yes"/>
			<point x="138" y="460"/>
			<point x="36" y="366"/>
			<point x="36" y="226" type="curve" smooth="yes"/>
			<point x="36" y="84"/>
			<point x="116" y="-12"/>
		</contour>
		<contour>
			<point x="286" y="128" type="curve" smooth="yes"/>
			<point x="240" y="128"/>
			<point x="212" y="160"/>
			<point x="212" y="228" type="curve" smooth="yes"/>
			<point x="212" y="292"/>
			<point x="246" y="320"/>
			<point x="282" y="320" type="curve" smooth="yes"/>
			<point x="304" y="320"/>
			<point x="330" y="314"/>
			<point x="350" y="296" type="curve"/>
			<point x="350" y="164" type="line"/>
			<point x="332" y="136"/>
			<point x="312" y="128"/>
		</contour>
		<contour>
			<point x="206" y="550" type="line"/>
			<point x="512" y="550" type="line"/>
			<point x="588" y="556" type="line"/>
			<point x="588" y="630" type="line"/>
			<point x="206" y="630" type="line"/>
		</contour>
	</outline>
</glyph>
<glyph name="Hbar" format="2">
	<unicode hex="0126"/>
	<advance width="722"/>
	<outline>
		<contour>
			<point x="22" y="470" type="line"/>
			<point x="700" y="470" type="line"/>
			<point x="700" y="582" type="line"/>
			<point x="98" y="582" type="line"/>
			<point x="22" y="576" type="line"/>
		</contour>
		<component base="H" xOffset="20"/>
	</outline>
</glyph>
<glyph name="Iogonek" format="1">
	<unicode hex="012E"/>
	<advance width="316"/>
	<outline>
		<contour>
			<point x="164" y="-228" type="curve" smooth="yes"/>
			<point x="202" y="-228"/>
			<point x="250" y="-212"/>
			<point x="278" y="-190" type="curve"/>
			<point x="240" y="-104" type="line"/>
			<point x="232" y="-110"/>
			<point x="218" y="-118"/>
			<point x="205" y="-118" type="curve" smooth="yes"/>
			<point x="186" y="-118"/>
			<point x="166" y="-108"/>
			<point x="166" y="-84" type="curve" smooth="yes"/>
			<point x="166" y="-52"/>
			<point x="186" y="-18"/>
			<point x="244" y="0" type="curve"/>
			<point x="244" y="650" type="line"/>
			<point x="72" y="650" type="line"/>
			<point x="72" y="0" type="line"/>
			<point x="122" y="0" type="line"/>
			<point x="88" y="-20"/>
			<point x="42" y="-70"/>
			<point x="42" y="-130" type="curve" smooth="yes"/>
			<point x="42" y="-192"/>
			<point x="96" y="-228"/>
		</contour>
		<contour>
			<point name="aboveUC" x="158" y="672" type="move"/>
		</contour>
	</outline>
</glyph>
<glyph name="kgreenlandic" format="2">
	<unicode hex="0138"/>
	<advance width="568"/>
	<outline>
		<contour>
			<point x="58" y="0" type="line"/>
			<point x="230" y="0" type="line"/>
			<point x="230" y="114" type="line"/>
			<point x="278" y="172" type="line"/>
			<point x="378" y="0" type="line"/>
			<point x="564" y="0" type="line"/>
			<point x="380" y="292" type="line"/>
			<point x="554" y="500" type="line"/>
			<point x="368" y="500" type="line"/>
			<point x="234" y="322" type="line"/>
			<point x="230" y="322" type="line"/>
			<point x="230" y="500" type="line"/>
			<point x="58" y="500" type="line"/>
		</contour>
	</outline>
</glyph>
<glyph name="lslash" format="1">
	<unicode hex="0142"/>
	<advance width="362"/>
	<outline>
		<contour>
			<point x="32" y="224" type="line"/>
			<point x="98" y="262" type="line"/>
			<point x="244" y="330" type="line"/>
			<point x="390" y="404" type="line"/>
			<point x="334" y="510" type="line"/>
			<point x="244" y="460" type="line"/>
			<point x="98" y="392" type="line"/>
			<point x="-24" y="330" type="line"/>
		</contour>
		<component base="l" xOffset="32"/>
		<contour>
			<point name="aboveUC" x="180" y="720" type="move"/>
		</contour>
		<contour>
			<point name="belowLC" x="200" y="-22" type="move"/>
		</contour>
	</outline>
</glyph>
<glyph name="Uogonek" format="2">
	<unicode hex="0172"/>
	<advance width="672"/>
	<outline>
		<contour>
			<point x="350" y="-228" type="curve" smooth="yes"/>
			<point x="388" y="-228"/>
			<point x="436" y="-212"/>
			<point x="464" y="-190" type="curve"/>
			<point x="426" y="-104" type="line"/>
			<point x="418" y="-110"/>
			<point x="404" y="-118"/>
			<point x="390" y="-118" type="curve" smooth="yes"/>
			<point x="372" y="-118"/>
			<point x="352" y="-108"/>
			<point x="352" y="-84" type="curve" smooth="yes"/>
			<point x="352" y="-59"/>
			<point x="369" y="-24"/>
			<point x="418" y="-8" type="curve" smooth="yes"/>
			<point x="548" y="34"/>
			<point x="604" y="124"/>
			<point x="604" y="314" type="curve" smooth="yes"/>
			<point x="604" y="650" type="line"/>
			<point x="438" y="650" type="line"/>
			<point x="438" y="294" type="line" smooth="yes"/>
			<point x="438" y="178"/>
			<point x="406" y="136"/>
			<point x="338" y="136" type="curve" smooth="yes"/>
			<point x="270" y="136"/>
			<point x="240" y="178"/>
			<point x="240" y="294" type="curve" smooth="yes"/>
			<point x="240" y="650" type="line"/>
			<point x="68" y="650" type="line"/>
			<point x="68" y="314" type="line" smooth="yes"/>
			<point x="68" y="92"/>
			<point x="156" y="-12"/>
			<point x="338" y="-12" type="curve"/>
			<point x="304" y="2" type="line"/>
			<point x="268" y="-22"/>
			<point x="228" y="-76"/>
			<point x="228" y="-130" type="curve" smooth="yes"/>
			<point x="228" y="-192"/>
			<point x="282" y="-228"/>
		</contour>
	</outline>
	<anchor name="aboveUC" x="336" y="672"/>
</glyph>
<glyph name="uogonek" format="2">
	<unicode hex="0173"/>
	<advance width="578"/>
	<outline>
		<contour>
			<point x="444" y="-220" type="curve" smooth="yes"/>
			<point x="482" y="-220"/>
			<point x="530" y="-206"/>
			<point x="560" y="-184" type="curve"/>
			<point x="526" y="-96" type="line"/>
			<point x="514" y="-102"/>
			<point x="498" y="-108"/>
			<point x="480" y="-108" type="curve" smooth="yes"/>
			<point x="462" y="-108"/>
			<point x="442" y="-98"/>
			<point x="442" y="-76" type="curve" smooth="yes"/>
			<point x="442" y="-49"/>
			<point x="460" y="-14"/>
			<point x="520" y="0" type="curve"/>
			<point x="520" y="500" type="line"/>
			<point x="348" y="500" type="line"/>
			<point x="348" y="178" type="line"/>
			<point x="326" y="146"/>
			<point x="308" y="134"/>
			<point x="276" y="134" type="curve" smooth="yes"/>
			<point x="242" y="134"/>
			<point x="226" y="150"/>
			<point x="226" y="214" type="curve" smooth="yes"/>
			<point x="226" y="500" type="line"/>
			<point x="54" y="500" type="line"/>
			<point x="54" y="192" type="line" smooth="yes"/>
			<point x="54" y="68"/>
			<point x="100" y="-12"/>
			<point x="210" y="-12" type="curve" smooth="yes"/>
			<point x="278" y="-12"/>
			<point x="324" y="18"/>
			<point x="364" y="66" type="curve"/>
			<point x="368" y="66" type="line"/>
			<point x="382" y="-4" type="line"/>
			<point x="358" y="-18"/>
			<point x="318" y="-58"/>
			<point x="318" y="-116" type="curve" smooth="yes"/>
			<point x="318" y="-186"/>
			<point x="374" y="-220"/>
		</contour>
	</outline>
	<anchor name="aboveLC" x="278" y="502"/>
</glyph>
<glyph name="Oopen" format="2">
	<unicode hex="0186"/>
	<advance width="586"/>
	<outline>
		<contour>
			<point x="238" y="-12" type="curve" smooth="yes"/>
			<point x="402" y="-12"/>
			<point x="542" y="86"/>
			<point x="542" y="320" type="curve" smooth="yes"/>
			<point x="542" y="554"/>
			<point x="402" y="662"/>
			<point x="242" y="662" type="curve" smooth="yes"/>
			<point x="152" y="662"/>
			<point x="86" y="628"/>
			<point x="34" y="576" type="curve"/>
			<point x="114" y="472" type="line"/>
			<point x="150" y="502"/>
			<point x="186" y="514"/>
			<point x="232" y="514" type="curve" smooth="yes"/>
			<point x="308" y="514"/>
			<point x="366" y="462"/>
			<point x="366" y="326" type="curve" smooth="yes"/>
			<point x="366" y="186"/>
			<point x="314" y="136"/>
			<point x="236" y="136" type="curve" smooth="yes"/>
			<point x="182" y="136"/>
			<point x="140" y="154"/>
			<point x="108" y="186" type="curve"/>
			<point x="18" y="84" type="line"/>
			<point x="78" y="18"/>
			<point x="154" y="-12"/>
		</contour>
	</outline>
	<anchor name="aboveUC" x="270" y="672"/>
	<anchor name="baseLC" x="260" y="0"/>
	<anchor name="belowLC" x="260" y="-22"/>
	<anchor name="ogonekUC" x="260" y="0"/>
</glyph>
<glyph name="Gammalatin" format="2">
	<unicode hex="0194"/>
	<advance width="572"/>
	<outline>
		<contour>
			<point x="286" y="-206" type="curve" smooth="yes"/>
			<point x="404" y="-206"/>
			<point x="466" y="-146"/>
			<point x="466" y="-58" type="curve" smooth="yes"/>
			<point x="466" y="-1"/>
			<point x="444" y="36"/>
			<point x="388" y="128" type="curve"/>
			<point x="404" y="68" type="line"/>
			<point x="582" y="650" type="line"/>
			<point x="406" y="650" type="line"/>
			<point x="336" y="376" type="line" smooth="yes"/>
			<point x="318" y="305"/>
			<point x="306" y="241"/>
			<point x="288" y="166" type="curve"/>
			<point x="284" y="166" type="line"/>
			<point x="266" y="241"/>
			<point x="253" y="305"/>
			<point x="236" y="376" type="curve" smooth="yes"/>
			<point x="172" y="650" type="line"/>
			<point x="-10" y="650" type="line"/>
			<point x="160" y="68" type="line"/>
			<point x="180" y="128" type="line"/>
			<point x="126" y="38"/>
			<point x="104" y="-1"/>
			<point x="104" y="-58" type="curve" smooth="yes"/>
			<point x="104" y="-146"/>
			<point x="166" y="-206"/>
		</contour>
		<contour>
			<point x="286" y="-100" type="curve" smooth="yes"/>
			<point x="267" y="-100"/>
			<point x="252" y="-86"/>
			<point x="252" y="-62" type="curve" smooth="yes"/>
			<point x="252" y="-38"/>
			<point x="262" y="-16"/>
			<point x="282" y="24" type="curve"/>
			<point x="287" y="24" type="line"/>
			<point x="310" y="-16"/>
			<point x="320" y="-38"/>
			<point x="320" y="-62" type="curve" smooth="yes"/>
			<point x="320" y="-86"/>
			<point x="305" y="-100"/>
		</contour>
	</outline>
	<anchor name="aboveUC" x="290" y="672"/>
	<anchor name="belowLC" x="290" y="-182"/>
</glyph>
<glyph name="Istroke" format="2">
	<unicode hex="0197"/>
	<advance width="356"/>
	<outline>
		<contour>
			<point x="22" y="278" type="line"/>
			<point x="334" y="278" type="line"/>
			<point x="334" y="390" type="line"/>
			<point x="98" y="390" type="line"/>
			<point x="22" y="384" type="line"/>
		</contour>
		<component base="I" xOffset="20"/>
	</outline>
	<anchor name="aboveUC" x="180" y="672"/>
	<anchor name="belowLC" x="180" y="-22"/>
</glyph>
<glyph name="nlong" format="2">
	<unicode hex="019E"/>
	<advance width="582"/>
	<outline>
		<contour>
			<point x="356" y="-176" type="line"/>
			<point x="528" y="-176" type="line"/>
			<point x="528" y="308" type="line" smooth="yes"/>
			<point x="528" y="432"/>
			<point x="482" y="512"/>
			<point x="372" y="512" type="curve" smooth="yes"/>
			<point x="304" y="512"/>
			<point x="254" y="478"/>
			<point x="214" y="440" type="curve"/>
			<point x="210" y="440" type="line"/>
			<point x="198" y="500" type="line"/>
			<point x="58" y="500" type="line"/>
			<point x="58" y="0" type="line"/>
			<point x="230" y="0" type="line"/>
			<point x="230" y="328" type="line"/>
			<point x="256" y="352"/>
			<point x="274" y="366"/>
			<point x="306" y="366" type="curve" smooth="yes"/>
			<point x="340" y="366"/>
			<point x="356" y="350"/>
			<point x="356" y="286" type="curve" smooth="yes"/>
		</contour>
	</outline>
	<anchor name="aboveLC" x="320" y="522"/>
	<anchor name="belowLC" x="290" y="-182"/>
</glyph>
<glyph name="ohorn" format="2">
	<unicode hex="01A1"/>
	<advance width="560"/>
	<outline>
		<contour>
			<point x="456" y="438" type="line"/>
			<point x="528" y="460"/>
			<point x="580" y="511"/>
			<point x="580" y="592" type="curve" smooth="yes"/>
			<point x="580" y="632"/>
			<point x="564" y="672"/>
			<point x="548" y="692" type="curve"/>
			<point x="422" y="638" type="line"/>
			<point x="430" y="625"/>
			<point x="438" y="604"/>
			<point x="438" y="580" type="curve" smooth="yes"/>
			<point x="438" y="525"/>
			<point x="412" y="502"/>
			<point x="378" y="492" type="curve"/>
		</contour>
		<component base="o"/>
	</outline>
	<anchor name="aboveLC" x="280" y="522"/>
	<anchor name="belowLC" x="280" y="-22"/>
</glyph>
<glyph name="uhorn" format="2">
	<unicode hex="01B0"/>
	<advance width="578"/>
	<outline>
		<contour>
			<point x="516" y="448" type="line"/>
			<point x="580" y="469"/>
			<point x="626" y="521"/>
			<point x="626" y="602" type="curve" smooth="yes"/>
			<point x="626" y="642"/>
			<point x="610" y="682"/>
			<point x="594" y="702" type="curve"/>
			<point x="468" y="648" type="line"/>
			<point x="475" y="635"/>
			<point x="484" y="614"/>
			<point x="484" y="590" type="curve" smooth="yes"/>
			<point x="484" y="509"/>
			<point x="438" y="500"/>
			<point x="404" y="500" type="curve"/>
		</contour>
		<component base="u"/>
	</outline>
	<anchor name="aboveLC" x="286" y="522"/>
	<anchor name="belowLC" x="304" y="-22"/>
</glyph>
<glyph name="clickalveolar" format="1">
	<unicode hex="01C2"/>
	<advance width="406"/>
	<outline>
		<contour>
			<point x="6" y="304" type="line"/>
			<point x="400" y="304" type="line"/>
			<point x="400" y="416" type="line"/>
			<point x="82" y="416" type="line"/>
			<point x="6" y="410" type="line"/>
		</contour>
		<contour>
			<point x="6" y="120" type="line"/>
			<point x="400" y="120" type="line"/>
			<point x="400" y="232" type="line"/>
			<point x="82" y="232" type="line"/>
			<point x="6" y="226" type="line"/>
		</contour>
		<contour>
			<point x="120" y="-176" type="line"/>
			<point x="292" y="-176" type="line"/>
			<point x="292" y="696" type="line"/>
			<point x="120" y="696" type="line"/>
		</contour>
	</outline>
</glyph>
<glyph name="Oogonek" format="2">
	<unicode hex="01EA"/>
	<advance width="692"/>
	<outline>
		<contour>
			<point x="364" y="-228" type="curve" smooth="yes"/>
			<point x="404" y="-228"/>
			<point x="454" y="-212"/>
			<point x="484" y="-190" type="curve"/>
			<point x="446" y="-94" type="line"/>
			<point x="436" y="-100"/>
			<point x="420" y="-108"/>
			<point x="404" y="-108" type="curve" smooth="yes"/>
			<point x="378" y="-108"/>
			<point x="362" y="-98"/>
			<point x="362" y="-74" type="curve" smooth="yes"/>
			<point x="362" y="-48"/>
			<point x="386" y="-16"/>
			<point x="432" y="-2" type="curve" smooth="yes"/>
			<point x="565" y="38"/>
			<point x="648" y="146"/>
			<point x="648" y="328" type="curve" smooth="yes"/>
			<point x="648" y="541"/>
			<point x="526" y="662"/>
			<point x="346" y="662" type="curve" smooth="yes"/>
			<point x="166" y="662"/>
			<point x="44" y="542"/>
			<point x="44" y="328" type="curve" smooth="yes"/>
			<point x="44" y="114"/>
			<point x="166" y="-12"/>
			<point x="346" y="-12" type="curve"/>
			<point x="304" y="2" type="line"/>
			<point x="266" y="-24"/>
			<point x="228" y="-74"/>
			<point x="228" y="-126" type="curve" smooth="yes"/>
			<point x="228" y="-190"/>
			<point x="288" y="-228"/>
		</contour>
		<contour>
			<point x="346" y="132" type="curve" smooth="yes"/>
			<point x="268" y="132"/>
			<point x="220" y="208"/>
			<point x="220" y="328" type="curve" smooth="yes"/>
			<point x="220" y="446"/>
			<point x="268" y="514"/>
			<point x="346" y="514" type="curve" smooth="yes"/>
			<point x="424" y="514"/>
			<point x="472" y="446"/>
			<point x="472" y="328" type="curve" smooth="yes"/>
			<point x="472" y="208"/>
			<point x="424" y="132"/>
		</contour>
	</outline>
	<anchor name="aboveUC" x="346" y="672"/>
	<anchor name="belowLC" x="350" y="-222"/>
</glyph>
<glyph name="oogonek" format="2">
	<unicode hex="01EB"/>
	<advance width="560"/>
	<outline>
		<contour>
			<point x="288" y="-212" type="curve" smooth="yes"/>
			<point x="322" y="-212"/>
			<point x="370" y="-198"/>
			<point x="398" y="-176" type="curve"/>
			<point x="364" y="-100" type="line"/>
			<point x="356" y="-106"/>
			<point x="342" y="-112"/>
			<point x="328" y="-112" type="curve" smooth="yes"/>
			<point x="310" y="-112"/>
			<point x="290" y="-102"/>
			<point x="290" y="-78" type="curve" smooth="yes"/>
			<point x="290" y="-52"/>
			<point x="304" y="-24"/>
			<point x="350" y="-6" type="curve" smooth="yes"/>
			<point x="456" y="36"/>
			<point x="528" y="116"/>
			<point x="528" y="250" type="curve" smooth="yes"/>
			<point x="528" y="416"/>
			<point x="408" y="512"/>
			<point x="280" y="512" type="curve" smooth="yes"/>
			<point x="152" y="512"/>
			<point x="32" y="416"/>
			<point x="32" y="250" type="curve" smooth="yes"/>
			<point x="32" y="84"/>
			<point x="152" y="-12"/>
			<point x="280" y="-12" type="curve"/>
			<point x="246" y="2" type="line"/>
			<point x="212" y="-22"/>
			<point x="176" y="-68"/>
			<point x="176" y="-118" type="curve" smooth="yes"/>
			<point x="176" y="-180"/>
			<point x="226" y="-212"/>
		</contour>
		<contour>
			<point x="280" y="126" type="curve" smooth="yes"/>
			<point x="228" y="126"/>
			<point x="208" y="174"/>
			<point x="208" y="250" type="curve" smooth="yes"/>
			<point x="208" y="326"/>
			<point x="228" y="374"/>
			<point x="280" y="374" type="curve" smooth="yes"/>
			<point x="332" y="374"/>
			<point x="352" y="326"/>
			<point x="352" y="250" type="curve" smooth="yes"/>
			<point x="352" y="174"/>
			<point x="332" y="126"/>
		</contour>
	</outline>
	<anchor name="aboveLC" x="280" y="522"/>
</glyph>
<glyph name="Cstroke" format="2">
	<unicode hex="023B"/>
	<advance width="586"/>
	<outline>
		<contour>
			<point x="290" y="-46" type="line"/>
			<point x="442" y="686" type="line"/>
			<point x="396" y="696" type="line"/>
			<point x="244" y="-36" type="line"/>
		</contour>
		<component base="C"/>
	</outline>
	<anchor name="aboveUC" x="350" y="672"/>
	<anchor name="belowLC" x="350" y="-22"/>
</glyph>
<glyph name="cstroke" format="2">
	<unicode hex="023C"/>
	<advance width="472"/>
	<outline>
		<contour>
			<point x="250" y="-46" type="line"/>
			<point x="374" y="548" type="line"/>
			<point x="328" y="558" type="line"/>
			<point x="204" y="-36" type="line"/>
		</contour>
		<component base="c"/>
	</outline>
	<anchor name="aboveLC" x="280" y="522"/>
	<anchor name="belowLC" x="260" y="-22"/>
</glyph>
<glyph name="alphalatinturned" format="1">
	<unicode hex="0252"/>
	<advance width="580"/>
	<outline>
		<contour>
			<point x="336" y="-12" type="curve" smooth="yes"/>
			<point x="442" y="-12"/>
			<point x="544" y="86"/>
			<point x="544" y="258" type="curve" smooth="yes"/>
			<point x="544" y="412"/>
			<point x="468" y="512"/>
			<point x="350" y="512" type="curve" smooth="yes"/>
			<point x="296" y="512"/>
			<point x="244" y="484"/>
			<point x="208" y="448" type="curve"/>
			<point x="204" y="448" type="line"/>
			<point x="182" y="488"/>
			<point x="142" y="512"/>
			<point x="76" y="512" type="curve" smooth="yes"/>
			<point x="44" y="512"/>
			<point x="20" y="504"/>
			<point x="2" y="498" type="curve"/>
			<point x="22" y="372" type="line"/>
			<point x="28" y="374"/>
			<point x="30" y="374"/>
			<point x="34" y="374" type="curve" smooth="yes"/>
			<point x="48" y="374"/>
			<point x="58" y="364"/>
			<point x="58" y="330" type="curve" smooth="yes"/>
			<point x="58" y="0" type="line"/>
			<point x="192" y="0" type="line"/>
			<point x="206" y="50" type="line"/>
			<point x="210" y="50" type="line"/>
			<point x="248" y="6"/>
			<point x="294" y="-12"/>
		</contour>
		<contour>
			<point x="294" y="128" type="curve" smooth="yes"/>
			<point x="272" y="128"/>
			<point x="250" y="134"/>
			<point x="230" y="152" type="curve"/>
			<point x="230" y="336" type="line"/>
			<point x="252" y="362"/>
			<point x="272" y="372"/>
			<point x="298" y="372" type="curve" smooth="yes"/>
			<point x="344" y="372"/>
			<point x="368" y="338"/>
			<point x="368" y="256" type="curve" smooth="yes"/>
			<point x="368" y="160"/>
			<point x="334" y="128"/>
		</contour>
		<contour>
			<point name="aboveLC" x="310" y="522" type="move"/>
		</contour>
		<contour>
			<point name="belowLC" x="280" y="-22" type="move"/>
		</contour>
	</outline>
</glyph>
<glyph name="eopen" format="2">
	<unicode hex="025B"/>
	<advance width="450"/>
	<outline>
		<contour>
			<point x="252" y="-12" type="curve" smooth="yes"/>
			<point x="326" y="-12"/>
			<point x="386" y="2"/>
			<point x="434" y="42" type="curve"/>
			<point x="378" y="144" type="line"/>
			<point x="344" y="126"/>
			<point x="308" y="118"/>
			<point x="282" y="118" type="curve" smooth="yes"/>
			<point x="232" y="118"/>
			<point x="202" y="132"/>
			<point x="202" y="160" type="curve" smooth="yes"/>
			<point x="202" y="186"/>
			<point x="218" y="198"/>
			<point x="260" y="198" type="curve" smooth="yes"/>
			<point x="338" y="198" type="line"/>
			<point x="338" y="310" type="line"/>
			<point x="276" y="310" type="line" smooth="yes"/>
			<point x="244" y="310"/>
			<point x="224" y="319"/>
			<point x="224" y="344" type="curve" smooth="yes"/>
			<point x="224" y="365"/>
			<point x="242" y="382"/>
			<point x="278" y="382" type="curve" smooth="yes"/>
			<point x="312" y="382"/>
			<point x="338" y="378"/>
			<point x="370" y="362" type="curve"/>
			<point x="430" y="466" type="line"/>
			<point x="384" y="496"/>
			<point x="324" y="512"/>
			<point x="262" y="512" type="curve" smooth="yes"/>
			<point x="152" y="512"/>
			<point x="56" y="466"/>
			<point x="56" y="366" type="curve" smooth="yes"/>
			<point x="56" y="328"/>
			<point x="80" y="282"/>
			<point x="136" y="266" type="curve"/>
			<point x="136" y="262" type="line"/>
			<point x="74" y="246"/>
			<point x="34" y="206"/>
			<point x="34" y="134" type="curve" smooth="yes"/>
			<point x="34" y="37"/>
			<point x="145" y="-12"/>
		</contour>
	</outline>
	<anchor name="aboveLC" x="250" y="522"/>
	<anchor name="baseLC" x="250" y="0"/>
	<anchor name="belowLC" x="250" y="-22"/>
	<anchor name="ogonekLC" x="250" y="0"/>
</glyph>
<glyph name="eopenreversedrhotic" format="2">
	<unicode hex="025D"/>
	<advance width="642"/>
	<outline>
		<contour>
			<point x="198" y="-12" type="curve" smooth="yes"/>
			<point x="305" y="-12"/>
			<point x="416" y="37"/>
			<point x="416" y="134" type="curve" smooth="yes"/>
			<point x="416" y="206"/>
			<point x="376" y="246"/>
			<point x="314" y="262" type="curve"/>
			<point x="314" y="266" type="line"/>
			<point x="442" y="322" type="line"/>
			<point x="442" y="316" type="line" smooth="yes"/>
			<point x="442" y="228"/>
			<point x="498" y="194"/>
			<point x="558" y="194" type="curve" smooth="yes"/>
			<point x="602" y="194"/>
			<point x="630" y="206"/>
			<point x="652" y="220" type="curve"/>
			<point x="618" y="300" type="line"/>
			<point x="608" y="294"/>
			<point x="596" y="290"/>
			<point x="578" y="290" type="curve" smooth="yes"/>
			<point x="546" y="290"/>
			<point x="526" y="316"/>
			<point x="526" y="388" type="curve" smooth="yes"/>
			<point x="526" y="408"/>
			<point x="526" y="428"/>
			<point x="528" y="456" type="curve"/>
			<point x="516" y="466" type="line"/>
			<point x="358" y="398" type="line"/>
			<point x="358" y="288" type="line"/>
			<point x="380" y="306"/>
			<point x="388" y="332"/>
			<point x="388" y="364" type="curve" smooth="yes"/>
			<point x="388" y="466"/>
			<point x="300" y="512"/>
			<point x="188" y="512" type="curve" smooth="yes"/>
			<point x="126" y="512"/>
			<point x="66" y="496"/>
			<point x="20" y="466" type="curve"/>
			<point x="80" y="362" type="line"/>
			<point x="112" y="378"/>
			<point x="138" y="382"/>
			<point x="172" y="382" type="curve" smooth="yes"/>
			<point x="208" y="382"/>
			<point x="226" y="365"/>
			<point x="226" y="344" type="curve" smooth="yes"/>
			<point x="226" y="319"/>
			<point x="206" y="310"/>
			<point x="174" y="310" type="curve" smooth="yes"/>
			<point x="112" y="310" type="line"/>
			<point x="112" y="198" type="line"/>
			<point x="190" y="198" type="line" smooth="yes"/>
			<point x="232" y="198"/>
			<point x="248" y="186"/>
			<point x="248" y="160" type="curve" smooth="yes"/>
			<point x="248" y="132"/>
			<point x="218" y="118"/>
			<point x="168" y="118" type="curve" smooth="yes"/>
			<point x="142" y="118"/>
			<point x="106" y="126"/>
			<point x="72" y="144" type="curve"/>
			<point x="16" y="42" type="line"/>
			<point x="64" y="2"/>
			<point x="124" y="-12"/>
		</contour>
	</outline>
	<anchor name="aboveLC" x="210" y="522"/>
	<anchor name="belowLC" x="210" y="-22"/>
</glyph>
<glyph name="gsmall" format="2">
	<unicode hex="0262"/>
	<advance width="524"/>
	<outline>
		<contour>
			<point x="291" y="-12" type="curve" smooth="yes"/>
			<point x="370" y="-12"/>
			<point x="443" y="16"/>
			<point x="486" y="55" type="curve"/>
			<point x="486" y="310" type="line"/>
			<point x="266" y="310" type="line"/>
			<point x="266" y="198" type="line"/>
			<point x="340" y="198" type="line"/>
			<point x="340" y="126" type="line"/>
			<point x="330" y="120"/>
			<point x="318" y="118"/>
			<point x="304" y="118" type="curve" smooth="yes"/>
			<point x="246" y="118"/>
			<point x="206" y="164"/>
			<point x="206" y="248" type="curve" smooth="yes"/>
			<point x="206" y="344"/>
			<point x="258" y="382"/>
			<point x="305" y="382" type="curve" smooth="yes"/>
			<point x="348" y="382"/>
			<point x="365" y="369"/>
			<point x="396" y="350" type="curve"/>
			<point x="472" y="452" type="line"/>
			<point x="426" y="487"/>
			<point x="379" y="512"/>
			<point x="293" y="512" type="curve" smooth="yes"/>
			<point x="164" y="512"/>
			<point x="32" y="418"/>
			<point x="32" y="248" type="curve" smooth="yes"/>
			<point x="32" y="67"/>
			<point x="160" y="-12"/>
		</contour>
	</outline>
	<anchor name="aboveLC" x="290" y="522"/>
	<anchor name="belowLC" x="280" y="-22"/>
</glyph>
<glyph name="gammalatin" format="2">
	<unicode hex="0263"/>
	<advance width="544"/>
	<outline>
		<contour>
			<point x="276" y="-206" type="curve" smooth="yes"/>
			<point x="378" y="-206"/>
			<point x="446" y="-144"/>
			<point x="446" y="-54" type="curve" smooth="yes"/>
			<point x="446" y="2"/>
			<point x="424" y="38"/>
			<point x="370" y="128" type="curve"/>
			<point x="370" y="68" type="line"/>
			<point x="532" y="500" type="line"/>
			<point x="368" y="500" type="line"/>
			<point x="314" y="312" type="line"/>
			<point x="302" y="270"/>
			<point x="290" y="241"/>
			<point x="278" y="195" type="curve"/>
			<point x="274" y="195" type="line"/>
			<point x="262" y="241"/>
			<point x="250" y="270"/>
			<point x="238" y="312" type="curve"/>
			<point x="184" y="500" type="line"/>
			<point x="12" y="500" type="line"/>
			<point x="180" y="68" type="line"/>
			<point x="180" y="128" type="line"/>
			<point x="128" y="40"/>
			<point x="106" y="2"/>
			<point x="106" y="-54" type="curve" smooth="yes"/>
			<point x="106" y="-144"/>
			<point x="174" y="-206"/>
		</contour>
		<contour>
			<point x="276" y="-100" type="curve" smooth="yes"/>
			<point x="258" y="-100"/>
			<point x="244" y="-86"/>
			<point x="244" y="-62" type="curve" smooth="yes"/>
			<point x="244" y="-37"/>
			<point x="252" y="-12"/>
			<point x="272" y="30" type="curve"/>
			<point x="277" y="30" type="line"/>
			<point x="300" y="-12"/>
			<point x="308" y="-37"/>
			<point x="308" y="-62" type="curve" smooth="yes"/>
			<point x="308" y="-86"/>
			<point x="294" y="-100"/>
		</contour>
	</outline>
	<anchor name="aboveLC" x="270" y="522"/>
	<anchor name="belowLC" x="270" y="-182"/>
</glyph>
<glyph name="hhook" format="2">
	<unicode hex="0266"/>
	<advance width="582"/>
	<outline>
		<contour>
			<point x="58" y="0" type="line"/>
			<point x="230" y="0" type="line"/>
			<point x="230" y="308" type="line"/>
			<point x="256" y="332"/>
			<point x="274" y="346"/>
			<point x="306" y="346" type="curve" smooth="yes"/>
			<point x="340" y="346"/>
			<point x="356" y="330"/>
			<point x="356" y="266" type="curve" smooth="yes"/>
			<point x="356" y="0" type="line"/>
			<point x="528" y="0" type="line"/>
			<point x="528" y="288" type="line" smooth="yes"/>
			<point x="528" y="412"/>
			<point x="482" y="492"/>
			<point x="372" y="492" type="curve" smooth="yes"/>
			<point x="304" y="492"/>
			<point x="256" y="458"/>
			<point x="222" y="428" type="curve"/>
			<point x="228" y="492" type="line"/>
			<point x="234" y="554"/>
			<point x="258" y="574"/>
			<point x="302" y="574" type="curve" smooth="yes"/>
			<point x="318" y="574"/>
			<point x="336" y="570"/>
			<point x="352" y="564" type="curve"/>
			<point x="382" y="690" type="line"/>
			<point x="360" y="698"/>
			<point x="322" y="708"/>
			<point x="276" y="708" type="curve" smooth="yes"/>
			<point x="114" y="708"/>
			<point x="58" y="603"/>
			<point x="58" y="486" type="curve" smooth="yes"/>
		</contour>
	</outline>
	<anchor name="aboveUC" x="320" y="722"/>
	<anchor name="belowLC" x="300" y="-22"/>
</glyph>
<glyph name="ismall" format="2">
	<unicode hex="026A"/>
	<advance width="416"/>
	<outline>
		<contour>
			<point x="54" y="0" type="line"/>
			<point x="362" y="0" type="line"/>
			<point x="362" y="134" type="line"/>
			<point x="294" y="134" type="line"/>
			<point x="294" y="366" type="line"/>
			<point x="362" y="366" type="line"/>
			<point x="362" y="500" type="line"/>
			<point x="54" y="500" type="line"/>
			<point x="54" y="366" type="line"/>
			<point x="122" y="366" type="line"/>
			<point x="122" y="134" type="line"/>
			<point x="54" y="134" type="line"/>
		</contour>
	</outline>
	<anchor name="aboveLC" x="210" y="522"/>
	<anchor name="belowLC" x="210" y="-22"/>
	<anchor name="ogonekLC" x="210" y="0"/>
</glyph>
<glyph name="lmiddletilde" format="1">
	<unicode hex="026B"/>
	<advance width="456"/>
	<outline>
		<component base="l" xOffset="84"/>
		<component base="tildeoverlaycmb" xOffset="228" yOffset="110"/>
		<contour>
			<point name="aboveUC" x="230" y="720" type="move"/>
		</contour>
		<contour>
			<point name="belowLC" x="250" y="-20" type="move"/>
		</contour>
	</outline>
</glyph>
<glyph name="lbelt" format="2">
	<unicode hex="026C"/>
	<advance width="472"/>
	<outline>
		<contour>
			<point x="156" y="270" type="curve" smooth="yes"/>
			<point x="460" y="270" type="line"/>
			<point x="460" y="382" type="line"/>
			<point x="142" y="382" type="line" smooth="yes"/>
			<point x="113" y="382"/>
			<point x="96" y="392"/>
			<point x="96" y="410" type="curve" smooth="yes"/>
			<point x="96" y="428"/>
			<point x="107" y="438"/>
			<point x="124" y="438" type="curve" smooth="yes"/>
			<point x="148" y="438"/>
			<point x="168" y="418"/>
			<point x="168" y="382" type="curve"/>
			<point x="224" y="362" type="line"/>
			<point x="224" y="456"/>
			<point x="176" y="518"/>
			<point x="108" y="518" type="curve" smooth="yes"/>
			<point x="41" y="518"/>
			<point x="-6" y="470"/>
			<point x="-6" y="404" type="curve" smooth="yes"/>
			<point x="-6" y="330"/>
			<point x="43" y="270"/>
		</contour>
		<component base="l.a" xOffset="110"/>
	</outline>
	<anchor name="aboveUC" x="260" y="722"/>
	<anchor name="belowLC" x="260" y="-22"/>
</glyph>
<glyph name="nretroflex" format="2">
	<unicode hex="0273"/>
	<advance width="582"/>
	<outline>
		<contour>
			<point x="540" y="-188" type="curve" smooth="yes"/>
			<point x="581" y="-188"/>
			<point x="604" y="-182"/>
			<point x="624" y="-174" type="curve"/>
			<point x="594" y="-48" type="line"/>
			<point x="584" y="-52"/>
			<point x="577" y="-54"/>
			<point x="568" y="-54" type="curve" smooth="yes"/>
			<point x="539" y="-54"/>
			<point x="528" y="-37"/>
			<point x="528" y="10" type="curve"/>
			<point x="528" y="308" type="line" smooth="yes"/>
			<point x="528" y="432"/>
			<point x="482" y="512"/>
			<point x="372" y="512" type="curve" smooth="yes"/>
			<point x="304" y="512"/>
			<point x="254" y="478"/>
			<point x="214" y="440" type="curve"/>
			<point x="210" y="440" type="line"/>
			<point x="198" y="500" type="line"/>
			<point x="58" y="500" type="line"/>
			<point x="58" y="0" type="line"/>
			<point x="230" y="0" type="line"/>
			<point x="230" y="328" type="line"/>
			<point x="256" y="352"/>
			<point x="274" y="366"/>
			<point x="306" y="366" type="curve" smooth="yes"/>
			<point x="340" y="366"/>
			<point x="356" y="350"/>
			<point x="356" y="286" type="curve" smooth="yes"/>
			<point x="356" y="16" type="line" smooth="yes"/>
			<point x="356" y="-91"/>
			<point x="398" y="-188"/>
		</contour>
	</outline>
	<anchor name="aboveLC" x="320" y="522"/>
	<anchor name="belowLC" x="290" y="-182"/>
</glyph>
<glyph name="oesmall" format="2">
	<unicode hex="0276"/>
	<advance width="736"/>
	<outline>
		<contour>
			<point x="292" y="-12" type="curve" smooth="yes"/>
			<point x="334" y="-12"/>
			<point x="364" y="-10"/>
			<point x="412" y="0" type="curve"/>
			<point x="708" y="0" type="line"/>
			<point x="708" y="122" type="line"/>
			<point x="502" y="122" type="line"/>
			<point x="502" y="198" type="line"/>
			<point x="670" y="198" type="line"/>
			<point x="670" y="310" type="line"/>
			<point x="502" y="310" type="line"/>
			<point x="502" y="376" type="line"/>
			<point x="698" y="376" type="line"/>
			<point x="698" y="500" type="line"/>
			<point x="412" y="500" type="line"/>
			<point x="360" y="510"/>
			<point x="334" y="512"/>
			<point x="292" y="512" type="curve" smooth="yes"/>
			<point x="164" y="512"/>
			<point x="32" y="426"/>
			<point x="32" y="249" type="curve" smooth="yes"/>
			<point x="32" y="68"/>
			<point x="164" y="-12"/>
		</contour>
		<contour>
			<point x="301" y="123" type="curve" smooth="yes"/>
			<point x="256" y="123"/>
			<point x="208" y="147"/>
			<point x="208" y="249" type="curve" smooth="yes"/>
			<point x="208" y="343"/>
			<point x="256" y="375"/>
			<point x="301" y="375" type="curve" smooth="yes"/>
			<point x="311" y="375"/>
			<point x="322" y="374"/>
			<point x="334" y="371" type="curve"/>
			<point x="334" y="127" type="line"/>
			<point x="322" y="124"/>
			<point x="311" y="123"/>
		</contour>
	</outline>
	<anchor name="aboveLC" x="420" y="522"/>
	<anchor name="belowLC" x="440" y="-22"/>
</glyph>
<glyph name="rhookturned" format="1">
	<unicode hex="027B"/>
	<advance width="418"/>
	<outline>
		<contour>
			<point x="372" y="-188" type="curve" smooth="yes"/>
			<point x="413" y="-188"/>
			<point x="436" y="-182"/>
			<point x="456" y="-174" type="curve"/>
			<point x="426" y="-48" type="line"/>
			<point x="416" y="-52"/>
			<point x="409" y="-54"/>
			<point x="400" y="-54" type="curve" smooth="yes"/>
			<point x="371" y="-54"/>
			<point x="360" y="-37"/>
			<point x="360" y="10" type="curve"/>
			<point x="360" y="500" type="line"/>
			<point x="188" y="500" type="line"/>
			<point x="188" y="222" type="line"/>
			<point x="164" y="160"/>
			<point x="120" y="138"/>
			<point x="84" y="138" type="curve" smooth="yes"/>
			<point x="62" y="138"/>
			<point x="46" y="142"/>
			<point x="28" y="146" type="curve"/>
			<point x="0" y="-2" type="line"/>
			<point x="14" y="-8"/>
			<point x="31" y="-12"/>
			<point x="62" y="-12" type="curve" smooth="yes"/>
			<point x="111" y="-12"/>
			<point x="167" y="18"/>
			<point x="204" y="86" type="curve"/>
			<point x="208" y="86" type="line"/>
			<point x="208" y="-10" type="line" smooth="yes"/>
			<point x="208" y="-102"/>
			<point x="246" y="-188"/>
		</contour>
		<contour>
			<point name="aboveLC" x="270" y="522" type="move"/>
		</contour>
		<contour>
			<point name="belowLC" x="190" y="-198" type="move"/>
		</contour>
	</outline>
</glyph>
<glyph name="Rsmallinverted" format="1">
	<unicode hex="0281"/>
	<advance width="546"/>
	<outline>
		<contour>
			<point x="271" y="0" type="curve" smooth="yes"/>
			<point x="488" y="0" type="line"/>
			<point x="488" y="500" type="line"/>
			<point x="316" y="500" type="line"/>
			<point x="316" y="350" type="line"/>
			<point x="274" y="350" type="line"/>
			<point x="178" y="350"/>
			<point x="58" y="302"/>
			<point x="58" y="172" type="curve" smooth="yes"/>
			<point x="58" y="42"/>
			<point x="154" y="0"/>
		</contour>
		<contour>
			<point x="291" y="125" type="line" smooth="yes"/>
			<point x="247" y="125"/>
			<point x="227" y="143"/>
			<point x="227" y="177" type="curve" smooth="yes"/>
			<point x="227" y="210"/>
			<point x="247" y="235"/>
			<point x="291" y="235" type="curve" smooth="yes"/>
			<point x="316" y="235" type="line"/>
			<point x="316" y="125" type="line"/>
		</contour>
		<contour>
			<point x="161" y="258" type="line"/>
			<point x="302" y="304" type="line"/>
			<point x="199" y="500" type="line"/>
			<point x="8" y="500" type="line"/>
		</contour>
		<contour>
			<point name="aboveUC" x="270" y="522" type="move"/>
		</contour>
		<contour>
			<point name="belowLC" x="290" y="-22" type="move"/>
		</contour>
	</outline>
</glyph>
<glyph name="rsmallinverted" format="2">
	<unicode hex="0281"/>
	<advance width="546"/>
	<outline>
		<contour>
			<point x="271" y="0" type="curve" smooth="yes"/>
			<point x="488" y="0" type="line"/>
			<point x="488" y="500" type="line"/>
			<point x="316" y="500" type="line"/>
			<point x="316" y="348" type="line"/>
			<point x="274" y="348" type="line"/>
			<point x="178" y="348"/>
			<point x="58" y="302"/>
			<point x="58" y="172" type="curve" smooth="yes"/>
			<point x="58" y="42"/>
			<point x="154" y="0"/>
		</contour>
		<contour>
			<point x="290" y="126" type="line" smooth="yes"/>
			<point x="246" y="126"/>
			<point x="226" y="144"/>
			<point x="226" y="178" type="curve" smooth="yes"/>
			<point x="226" y="210"/>
			<point x="246" y="236"/>
			<point x="290" y="236" type="curve" smooth="yes"/>
			<point x="316" y="236" type="line"/>
			<point x="316" y="126" type="line"/>
		</contour>
		<contour>
			<point x="161" y="258" type="line"/>
			<point x="302" y="304" type="line"/>
			<point x="198" y="500" type="line"/>
			<point x="8" y="500" type="line"/>
		</contour>
	</outline>
	<anchor name="aboveLC" x="270" y="522"/>
	<anchor name="belowLC" x="300" y="-22"/>
</glyph>
<glyph name="shook" format="2">
	<unicode hex="0282"/>
	<advance width="452"/>
	<outline>
		<contour>
			<point x="192" y="-188" type="curve" smooth="yes"/>
			<point x="233" y="-188"/>
			<point x="256" y="-181"/>
			<point x="276" y="-174" type="curve"/>
			<point x="246" y="-52" type="line"/>
			<point x="232" y="-56"/>
			<point x="222" y="-58"/>
			<point x="210" y="-58" type="curve" smooth="yes"/>
			<point x="180" y="-58"/>
			<point x="158" y="-45"/>
			<point x="158" y="24" type="curve" smooth="yes"/>
			<point x="158" y="34" type="line"/>
			<point x="130" y="4" type="line"/>
			<point x="168" y="-10"/>
			<point x="198" y="-12"/>
			<point x="212" y="-12" type="curve" smooth="yes"/>
			<point x="352" y="-12"/>
			<point x="426" y="60"/>
			<point x="426" y="154" type="curve" smooth="yes"/>
			<point x="426" y="244"/>
			<point x="358" y="282"/>
			<point x="298" y="304" type="curve" smooth="yes"/>
			<point x="248" y="322"/>
			<point x="206" y="332"/>
			<point x="206" y="358" type="curve" smooth="yes"/>
			<point x="206" y="378"/>
			<point x="221" y="386"/>
			<point x="250" y="386" type="curve" smooth="yes"/>
			<point x="281" y="386"/>
			<point x="316" y="370"/>
			<point x="352" y="344" type="curve"/>
			<point x="428" y="446" type="line"/>
			<point x="384" y="479"/>
			<point x="326" y="512"/>
			<point x="244" y="512" type="curve" smooth="yes"/>
			<point x="126" y="512"/>
			<point x="46" y="448"/>
			<point x="46" y="350" type="curve" smooth="yes"/>
			<point x="46" y="268"/>
			<point x="112" y="225"/>
			<point x="170" y="202" type="curve" smooth="yes"/>
			<point x="220" y="182"/>
			<point x="266" y="170"/>
			<point x="266" y="144" type="curve" smooth="yes"/>
			<point x="266" y="124"/>
			<point x="252" y="114"/>
			<point x="210" y="114" type="curve" smooth="yes"/>
			<point x="170" y="114"/>
			<point x="118" y="120"/>
			<point x="22" y="168" type="curve"/>
			<point x="18" y="166" type="line"/>
			<point x="18" y="26" type="line" smooth="yes"/>
			<point x="18" y="-86"/>
			<point x="58" y="-188"/>
		</contour>
	</outline>
	<anchor name="aboveLC" x="240" y="522"/>
	<anchor name="belowLC" x="230" y="-192"/>
</glyph>
<glyph name="dotlessjstrokehook" format="2">
	<unicode hex="0284"/>
	<advance width="340"/>
	<outline>
		<contour>
			<point x="22" y="198" type="line"/>
			<point x="328" y="198" type="line"/>
			<point x="328" y="310" type="line"/>
			<point x="90" y="310" type="line"/>
			<point x="22" y="304" type="line"/>
		</contour>
		<component base="esh" xOffset="30"/>
	</outline>
	<anchor name="aboveUC" x="250" y="722"/>
	<anchor name="belowLC" x="120" y="-182"/>
</glyph>
<glyph name="ubar" format="2">
	<unicode hex="0289"/>
	<advance width="638"/>
	<outline>
		<contour>
			<point x="18" y="254" type="line"/>
			<point x="616" y="254" type="line"/>
			<point x="616" y="366" type="line"/>
			<point x="84" y="366" type="line"/>
			<point x="18" y="360" type="line"/>
		</contour>
		<component base="u" xOffset="30"/>
	</outline>
	<anchor name="aboveLC" x="320" y="522"/>
	<anchor name="baseLC" x="280" y="0"/>
	<anchor name="belowLC" x="310" y="-22"/>
	<anchor name="ogonekLC" x="450" y="0"/>
</glyph>
<glyph name="ysmall" format="1">
	<unicode hex="028F"/>
	<advance width="486"/>
	<outline>
		<contour>
			<point x="158" y="0" type="line"/>
			<point x="330" y="0" type="line"/>
			<point x="330" y="144" type="line"/>
			<point x="496" y="500" type="line"/>
			<point x="318" y="500" type="line"/>
			<point x="286" y="404" type="line"/>
			<point x="272" y="363"/>
			<point x="259" y="327"/>
			<point x="246" y="284" type="curve"/>
			<point x="242" y="284" type="line"/>
			<point x="229" y="327"/>
			<point x="216" y="363"/>
			<point x="204" y="404" type="curve"/>
			<point x="170" y="500" type="line"/>
			<point x="-10" y="500" type="line"/>
			<point x="158" y="144" type="line"/>
		</contour>
		<contour>
			<point name="aboveLC" x="240" y="522" type="move"/>
		</contour>
		<contour>
			<point name="belowLC" x="240" y="-22" type="move"/>
		</contour>
	</outline>
</glyph>
<glyph name="zretroflex" format="1">
	<unicode hex="0290"/>
	<advance width="474"/>
	<outline>
		<contour>
			<point x="452" y="-188" type="curve" smooth="yes"/>
			<point x="493" y="-188"/>
			<point x="516" y="-182"/>
			<point x="536" y="-174" type="curve"/>
			<point x="506" y="-48" type="line"/>
			<point x="496" y="-52"/>
			<point x="489" y="-54"/>
			<point x="480" y="-54" type="curve" smooth="yes"/>
			<point x="451" y="-54"/>
			<point x="440" y="-37"/>
			<point x="440" y="10" type="curve" smooth="yes"/>
			<point x="440" y="134" type="line"/>
			<point x="254" y="134" type="line"/>
			<point x="444" y="408" type="line"/>
			<point x="444" y="500" type="line"/>
			<point x="62" y="500" type="line"/>
			<point x="62" y="366" type="line"/>
			<point x="230" y="366" type="line"/>
			<point x="40" y="92" type="line"/>
			<point x="40" y="0" type="line"/>
			<point x="268" y="0" type="line"/>
			<point x="268" y="-4" type="line" smooth="yes"/>
			<point x="268" y="-90"/>
			<point x="314" y="-188"/>
		</contour>
		<contour>
			<point name="aboveLC" x="252" y="522" type="move"/>
		</contour>
	</outline>
</glyph>
<glyph name="glottalstopreversed" format="1">
	<unicode hex="0295"/>
	<advance width="460"/>
	<outline>
		<contour>
			<point x="166" y="0" type="line"/>
			<point x="338" y="0" type="line"/>
			<point x="338" y="314" type="line"/>
			<point x="225" y="390"/>
			<point x="188" y="432"/>
			<point x="188" y="490" type="curve" smooth="yes"/>
			<point x="188" y="543"/>
			<point x="224" y="570"/>
			<point x="278" y="570" type="curve" smooth="yes"/>
			<point x="318" y="570"/>
			<point x="355" y="544"/>
			<point x="384" y="510" type="curve"/>
			<point x="468" y="618" type="line"/>
			<point x="420" y="670"/>
			<point x="352" y="708"/>
			<point x="258" y="708" type="curve" smooth="yes"/>
			<point x="129" y="708"/>
			<point x="16" y="639"/>
			<point x="16" y="498" type="curve" smooth="yes"/>
			<point x="16" y="390"/>
			<point x="78" y="325"/>
			<point x="166" y="252" type="curve"/>
		</contour>
	</outline>
</glyph>
<glyph name="clickbilabial" format="2">
	<unicode hex="0298"/>
	<advance width="568"/>
	<outline>
		<contour>
			<point x="284" y="-12" type="curve" smooth="yes"/>
			<point x="424" y="-12"/>
			<point x="524" y="110"/>
			<point x="524" y="350" type="curve" smooth="yes"/>
			<point x="524" y="595"/>
			<point x="424" y="708"/>
			<point x="284" y="708" type="curve" smooth="yes"/>
			<point x="144" y="708"/>
			<point x="44" y="596"/>
			<point x="44" y="350" type="curve" smooth="yes"/>
			<point x="44" y="110"/>
			<point x="144" y="-12"/>
		</contour>
		<contour>
			<point x="284" y="126" type="curve" smooth="yes"/>
			<point x="244" y="126"/>
			<point x="200" y="174"/>
			<point x="200" y="350" type="curve" smooth="yes"/>
			<point x="200" y="524"/>
			<point x="244" y="570"/>
			<point x="284" y="570" type="curve" smooth="yes"/>
			<point x="324" y="570"/>
			<point x="368" y="524"/>
			<point x="368" y="350" type="curve" smooth="yes"/>
			<point x="368" y="174"/>
			<point x="324" y="126"/>
		</contour>
		<contour>
			<point x="284" y="282" type="curve" smooth="yes"/>
			<point x="322" y="282"/>
			<point x="354" y="313"/>
			<point x="354" y="351" type="curve" smooth="yes"/>
			<point x="354" y="389"/>
			<point x="322" y="420"/>
			<point x="284" y="420" type="curve" smooth="yes"/>
			<point x="246" y="420"/>
			<point x="214" y="389"/>
			<point x="214" y="351" type="curve" smooth="yes"/>
			<point x="214" y="313"/>
			<point x="246" y="282"/>
		</contour>
	</outline>
	<anchor name="aboveUC" x="284" y="722"/>
	<anchor name="belowLC" x="284" y="-22"/>
</glyph>
<glyph name="Bsmall" format="1">
	<unicode hex="0299"/>
	<advance width="536"/>
	<outline>
		<component base="ve"/>
		<contour>
			<point name="aboveLC" x="270" y="522" type="move"/>
		</contour>
		<contour>
			<point name="belowLC" x="280" y="-22" type="move"/>
		</contour>
	</outline>
</glyph>
<glyph name="Hsmall" format="1">
	<unicode hex="029C"/>
	<advance width="590"/>
	<outline>
		<component base="en"/>
		<contour>
			<point name="aboveLC" x="294" y="522" type="move"/>
		</contour>
		<contour>
			<point name="belowLC" x="294" y="-22" type="move"/>
		</contour>
	</outline>
</glyph>
<glyph name="lsmall" format="2">
	<unicode hex="029F"/>
	<advance width="440"/>
	<outline>
		<contour>
			<point x="58" y="0" type="line"/>
			<point x="414" y="0" type="line"/>
			<point x="414" y="134" type="line"/>
			<point x="230" y="134" type="line"/>
			<point x="230" y="500" type="line"/>
			<point x="58" y="500" type="line"/>
		</contour>
	</outline>
	<anchor name="aboveLC" x="150" y="522"/>
	<anchor name="belowLC" x="240" y="-22"/>
</glyph>
<glyph name="glottalstopstroke" format="1">
	<unicode hex="02A1"/>
	<advance width="460"/>
	<outline>
		<contour>
			<point x="16" y="108" type="line"/>
			<point x="396" y="108" type="line"/>
			<point x="396" y="220" type="line"/>
			<point x="122" y="220" type="line"/>
			<point x="16" y="214" type="line"/>
		</contour>
		<component base="glottalstop"/>
		<contour>
			<point name="aboveUC" x="220" y="720" type="move"/>
		</contour>
		<contour>
			<point name="belowLC" x="200" y="-22" type="move"/>
		</contour>
	</outline>
</glyph>
<glyph name="dzed" format="2">
	<unicode hex="02A3"/>
	<advance width="900"/>
	<outline>
		<contour>
			<point x="230" y="-12" type="curve" smooth="yes"/>
			<point x="271" y="-12"/>
			<point x="313" y="13"/>
			<point x="346" y="46" type="curve"/>
			<point x="350" y="46" type="line"/>
			<point x="362" y="0" type="line"/>
			<point x="502" y="0" type="line"/>
			<point x="502" y="696" type="line"/>
			<point x="330" y="696" type="line"/>
			<point x="330" y="534" type="line"/>
			<point x="336" y="462" type="line"/>
			<point x="307" y="491"/>
			<point x="279" y="512"/>
			<point x="230" y="512" type="curve" smooth="yes"/>
			<point x="132" y="512"/>
			<point x="36" y="414"/>
			<point x="36" y="250" type="curve" smooth="yes"/>
			<point x="36" y="88"/>
			<point x="112" y="-12"/>
		</contour>
		<contour>
			<point x="276" y="128" type="curve" smooth="yes"/>
			<point x="236" y="128"/>
			<point x="212" y="162"/>
			<point x="212" y="252" type="curve" smooth="yes"/>
			<point x="212" y="340"/>
			<point x="240" y="372"/>
			<point x="272" y="372" type="curve" smooth="yes"/>
			<point x="291" y="372"/>
			<point x="312" y="365"/>
			<point x="330" y="348" type="curve"/>
			<point x="330" y="164" type="line"/>
			<point x="313" y="137"/>
			<point x="298" y="128"/>
		</contour>
		<contour>
			<point x="546" y="0" type="line"/>
			<point x="876" y="0" type="line"/>
			<point x="876" y="134" type="line"/>
			<point x="738" y="134" type="line"/>
			<point x="870" y="408" type="line"/>
			<point x="870" y="500" type="line"/>
			<point x="488" y="500" type="line"/>
			<point x="488" y="366" type="line"/>
			<point x="678" y="366" type="line"/>
			<point x="546" y="92" type="line"/>
		</contour>
	</outline>
	<anchor name="aboveUC" x="420" y="722"/>
	<anchor name="belowLC" x="530" y="-22"/>
</glyph>
<glyph name="dezh" format="2">
	<unicode hex="02A4"/>
	<advance width="916"/>
	<outline>
		<contour>
			<point x="230" y="-12" type="curve" smooth="yes"/>
			<point x="271" y="-12"/>
			<point x="313" y="13"/>
			<point x="346" y="46" type="curve"/>
			<point x="350" y="46" type="line"/>
			<point x="362" y="0" type="line"/>
			<point x="502" y="0" type="line"/>
			<point x="502" y="696" type="line"/>
			<point x="330" y="696" type="line"/>
			<point x="330" y="534" type="line"/>
			<point x="336" y="462" type="line"/>
			<point x="307" y="491"/>
			<point x="279" y="512"/>
			<point x="230" y="512" type="curve" smooth="yes"/>
			<point x="132" y="512"/>
			<point x="36" y="414"/>
			<point x="36" y="250" type="curve" smooth="yes"/>
			<point x="36" y="88"/>
			<point x="112" y="-12"/>
		</contour>
		<contour>
			<point x="276" y="128" type="curve" smooth="yes"/>
			<point x="236" y="128"/>
			<point x="212" y="162"/>
			<point x="212" y="252" type="curve" smooth="yes"/>
			<point x="212" y="340"/>
			<point x="240" y="372"/>
			<point x="272" y="372" type="curve" smooth="yes"/>
			<point x="291" y="372"/>
			<point x="312" y="365"/>
			<point x="330" y="348" type="curve"/>
			<point x="330" y="164" type="line"/>
			<point x="313" y="137"/>
			<point x="298" y="128"/>
		</contour>
		<contour>
			<point x="668" y="-188" type="curve" smooth="yes"/>
			<point x="791" y="-188"/>
			<point x="894" y="-104"/>
			<point x="894" y="44" type="curve" smooth="yes"/>
			<point x="894" y="145"/>
			<point x="859" y="244"/>
			<point x="668" y="244" type="curve"/>
			<point x="739" y="210" type="line"/>
			<point x="870" y="408" type="line"/>
			<point x="870" y="500" type="line"/>
			<point x="478" y="500" type="line"/>
			<point x="478" y="366" type="line"/>
			<point x="666" y="366" type="line"/>
			<point x="550" y="188" type="line"/>
			<point x="604" y="108" type="line"/>
			<point x="626" y="116"/>
			<point x="634" y="118"/>
			<point x="660" y="118" type="curve" smooth="yes"/>
			<point x="696" y="118"/>
			<point x="722" y="90"/>
			<point x="722" y="40" type="curve" smooth="yes"/>
			<point x="722" y="-18"/>
			<point x="692" y="-50"/>
			<point x="646" y="-50" type="curve" smooth="yes"/>
			<point x="612" y="-50"/>
			<point x="583" y="-26"/>
			<point x="554" y="0" type="curve"/>
			<point x="478" y="-106" type="line"/>
			<point x="524" y="-150"/>
			<point x="582" y="-188"/>
		</contour>
	</outline>
	<anchor name="aboveUC" x="420" y="722"/>
	<anchor name="belowLC" x="430" y="-182"/>
</glyph>
<glyph name="h.sups" format="2">
	<unicode hex="02B0"/>
	<advance width="391"/>
	<outline>
		<contour>
			<point x="38" y="368" type="line"/>
			<point x="158" y="368" type="line"/>
			<point x="158" y="583" type="line"/>
			<point x="174" y="598"/>
			<point x="186" y="608"/>
			<point x="204" y="608" type="curve" smooth="yes"/>
			<point x="232" y="608"/>
			<point x="236" y="592"/>
			<point x="236" y="556" type="curve" smooth="yes"/>
			<point x="236" y="368" type="line"/>
			<point x="356" y="368" type="line"/>
			<point x="356" y="570" type="line" smooth="yes"/>
			<point x="356" y="654"/>
			<point x="326" y="708"/>
			<point x="251" y="708" type="curve" smooth="yes"/>
			<point x="206" y="708"/>
			<point x="172" y="684"/>
			<point x="150" y="662" type="curve"/>
			<point x="158" y="720" type="line"/>
			<point x="158" y="828" type="line"/>
			<point x="38" y="828" type="line"/>
		</contour>
	</outline>
</glyph>
<glyph name="glottalstopmod" format="2">
	<unicode hex="02C0"/>
	<advance width="358"/>
	<outline>
		<contour>
			<point x="104" y="488" type="line"/>
			<point x="224" y="488" type="line"/>
			<point x="224" y="552" type="line"/>
			<point x="286" y="578"/>
			<point x="328" y="624"/>
			<point x="328" y="692" type="curve" smooth="yes"/>
			<point x="328" y="784"/>
			<point x="262" y="836"/>
			<point x="164" y="836" type="curve" smooth="yes"/>
			<point x="102" y="836"/>
			<point x="52" y="808"/>
			<point x="20" y="772" type="curve"/>
			<point x="80" y="706" type="line"/>
			<point x="101" y="727"/>
			<point x="126" y="740"/>
			<point x="154" y="740" type="curve" smooth="yes"/>
			<point x="188" y="740"/>
			<point x="208" y="720"/>
			<point x="208" y="690" type="curve" smooth="yes"/>
			<point x="208" y="651"/>
			<point x="184" y="624"/>
			<point x="104" y="596" type="curve"/>
		</contour>
	</outline>
</glyph>
<glyph name="verticallinemod" format="2">
	<unicode hex="02C8"/>
	<advance width="160"/>
	<outline>
		<contour>
			<point x="18" y="542" type="line"/>
			<point x="142" y="542" type="line"/>
			<point x="148" y="750" type="line"/>
			<point x="12" y="750" type="line"/>
		</contour>
	</outline>
</glyph>
<glyph name="colontriangularmod" format="2">
	<unicode hex="02D0"/>
	<advance width="320"/>
	<outline>
		<contour>
			<point x="40" y="0" type="line"/>
			<point x="280" y="0" type="line"/>
			<point x="168" y="210" type="line"/>
			<point x="152" y="210" type="line"/>
		</contour>
		<contour>
			<point x="152" y="290" type="line"/>
			<point x="168" y="290" type="line"/>
			<point x="280" y="500" type="line"/>
			<point x="40" y="500" type="line"/>
		</contour>
	</outline>
</glyph>
<glyph name="gravecmb" format="2">
	<unicode hex="0300"/>
	<outline>
		<contour>
			<point x="-20" y="572" type="line"/>
			<point x="64" y="656" type="line"/>
			<point x="-94" y="844" type="line"/>
			<point x="-210" y="730" type="line"/>
		</contour>
	</outline>
	<anchor name="_aboveLC" x="0" y="522"/>
</glyph>
<glyph name="circumflexcmb" format="2">
	<unicode hex="0302"/>
	<outline>
		<contour>
			<point x="-194" y="618" type="line"/>
			<point x="-130" y="558" type="line"/>
			<point x="-2" y="642" type="line"/>
			<point x="2" y="642" type="line"/>
			<point x="130" y="558" type="line"/>
			<point x="194" y="618" type="line"/>
			<point x="88" y="746" type="line"/>
			<point x="-88" y="746" type="line"/>
		</contour>
	</outline>
	<anchor name="_aboveLC" x="0" y="522"/>
	<anchor name="aboveLC" x="0" y="740"/>
</glyph>
<glyph name="dotaccentcmb" format="2">
	<unicode hex="0307"/>
	<outline>
		<contour>
			<point x="0" y="562" type="curve" smooth="yes"/>
			<point x="56" y="562"/>
			<point x="94" y="596"/>
			<point x="94" y="648" type="curve" smooth="yes"/>
			<point x="94" y="700"/>
			<point x="56" y="734"/>
			<point x="0" y="734" type="curve" smooth="yes"/>
			<point x="-56" y="734"/>
			<point x="-94" y="700"/>
			<point x="-94" y="648" type="curve" smooth="yes"/>
			<point x="-94" y="596"/>
			<point x="-56" y="562"/>
		</contour>
	</outline>
	<anchor name="_aboveLC" x="0" y="522"/>
	<anchor name="aboveLC" x="0" y="730"/>
</glyph>
<glyph name="hungarumlautcmb" format="2">
	<unicode hex="030B"/>
	<outline>
		<contour>
			<point x="-52" y="564" type="line"/>
			<point x="60" y="738" type="line"/>
			<point x="-54" y="788" type="line"/>
			<point x="-142" y="604" type="line"/>
		</contour>
		<contour>
			<point x="138" y="564" type="line"/>
			<point x="250" y="738" type="line"/>
			<point x="136" y="788" type="line"/>
			<point x="48" y="604" type="line"/>
		</contour>
	</outline>
	<anchor name="_aboveLC" x="0" y="522"/>
</glyph>
<glyph name="caroncmb" format="2">
	<unicode hex="030C"/>
	<outline>
		<contour>
			<point x="-80" y="570" type="line"/>
			<point x="80" y="570" type="line"/>
			<point x="210" y="766" type="line"/>
			<point x="80" y="766" type="line"/>
			<point x="2" y="680" type="line"/>
			<point x="-2" y="680" type="line"/>
			<point x="-80" y="766" type="line"/>
			<point x="-210" y="766" type="line"/>
		</contour>
	</outline>
	<anchor name="_aboveLC" x="0" y="522"/>
	<anchor name="aboveLC" x="0" y="742"/>
</glyph>
<glyph name="commaturnedabovecmb" format="2">
	<unicode hex="0312"/>
	<outline>
		<contour>
			<point x="-2" y="574" type="curve" smooth="yes"/>
			<point x="37" y="574"/>
			<point x="68" y="603"/>
			<point x="68" y="648" type="curve" smooth="yes"/>
			<point x="68" y="689"/>
			<point x="37" y="715"/>
			<point x="0" y="715" type="curve" smooth="yes"/>
			<point x="-18" y="715"/>
			<point x="-36" y="706"/>
			<point x="-50" y="695" type="curve"/>
			<point x="-9" y="637" type="line"/>
			<point x="-11" y="701" type="line"/>
			<point x="-11" y="739"/>
			<point x="18" y="763"/>
			<point x="68" y="780" type="curve"/>
			<point x="39" y="840" type="line"/>
			<point x="-47" y="809"/>
			<point x="-88" y="750"/>
			<point x="-88" y="679" type="curve" smooth="yes"/>
			<point x="-88" y="611"/>
			<point x="-59" y="574"/>
		</contour>
	</outline>
	<anchor name="_aboveLC" x="0" y="522"/>
</glyph>
<glyph name="dieresisbelowcmb" format="1">
	<unicode hex="0324"/>
	<outline>
		<component base="dieresiscmb" yOffset="-786"/>
		<contour>
			<point name="_belowLC" x="0" y="-22" type="move"/>
		</contour>
	</outline>
</glyph>
<glyph name="cedillacmb" format="2">
	<unicode hex="0327"/>
	<outline>
		<contour>
			<point x="-108" y="-244" type="line"/>
			<point x="24" y="-240"/>
			<point x="102" y="-208"/>
			<point x="102" y="-136" type="curve" smooth="yes"/>
			<point x="102" y="-94"/>
			<point x="76" y="-72"/>
			<point x="24" y="-60" type="curve"/>
			<point x="52" y="4" type="line"/>
			<point x="-46" y="4" type="line"/>
			<point x="-96" y="-96" type="line"/>
			<point x="-34" y="-104"/>
			<point x="-20" y="-118"/>
			<point x="-20" y="-136" type="curve" smooth="yes"/>
			<point x="-20" y="-164"/>
			<point x="-44" y="-174"/>
			<point x="-120" y="-178" type="curve"/>
		</contour>
	</outline>
	<anchor name="_baseLC" x="0" y="0"/>
</glyph>
<glyph name="verticallinebelowcmb" format="1">
	<unicode hex="0329"/>
	<outline>
		<contour>
			<point x="-68" y="-270" type="line"/>
			<point x="68" y="-270" type="line"/>
			<point x="62" y="-62" type="line"/>
			<point x="-62" y="-62" type="line"/>
		</contour>
		<contour>
			<point name="_belowLC" x="0" y="-22" type="move"/>
		</contour>
	</outline>
</glyph>
<glyph name="ringhalfrightbelowcmb" format="2">
	<unicode hex="0339"/>
	<outline>
		<contour>
			<point x="-80" y="-252" type="line"/>
			<point x="42" y="-258"/>
			<point x="92" y="-218"/>
			<point x="92" y="-146" type="curve" smooth="yes"/>
			<point x="92" y="-74"/>
			<point x="42" y="-34"/>
			<point x="-80" y="-40" type="curve"/>
			<point x="-80" y="-102" type="line"/>
			<point x="-36" y="-100"/>
			<point x="-20" y="-120"/>
			<point x="-20" y="-146" type="curve" smooth="yes"/>
			<point x="-20" y="-172"/>
			<point x="-36" y="-192"/>
			<point x="-80" y="-190" type="curve"/>
		</contour>
	</outline>
	<anchor name="_belowLC" x="0" y="-22"/>
</glyph>
<glyph name="squarebelowcmb" format="2">
	<unicode hex="033B"/>
	<outline>
		<contour>
			<point x="-130" y="-250" type="line"/>
			<point x="130" y="-250" type="line"/>
			<point x="130" y="-62" type="line"/>
			<point x="-130" y="-62" type="line"/>
		</contour>
		<contour>
			<point x="-48" y="-190" type="line"/>
			<point x="-48" y="-120" type="line"/>
			<point x="48" y="-120" type="line"/>
			<point x="48" y="-190" type="line"/>
		</contour>
	</outline>
	<anchor name="_belowLC" x="0" y="-22"/>
</glyph>
<glyph name="variacmb" format="2">
	<unicode hex="0340"/>
	<outline>
		<contour>
			<point x="-52" y="554" type="line"/>
			<point x="62" y="574" type="line"/>
			<point x="32" y="802" type="line"/>
			<point x="-134" y="774" type="line"/>
		</contour>
	</outline>
	<anchor name="_aboveLC" x="0" y="522"/>
</glyph>
<glyph name="dialytikatonoscmb" format="2">
	<unicode hex="0344"/>
	<outline>
		<contour>
			<point x="-140" y="580" type="curve" smooth="yes"/>
			<point x="-106" y="580"/>
			<point x="-78" y="604"/>
			<point x="-78" y="642" type="curve" smooth="yes"/>
			<point x="-78" y="680"/>
			<point x="-106" y="704"/>
			<point x="-140" y="704" type="curve" smooth="yes"/>
			<point x="-174" y="704"/>
			<point x="-202" y="680"/>
			<point x="-202" y="642" type="curve" smooth="yes"/>
			<point x="-202" y="604"/>
			<point x="-174" y="580"/>
		</contour>
		<contour>
			<point x="18" y="568" type="line"/>
			<point x="94" y="788" type="line"/>
			<point x="-22" y="812" type="line"/>
			<point x="-56" y="584" type="line"/>
		</contour>
		<contour>
			<point x="140" y="580" type="curve" smooth="yes"/>
			<point x="174" y="580"/>
			<point x="202" y="604"/>
			<point x="202" y="642" type="curve" smooth="yes"/>
			<point x="202" y="680"/>
			<point x="174" y="704"/>
			<point x="140" y="704" type="curve" smooth="yes"/>
			<point x="106" y="704"/>
			<point x="78" y="680"/>
			<point x="78" y="642" type="curve" smooth="yes"/>
			<point x="78" y="604"/>
			<point x="106" y="580"/>
		</contour>
	</outline>
	<anchor name="_aboveLC" x="0" y="522"/>
</glyph>
<glyph name="alpha" format="2">
	<unicode hex="03B1"/>
	<advance width="608"/>
	<outline>
		<contour>
			<point x="236" y="-12" type="curve" smooth="yes"/>
			<point x="292" y="-12"/>
			<point x="336" y="12"/>
			<point x="368" y="64" type="curve"/>
			<point x="372" y="64" type="line"/>
			<point x="396" y="6"/>
			<point x="438" y="-12"/>
			<point x="512" y="-12" type="curve" smooth="yes"/>
			<point x="556" y="-12"/>
			<point x="588" y="-4"/>
			<point x="608" y="6" type="curve"/>
			<point x="588" y="132" type="line"/>
			<point x="576" y="128"/>
			<point x="565" y="126"/>
			<point x="556" y="126" type="curve" smooth="yes"/>
			<point x="528" y="126"/>
			<point x="508" y="136"/>
			<point x="508" y="170" type="curve" smooth="yes"/>
			<point x="508" y="240"/>
			<point x="548" y="390"/>
			<point x="574" y="500" type="curve"/>
			<point x="404" y="500" type="line"/>
			<point x="390" y="424" type="line"/>
			<point x="386" y="424" type="line"/>
			<point x="352" y="486"/>
			<point x="308" y="512"/>
			<point x="254" y="512" type="curve" smooth="yes"/>
			<point x="138" y="512"/>
			<point x="32" y="414"/>
			<point x="32" y="250" type="curve" smooth="yes"/>
			<point x="32" y="88"/>
			<point x="112" y="-12"/>
		</contour>
		<contour>
			<point x="278" y="128" type="curve" smooth="yes"/>
			<point x="236" y="128"/>
			<point x="208" y="162"/>
			<point x="208" y="252" type="curve" smooth="yes"/>
			<point x="208" y="340"/>
			<point x="246" y="372"/>
			<point x="282" y="372" type="curve" smooth="yes"/>
			<point x="320" y="372"/>
			<point x="340" y="342"/>
			<point x="358" y="302" type="curve"/>
			<point x="352" y="218" type="line" smooth="yes"/>
			<point x="349" y="168"/>
			<point x="314" y="128"/>
		</contour>
	</outline>
	<anchor name="aboveLC" x="300" y="522"/>
	<anchor name="belowLC" x="320" y="-22"/>
</glyph>
<glyph name="iota" format="2">
	<unicode hex="03B9"/>
	<advance width="316"/>
	<outline>
		<contour>
			<point x="218" y="-12" type="curve" smooth="yes"/>
			<point x="266" y="-12"/>
			<point x="292" y="-4"/>
			<point x="316" y="6" type="curve"/>
			<point x="296" y="132" type="line"/>
			<point x="286" y="128"/>
			<point x="272" y="126"/>
			<point x="264" y="126" type="curve" smooth="yes"/>
			<point x="234" y="126"/>
			<point x="220" y="136"/>
			<point x="220" y="170" type="curve" smooth="yes"/>
			<point x="220" y="240"/>
			<point x="228" y="390"/>
			<point x="232" y="500" type="curve"/>
			<point x="58" y="500" type="line"/>
			<point x="58" y="176" type="line" smooth="yes"/>
			<point x="58" y="64"/>
			<point x="92" y="-12"/>
		</contour>
	</outline>
	<anchor name="aboveLC" x="144" y="522"/>
	<anchor name="belowLC" x="180" y="-22"/>
</glyph>
<glyph name="omega" format="1">
	<unicode hex="03C9"/>
	<advance width="764"/>
	<outline>
		<contour>
			<point x="230" y="-12" type="curve" smooth="yes"/>
			<point x="303" y="-12"/>
			<point x="362" y="26"/>
			<point x="378" y="114" type="curve"/>
			<point x="382" y="114" type="line"/>
			<point x="398" y="26"/>
			<point x="467" y="-12"/>
			<point x="540" y="-12" type="curve" smooth="yes"/>
			<point x="674" y="-12"/>
			<point x="728" y="92"/>
			<point x="728" y="266" type="curve" smooth="yes"/>
			<point x="728" y="364"/>
			<point x="698" y="442"/>
			<point x="656" y="512" type="curve"/>
			<point x="498" y="456" type="line"/>
			<point x="544" y="378"/>
			<point x="556" y="327"/>
			<point x="556" y="254" type="curve" smooth="yes"/>
			<point x="556" y="173"/>
			<point x="536" y="126"/>
			<point x="506" y="126" type="curve" smooth="yes"/>
			<point x="468" y="126"/>
			<point x="456" y="156"/>
			<point x="456" y="238" type="curve" smooth="yes"/>
			<point x="456" y="286"/>
			<point x="462" y="310"/>
			<point x="470" y="370" type="curve"/>
			<point x="290" y="370" type="line"/>
			<point x="298" y="310"/>
			<point x="304" y="286"/>
			<point x="304" y="238" type="curve" smooth="yes"/>
			<point x="304" y="167"/>
			<point x="288" y="126"/>
			<point x="248" y="126" type="curve" smooth="yes"/>
			<point x="210" y="126"/>
			<point x="198" y="170"/>
			<point x="198" y="228" type="curve" smooth="yes"/>
			<point x="198" y="302"/>
			<point x="224" y="372"/>
			<point x="270" y="452" type="curve"/>
			<point x="108" y="512" type="line"/>
			<point x="66" y="442"/>
			<point x="36" y="336"/>
			<point x="36" y="262" type="curve" smooth="yes"/>
			<point x="36" y="86"/>
			<point x="100" y="-12"/>
		</contour>
		<contour>
			<point name="aboveLC" x="382" y="522" type="move"/>
		</contour>
		<contour>
			<point name="belowLC" x="382" y="-22" type="move"/>
		</contour>
	</outline>
</glyph>
<glyph name="beta.a" format="2">
	<unicode hex="03D0"/>
	<advance width="604"/>
	<outline>
		<contour>
			<point x="314" y="-12" type="curve" smooth="yes"/>
			<point x="454" y="-12"/>
			<point x="572" y="58"/>
			<point x="572" y="208" type="curve" smooth="yes"/>
			<point x="572" y="293"/>
			<point x="508" y="362"/>
			<point x="424" y="376" type="curve"/>
			<point x="424" y="380" type="line"/>
			<point x="492" y="408"/>
			<point x="522" y="458"/>
			<point x="522" y="524" type="curve" smooth="yes"/>
			<point x="522" y="642"/>
			<point x="428" y="708"/>
			<point x="312" y="708" type="curve" smooth="yes"/>
			<point x="140" y="708"/>
			<point x="58" y="588"/>
			<point x="58" y="426" type="curve" smooth="yes"/>
			<point x="58" y="230" type="line" smooth="yes"/>
			<point x="58" y="56"/>
			<point x="174" y="-12"/>
		</contour>
		<contour>
			<point x="318" y="128" type="curve" smooth="yes"/>
			<point x="260" y="128"/>
			<point x="218" y="164"/>
			<point x="218" y="254" type="curve" smooth="yes"/>
			<point x="218" y="303"/>
			<point x="220" y="373"/>
			<point x="224" y="438" type="curve" smooth="yes"/>
			<point x="230" y="525"/>
			<point x="250" y="574"/>
			<point x="300" y="574" type="curve" smooth="yes"/>
			<point x="330" y="574"/>
			<point x="354" y="556"/>
			<point x="354" y="510" type="curve" smooth="yes"/>
			<point x="354" y="450"/>
			<point x="329" y="407"/>
			<point x="150" y="376" type="curve"/>
			<point x="170" y="254" type="line"/>
			<point x="255" y="282"/>
			<point x="284" y="296"/>
			<point x="316" y="296" type="curve" smooth="yes"/>
			<point x="378" y="296"/>
			<point x="404" y="258"/>
			<point x="404" y="214" type="curve" smooth="yes"/>
			<point x="404" y="154"/>
			<point x="364" y="128"/>
		</contour>
	</outline>
	<anchor name="aboveUC" x="330" y="722"/>
	<anchor name="belowLC" x="320" y="-22"/>
</glyph>
<glyph name="theta.a" format="2">
	<unicode hex="03D1"/>
	<advance width="560"/>
	<outline>
		<contour>
			<point x="266" y="-12" type="curve" smooth="yes"/>
			<point x="440" y="-12"/>
			<point x="516" y="116"/>
			<point x="516" y="352" type="curve" smooth="yes"/>
			<point x="516" y="576"/>
			<point x="426" y="708"/>
			<point x="264" y="708" type="curve" smooth="yes"/>
			<point x="136" y="708"/>
			<point x="44" y="596"/>
			<point x="44" y="480" type="curve" smooth="yes"/>
			<point x="44" y="357"/>
			<point x="95" y="290"/>
			<point x="352" y="290" type="curve"/>
			<point x="352" y="400" type="line"/>
			<point x="222" y="400"/>
			<point x="200" y="426"/>
			<point x="200" y="486" type="curve" smooth="yes"/>
			<point x="200" y="524"/>
			<point x="226" y="570"/>
			<point x="270" y="570" type="curve" smooth="yes"/>
			<point x="314" y="570"/>
			<point x="350" y="528"/>
			<point x="350" y="352" type="curve" smooth="yes"/>
			<point x="350" y="158"/>
			<point x="324" y="126"/>
			<point x="278" y="126" type="curve" smooth="yes"/>
			<point x="248" y="126"/>
			<point x="228" y="142"/>
			<point x="216" y="196" type="curve" smooth="yes"/>
			<point x="210" y="222"/>
			<point x="200" y="258"/>
			<point x="188" y="270" type="curve"/>
			<point x="31" y="236" type="line"/>
			<point x="47" y="209"/>
			<point x="56" y="182"/>
			<point x="66" y="138" type="curve" smooth="yes"/>
			<point x="88" y="46"/>
			<point x="150" y="-12"/>
		</contour>
	</outline>
	<anchor name="aboveUC" x="270" y="722"/>
	<anchor name="belowLC" x="280" y="-22"/>
</glyph>
<glyph name="stigma" format="2">
	<unicode hex="03DB"/>
	<advance width="500"/>
	<outline>
		<contour>
			<point x="394" y="-188" type="line"/>
			<point x="436" y="-124"/>
			<point x="456" y="-48"/>
			<point x="456" y="-12" type="curve" smooth="yes"/>
			<point x="456" y="64"/>
			<point x="432" y="98"/>
			<point x="322" y="128" type="curve" smooth="yes"/>
			<point x="234" y="152"/>
			<point x="208" y="190"/>
			<point x="208" y="244" type="curve" smooth="yes"/>
			<point x="208" y="330"/>
			<point x="252" y="362"/>
			<point x="316" y="362" type="curve" smooth="yes"/>
			<point x="357" y="362"/>
			<point x="422" y="362"/>
			<point x="474" y="360" type="curve"/>
			<point x="474" y="500" type="line"/>
			<point x="302" y="500" type="line" smooth="yes"/>
			<point x="152" y="500"/>
			<point x="32" y="416"/>
			<point x="32" y="244" type="curve" smooth="yes"/>
			<point x="32" y="90"/>
			<point x="140" y="15"/>
			<point x="244" y="-12" type="curve" smooth="yes"/>
			<point x="298" y="-26"/>
			<point x="306" y="-40"/>
			<point x="306" y="-62" type="curve" smooth="yes"/>
			<point x="306" y="-81"/>
			<point x="288" y="-110"/>
			<point x="260" y="-146" type="curve"/>
		</contour>
	</outline>
	<anchor name="aboveLC" x="300" y="522"/>
	<anchor name="belowLC" x="220" y="-182"/>
</glyph>
<glyph name="Ghe" format="1">
	<unicode hex="0413"/>
	<advance width="530"/>
	<outline>
		<component base="Gamma"/>
		<contour>
			<point name="aboveUC" x="298" y="672" type="move"/>
		</contour>
	</outline>
</glyph>
<glyph name="Zhe" format="1">
	<unicode hex="0416"/>
	<advance width="892"/>
	<outline>
		<contour>
			<point x="0" y="0" type="line"/>
			<point x="184" y="0" type="line"/>
			<point x="308" y="264" type="line"/>
			<point x="364" y="264" type="line"/>
			<point x="364" y="0" type="line"/>
			<point x="528" y="0" type="line"/>
			<point x="528" y="264" type="line"/>
			<point x="584" y="264" type="line"/>
			<point x="708" y="0" type="line"/>
			<point x="892" y="0" type="line"/>
			<point x="708" y="340" type="line"/>
			<point x="758" y="452" type="line" smooth="yes"/>
			<point x="776" y="492"/>
			<point x="796" y="502"/>
			<point x="826" y="502" type="curve" smooth="yes"/>
			<point x="832" y="502"/>
			<point x="844" y="502"/>
			<point x="856" y="498" type="curve"/>
			<point x="884" y="652" type="line"/>
			<point x="868" y="660"/>
			<point x="844" y="662"/>
			<point x="824" y="662" type="curve" smooth="yes"/>
			<point x="744" y="662"/>
			<point x="684" y="634"/>
			<point x="642" y="546" type="curve" smooth="yes"/>
			<point x="573" y="402" type="line"/>
			<point x="528" y="402" type="line"/>
			<point x="528" y="650" type="line"/>
			<point x="364" y="650" type="line"/>
			<point x="364" y="402" type="line"/>
			<point x="319" y="402" type="line"/>
			<point x="250" y="546" type="line" smooth="yes"/>
			<point x="208" y="634"/>
			<point x="148" y="662"/>
			<point x="68" y="662" type="curve" smooth="yes"/>
			<point x="48" y="662"/>
			<point x="24" y="660"/>
			<point x="8" y="652" type="curve"/>
			<point x="36" y="498" type="line"/>
			<point x="48" y="502"/>
			<point x="60" y="502"/>
			<point x="66" y="502" type="curve" smooth="yes"/>
			<point x="96" y="502"/>
			<point x="116" y="492"/>
			<point x="134" y="452" type="curve" smooth="yes"/>
			<point x="184" y="340" type="line"/>
		</contour>
		<contour>
			<point name="aboveUC" x="446" y="672" type="move"/>
		</contour>
	</outline>
</glyph>
<glyph name="Ka" format="2">
	<unicode hex="041A"/>
	<advance width="628"/>
	<outline>
		<contour>
			<point x="72" y="0" type="line"/>
			<point x="244" y="0" type="line"/>
			<point x="244" y="264" type="line"/>
			<point x="306" y="264" type="line"/>
			<point x="450" y="0" type="line"/>
			<point x="638" y="0" type="line"/>
			<point x="438" y="344" type="line"/>
			<point x="490" y="452" type="line" smooth="yes"/>
			<point x="508" y="490"/>
			<point x="524" y="502"/>
			<point x="548" y="502" type="curve" smooth="yes"/>
			<point x="562" y="502"/>
			<point x="572" y="500"/>
			<point x="578" y="498" type="curve"/>
			<point x="606" y="652" type="line"/>
			<point x="590" y="660"/>
			<point x="566" y="662"/>
			<point x="540" y="662" type="curve" smooth="yes"/>
			<point x="466" y="662"/>
			<point x="404" y="634"/>
			<point x="366" y="546" type="curve" smooth="yes"/>
			<point x="304" y="402" type="line"/>
			<point x="244" y="402" type="line"/>
			<point x="244" y="650" type="line"/>
			<point x="72" y="650" type="line"/>
		</contour>
	</outline>
	<anchor name="aboveUC" x="340" y="682"/>
</glyph>
<glyph name="Ucyr" format="2">
	<unicode hex="0423"/>
	<advance width="570"/>
	<outline>
		<contour>
			<point x="166" y="-12" type="curve" smooth="yes"/>
			<point x="275" y="-12"/>
			<point x="339" y="53"/>
			<point x="382" y="159" type="curve" smooth="yes"/>
			<point x="578" y="650" type="line"/>
			<point x="406" y="650" type="line"/>
			<point x="354" y="499" type="line"/>
			<point x="300" y="333" type="line"/>
			<point x="296" y="333" type="line"/>
			<point x="240" y="499" type="line"/>
			<point x="182" y="650" type="line"/>
			<point x="0" y="650" type="line"/>
			<point x="220" y="177" type="line"/>
			<point x="212" y="163" type="line" smooth="yes"/>
			<point x="202" y="148"/>
			<point x="181" y="142"/>
			<point x="158" y="142" type="curve" smooth="yes"/>
			<point x="129" y="142"/>
			<point x="118" y="146"/>
			<point x="106" y="150" type="curve"/>
			<point x="76" y="2" type="line"/>
			<point x="96" y="-6"/>
			<point x="125" y="-12"/>
		</contour>
	</outline>
	<anchor name="aboveUC" x="298" y="672"/>
</glyph>
<glyph name="Yeru" format="2">
	<unicode hex="042B"/>
	<advance width="874"/>
	<outline>
		<contour>
			<point x="72" y="0" type="line"/>
			<point x="290" y="0" type="line" smooth="yes"/>
			<point x="434" y="0"/>
			<point x="554" y="54"/>
			<point x="554" y="218" type="curve" smooth="yes"/>
			<point x="554" y="366"/>
			<point x="442" y="424"/>
			<point x="294" y="424" type="curve" smooth="yes"/>
			<point x="244" y="424" type="line"/>
			<point x="244" y="650" type="line"/>
			<point x="72" y="650" type="line"/>
		</contour>
		<contour>
			<point x="244" y="136" type="line"/>
			<point x="244" y="288" type="line"/>
			<point x="282" y="288" type="line" smooth="yes"/>
			<point x="352" y="288"/>
			<point x="386" y="264"/>
			<point x="386" y="216" type="curve" smooth="yes"/>
			<point x="386" y="158"/>
			<point x="346" y="136"/>
			<point x="282" y="136" type="curve" smooth="yes"/>
		</contour>
		<contour>
			<point x="630" y="0" type="line"/>
			<point x="802" y="0" type="line"/>
			<point x="802" y="650" type="line"/>
			<point x="630" y="650" type="line"/>
		</contour>
	</outline>
	<anchor name="aboveUC" x="444" y="672"/>
</glyph>
<glyph name="Ecyr" format="1">
	<unicode hex="042D"/>
	<advance width="586"/>
	<outline>
		<contour>
			<point x="238" y="-12" type="curve" smooth="yes"/>
			<point x="402" y="-12"/>
			<point x="542" y="86"/>
			<point x="542" y="320" type="curve" smooth="yes"/>
			<point x="542" y="554"/>
			<point x="408" y="662"/>
			<point x="242" y="662" type="curve" smooth="yes"/>
			<point x="154" y="662"/>
			<point x="76" y="622"/>
			<point x="26" y="576" type="curve"/>
			<point x="116" y="466" type="line"/>
			<point x="153" y="496"/>
			<point x="186" y="514"/>
			<point x="232" y="514" type="curve" smooth="yes"/>
			<point x="320" y="514"/>
			<point x="372" y="462"/>
			<point x="372" y="326" type="curve" smooth="yes"/>
			<point x="372" y="186"/>
			<point x="320" y="136"/>
			<point x="236" y="136" type="curve" smooth="yes"/>
			<point x="182" y="136"/>
			<point x="140" y="162"/>
			<point x="108" y="192" type="curve"/>
			<point x="18" y="84" type="line"/>
			<point x="78" y="20"/>
			<point x="154" y="-12"/>
		</contour>
		<contour>
			<point x="160" y="260" type="line"/>
			<point x="442" y="260" type="line"/>
			<point x="442" y="404" type="line"/>
			<point x="160" y="404" type="line"/>
		</contour>
		<contour>
			<point name="aboveUC" x="264" y="672" type="move"/>
		</contour>
	</outline>
</glyph>
<glyph name="Ya" format="2">
	<unicode hex="042F"/>
	<advance width="630"/>
	<outline>
		<contour>
			<point x="386" y="0" type="line"/>
			<point x="558" y="0" type="line"/>
			<point x="558" y="650" type="line"/>
			<point x="312" y="650" type="line" smooth="yes"/>
			<point x="172" y="650"/>
			<point x="52" y="602"/>
			<point x="52" y="440" type="curve" smooth="yes"/>
			<point x="52" y="283"/>
			<point x="172" y="218"/>
			<point x="312" y="218" type="curve" smooth="yes"/>
			<point x="386" y="218" type="line"/>
		</contour>
		<contour>
			<point x="324" y="354" type="line" smooth="yes"/>
			<point x="256" y="354"/>
			<point x="220" y="384"/>
			<point x="220" y="440" type="curve" smooth="yes"/>
			<point x="220" y="496"/>
			<point x="256" y="514"/>
			<point x="324" y="514" type="curve" smooth="yes"/>
			<point x="386" y="514" type="line"/>
			<point x="386" y="354" type="line"/>
		</contour>
		<contour>
			<point x="8" y="0" type="line"/>
			<point x="204" y="0" type="line"/>
			<point x="357" y="263" type="line"/>
			<point x="243" y="357" type="line"/>
		</contour>
	</outline>
	<anchor name="aboveUC" x="322" y="672"/>
</glyph>
<glyph name="ze" format="2">
	<unicode hex="0437"/>
	<advance width="484"/>
	<outline>
		<contour>
			<point x="220" y="-12" type="curve" smooth="yes"/>
			<point x="334" y="-12"/>
			<point x="452" y="40"/>
			<point x="452" y="144" type="curve" smooth="yes"/>
			<point x="452" y="210"/>
			<point x="418" y="244"/>
			<point x="356" y="260" type="curve"/>
			<point x="356" y="264" type="line"/>
			<point x="412" y="280"/>
			<point x="434" y="328"/>
			<point x="434" y="366" type="curve" smooth="yes"/>
			<point x="434" y="469"/>
			<point x="330" y="512"/>
			<point x="218" y="512" type="curve" smooth="yes"/>
			<point x="153" y="512"/>
			<point x="89" y="498"/>
			<point x="32" y="462" type="curve"/>
			<point x="94" y="352" type="line"/>
			<point x="132" y="376"/>
			<point x="168" y="382"/>
			<point x="206" y="382" type="curve" smooth="yes"/>
			<point x="250" y="382"/>
			<point x="270" y="368"/>
			<point x="270" y="346" type="curve" smooth="yes"/>
			<point x="270" y="322"/>
			<point x="252" y="310"/>
			<point x="218" y="310" type="curve" smooth="yes"/>
			<point x="143" y="310" type="line"/>
			<point x="143" y="198" type="line"/>
			<point x="226" y="198" type="line" smooth="yes"/>
			<point x="267" y="198"/>
			<point x="284" y="188"/>
			<point x="284" y="162" type="curve" smooth="yes"/>
			<point x="284" y="134"/>
			<point x="250" y="118"/>
			<point x="203" y="118" type="curve" smooth="yes"/>
			<point x="173" y="118"/>
			<point x="129" y="129"/>
			<point x="90" y="154" type="curve"/>
			<point x="24" y="46" type="line"/>
			<point x="91" y="-1"/>
			<point x="153" y="-12"/>
		</contour>
	</outline>
</glyph>
<glyph name="en" format="2">
	<unicode hex="043D"/>
	<advance width="590"/>
	<outline>
		<contour>
			<point x="58" y="0" type="line"/>
			<point x="230" y="0" type="line"/>
			<point x="230" y="178" type="line"/>
			<point x="360" y="178" type="line"/>
			<point x="360" y="0" type="line"/>
			<point x="532" y="0" type="line"/>
			<point x="532" y="500" type="line"/>
			<point x="360" y="500" type="line"/>
			<point x="360" y="328" type="line"/>
			<point x="230" y="328" type="line"/>
			<point x="230" y="500" type="line"/>
			<point x="58" y="500" type="line"/>
		</contour>
	</outline>
</glyph>
<glyph name="tse" format="2">
	<unicode hex="0446"/>
	<advance width="610"/>
	<outline>
		<contour>
			<point x="438" y="-172" type="line"/>
			<point x="586" y="-172" type="line"/>
			<point x="602" y="20" type="line"/>
			<point x="602" y="134" type="line"/>
			<point x="520" y="134" type="line"/>
			<point x="520" y="500" type="line"/>
			<point x="348" y="500" type="line"/>
			<point x="348" y="134" type="line"/>
			<point x="230" y="134" type="line"/>
			<point x="230" y="500" type="line"/>
			<point x="58" y="500" type="line"/>
			<point x="58" y="0" type="line"/>
			<point x="438" y="0" type="line"/>
		</contour>
	</outline>
	<anchor name="aboveLC" x="300" y="522"/>
</glyph>
<glyph name="yeru" format="2">
	<unicode hex="044B"/>
	<advance width="764"/>
	<outline>
		<contour>
			<point x="58" y="0" type="line"/>
			<point x="254" y="0" type="line" smooth="yes"/>
			<point x="376" y="0"/>
			<point x="474" y="42"/>
			<point x="474" y="177" type="curve" smooth="yes"/>
			<point x="474" y="308"/>
			<point x="376" y="350"/>
			<point x="254" y="350" type="curve" smooth="yes"/>
			<point x="230" y="350" type="line"/>
			<point x="230" y="500" type="line"/>
			<point x="58" y="500" type="line"/>
		</contour>
		<contour>
			<point x="230" y="130" type="line"/>
			<point x="230" y="224" type="line"/>
			<point x="248" y="224" type="line" smooth="yes"/>
			<point x="290" y="224"/>
			<point x="310" y="208"/>
			<point x="310" y="178" type="curve" smooth="yes"/>
			<point x="310" y="146"/>
			<point x="290" y="130"/>
			<point x="248" y="130" type="curve" smooth="yes"/>
		</contour>
		<contour>
			<point x="534" y="0" type="line"/>
			<point x="706" y="0" type="line"/>
			<point x="706" y="500" type="line"/>
			<point x="534" y="500" type="line"/>
		</contour>
	</outline>
	<anchor name="aboveLC" x="392" y="522"/>
</glyph>
<glyph name="yu" format="2">
	<unicode hex="044E"/>
	<advance width="790"/>
	<outline>
		<contour>
			<point x="58" y="0" type="line"/>
			<point x="230" y="0" type="line"/>
			<point x="230" y="178" type="line"/>
			<point x="320" y="178" type="line"/>
			<point x="320" y="328" type="line"/>
			<point x="230" y="328" type="line"/>
			<point x="230" y="500" type="line"/>
			<point x="58" y="500" type="line"/>
		</contour>
		<contour>
			<point x="526" y="-12" type="curve" smooth="yes"/>
			<point x="654" y="-12"/>
			<point x="758" y="84"/>
			<point x="758" y="250" type="curve" smooth="yes"/>
			<point x="758" y="416"/>
			<point x="654" y="512"/>
			<point x="526" y="512" type="curve" smooth="yes"/>
			<point x="388" y="512"/>
			<point x="288" y="412"/>
			<point x="288" y="250" type="curve" smooth="yes"/>
			<point x="288" y="88"/>
			<point x="388" y="-12"/>
		</contour>
		<contour>
			<point x="516" y="126" type="curve" smooth="yes"/>
			<point x="472" y="126"/>
			<point x="448" y="174"/>
			<point x="448" y="250" type="curve" smooth="yes"/>
			<point x="448" y="326"/>
			<point x="472" y="374"/>
			<point x="516" y="374" type="curve" smooth="yes"/>
			<point x="564" y="374"/>
			<point x="582" y="326"/>
			<point x="582" y="250" type="curve" smooth="yes"/>
			<point x="582" y="174"/>
			<point x="564" y="126"/>
		</contour>
	</outline>
	<anchor name="aboveLC" x="428" y="522"/>
</glyph>
<glyph name="lje" format="2">
	<unicode hex="0459"/>
	<advance width="798"/>
	<outline>
		<contour>
			<point x="69" y="-12" type="curve" smooth="yes"/>
			<point x="174" y="-12"/>
			<point x="228" y="42"/>
			<point x="250" y="130" type="curve" smooth="yes"/>
			<point x="270" y="208"/>
			<point x="274" y="285"/>
			<point x="280" y="366" type="curve"/>
			<point x="342" y="366" type="line"/>
			<point x="342" y="0" type="line"/>
			<point x="544" y="0" type="line" smooth="yes"/>
			<point x="666" y="0"/>
			<point x="764" y="42"/>
			<point x="764" y="177" type="curve" smooth="yes"/>
			<point x="764" y="308"/>
			<point x="666" y="350"/>
			<point x="544" y="350" type="curve" smooth="yes"/>
			<point x="514" y="350" type="line"/>
			<point x="514" y="500" type="line"/>
			<point x="133" y="500" type="line"/>
			<point x="128" y="394"/>
			<point x="124" y="298"/>
			<point x="107" y="213" type="curve" smooth="yes"/>
			<point x="96" y="160"/>
			<point x="74" y="150"/>
			<point x="58" y="150" type="curve" smooth="yes"/>
			<point x="48" y="150"/>
			<point x="40" y="152"/>
			<point x="32" y="154" type="curve"/>
			<point x="4" y="0" type="line"/>
			<point x="24" y="-8"/>
			<point x="44" y="-12"/>
		</contour>
		<contour>
			<point x="514" y="130" type="line"/>
			<point x="514" y="224" type="line"/>
			<point x="538" y="224" type="line" smooth="yes"/>
			<point x="580" y="224"/>
			<point x="600" y="208"/>
			<point x="600" y="178" type="curve" smooth="yes"/>
			<point x="600" y="146"/>
			<point x="580" y="130"/>
			<point x="538" y="130" type="curve" smooth="yes"/>
		</contour>
	</outline>
</glyph>
<glyph name="dzhe" format="2">
	<unicode hex="045F"/>
	<advance width="586"/>
	<outline>
		<contour>
			<point x="214" y="-172" type="line"/>
			<point x="362" y="-172" type="line"/>
			<point x="381" y="0" type="line"/>
			<point x="528" y="0" type="line"/>
			<point x="528" y="500" type="line"/>
			<point x="356" y="500" type="line"/>
			<point x="356" y="134" type="line"/>
			<point x="230" y="134" type="line"/>
			<point x="230" y="500" type="line"/>
			<point x="58" y="500" type="line"/>
			<point x="58" y="0" type="line"/>
			<point x="208" y="0" type="line"/>
		</contour>
	</outline>
</glyph>
<glyph name="Izhitsa" format="1">
	<unicode hex="0474"/>
	<advance width="592"/>
	<outline>
		<contour>
			<point x="182" y="0" type="line"/>
			<point x="398" y="0" type="line"/>
			<point x="510" y="442" type="line" smooth="yes"/>
			<point x="518" y="476"/>
			<point x="536" y="502"/>
			<point x="566" y="502" type="curve" smooth="yes"/>
			<point x="578" y="502"/>
			<point x="590" y="498"/>
			<point x="598" y="496" type="curve"/>
			<point x="628" y="650" type="line"/>
			<point x="606" y="658"/>
			<point x="588" y="662"/>
			<point x="548" y="662" type="curve" smooth="yes"/>
			<point x="442" y="662"/>
			<point x="390" y="606"/>
			<point x="358" y="474" type="curve" smooth="yes"/>
			<point x="332" y="366" type="line"/>
			<point x="316" y="296"/>
			<point x="306" y="230"/>
			<point x="292" y="160" type="curve"/>
			<point x="288" y="160" type="line"/>
			<point x="270" y="230"/>
			<point x="257" y="296"/>
			<point x="240" y="366" type="curve" smooth="yes"/>
			<point x="172" y="650" type="line"/>
			<point x="-10" y="650" type="line"/>
		</contour>
		<contour>
			<point name="aboveUC" x="310" y="672" type="move"/>
		</contour>
	</outline>
</glyph>
<glyph name="ghestroke" format="2">
	<unicode hex="0493"/>
	<advance width="486"/>
	<outline>
		<contour>
			<point x="18" y="170" type="line"/>
			<point x="392" y="170" type="line"/>
			<point x="392" y="282" type="line"/>
			<point x="104" y="282" type="line"/>
			<point x="18" y="276" type="line"/>
		</contour>
		<component base="ghe" xOffset="46"/>
	</outline>
</glyph>
<glyph name="endescender" format="2">
	<unicode hex="04A3"/>
	<advance width="622"/>
	<outline>
		<contour>
			<point x="450" y="-172" type="line"/>
			<point x="598" y="-172" type="line"/>
			<point x="614" y="20" type="line"/>
			<point x="614" y="134" type="line"/>
			<point x="422" y="134" type="line"/>
			<point x="422" y="0" type="line"/>
			<point x="450" y="0" type="line"/>
		</contour>
		<component base="en" xOffset="2"/>
	</outline>
</glyph>
<glyph name="ustraight" format="2">
	<unicode hex="04AF"/>
	<advance width="544"/>
	<outline>
		<contour>
			<point x="190" y="-176" type="line"/>
			<point x="362" y="-176" type="line"/>
			<point x="362" y="0" type="line"/>
			<point x="532" y="500" type="line"/>
			<point x="368" y="500" type="line"/>
			<point x="316" y="298" type="line"/>
			<point x="304" y="246"/>
			<point x="290" y="200"/>
			<point x="278" y="148" type="curve"/>
			<point x="274" y="148" type="line"/>
			<point x="262" y="200"/>
			<point x="248" y="246"/>
			<point x="236" y="298" type="curve"/>
			<point x="184" y="500" type="line"/>
			<point x="12" y="500" type="line"/>
			<point x="190" y="0" type="line"/>
		</contour>
	</outline>
	<anchor name="aboveLC" x="274" y="522"/>
</glyph>
<glyph name="chedescender" format="2">
	<unicode hex="04B7"/>
	<advance width="596"/>
	<outline>
		<contour>
			<point x="426" y="-172" type="line"/>
			<point x="572" y="-172" type="line"/>
			<point x="588" y="20" type="line"/>
			<point x="588" y="134" type="line"/>
			<point x="396" y="134" type="line"/>
			<point x="396" y="0" type="line"/>
			<point x="426" y="0" type="line"/>
		</contour>
		<component base="che"/>
	</outline>
</glyph>
<glyph name="Schwacyr" format="1">
	<unicode hex="04D8"/>
	<advance width="682"/>
	<outline>
		<component base="Schwa"/>
		<contour>
			<point name="aboveUC" x="360" y="672" type="move"/>
		</contour>
	</outline>
</glyph>
<glyph name="Obarcyr" format="1">
	<unicode hex="04E8"/>
	<advance width="692"/>
	<outline>
		<component base="Fita"/>
		<contour>
			<point name="aboveUC" x="346" y="672" type="move"/>
		</contour>
	</outline>
</glyph>
<glyph name="H.sups" format="2">
	<unicode hex="1D34"/>
	<advance width="459"/>
	<outline>
		<contour>
			<point x="47" y="368" type="line"/>
			<point x="167" y="368" type="line"/>
			<point x="167" y="538" type="line"/>
			<point x="293" y="538" type="line"/>
			<point x="293" y="368" type="line"/>
			<point x="413" y="368" type="line"/>
			<point x="413" y="800" type="line"/>
			<point x="293" y="800" type="line"/>
			<point x="293" y="641" type="line"/>
			<point x="167" y="641" type="line"/>
			<point x="167" y="800" type="line"/>
			<point x="47" y="800" type="line"/>
		</contour>
	</outline>
</glyph>
<glyph name="P.sups" format="2">
	<unicode hex="1D3E"/>
	<advance width="417"/>
	<outline>
		<contour>
			<point x="47" y="368" type="line"/>
			<point x="167" y="368" type="line"/>
			<point x="167" y="503" type="line"/>
			<point x="221" y="503" type="line" smooth="yes"/>
			<point x="311" y="503"/>
			<point x="396" y="550"/>
			<point x="396" y="657" type="curve" smooth="yes"/>
			<point x="396" y="765"/>
			<point x="314" y="800"/>
			<point x="221" y="800" type="curve" smooth="yes"/>
			<point x="47" y="800" type="line"/>
		</contour>
		<contour>
			<point x="167" y="596" type="line"/>
			<point x="167" y="706" type="line"/>
			<point x="213" y="706" type="line" smooth="yes"/>
			<point x="256" y="706"/>
			<point x="279" y="692"/>
			<point x="279" y="657" type="curve" smooth="yes"/>
			<point x="279" y="620"/>
			<point x="258" y="596"/>
			<point x="213" y="596" type="curve" smooth="yes"/>
		</contour>
	</outline>
</glyph>
<glyph name="nsmall.sups" format="2">
	<unicode hex="1DB0"/>
	<advance width="384"/>
	<outline>
		<contour>
			<point x="38" y="368" type="line"/>
			<point x="148" y="368" type="line"/>
			<point x="148" y="442" type="line" smooth="yes"/>
			<point x="148" y="474"/>
			<point x="144" y="516"/>
			<point x="136" y="558" type="curve"/>
			<point x="140" y="558" type="line"/>
			<point x="150" y="532"/>
			<point x="162" y="508"/>
			<point x="172" y="490" type="curve" smooth="yes"/>
			<point x="238" y="368" type="line"/>
			<point x="346" y="368" type="line"/>
			<point x="346" y="700" type="line"/>
			<point x="236" y="700" type="line"/>
			<point x="236" y="626" type="line" smooth="yes"/>
			<point x="236" y="594"/>
			<point x="240" y="552"/>
			<point x="248" y="510" type="curve"/>
			<point x="244" y="510" type="line"/>
			<point x="234" y="536"/>
			<point x="222" y="560"/>
			<point x="212" y="578" type="curve" smooth="yes"/>
			<point x="146" y="700" type="line"/>
			<point x="38" y="700" type="line"/>
		</contour>
	</outline>
</glyph>
<glyph name="lenisacute" format="1">
	<unicode hex="1FCE"/>
	<advance width="560"/>
	<outline>
		<component base="lenisacutecmb" xOffset="280"/>
		<contour>
			<point name="_aboveLC" x="280" y="522" type="move"/>
		</contour>
	</outline>
</glyph>
<glyph name="aspergrave" format="1">
	<unicode hex="1FDD"/>
	<advance width="560"/>
	<outline>
		<component base="aspergravecmb" xOffset="280"/>
		<contour>
			<point name="_aboveLC" x="280" y="522" type="move"/>
		</contour>
	</outline>
</glyph>
<glyph name="asperacute" format="1">
	<unicode hex="1FDE"/>
	<advance width="560"/>
	<outline>
		<component base="asperacutecmb" xOffset="280"/>
		<contour>
			<point name="_aboveLC" x="280" y="522" type="move"/>
		</contour>
	</outline>
</glyph>
<glyph name="figuredash" format="2">
	<unicode hex="2012"/>
	<advance width="540"/>
	<outline>
		<contour>
			<point x="44" y="200" type="line"/>
			<point x="496" y="200" type="line"/>
			<point x="496" y="308" type="line"/>
			<point x="44" y="308" type="line"/>
		</contour>
	</outline>
</glyph>
<glyph name="emdash" format="2">
	<unicode hex="2014"/>
	<advance width="800"/>
	<outline>
		<contour>
			<point x="44" y="200" type="line"/>
			<point x="756" y="200" type="line"/>
			<point x="756" y="308" type="line"/>
			<point x="44" y="308" type="line"/>
		</contour>
	</outline>
</glyph>
<glyph name="prime" format="2">
	<unicode hex="2032"/>
	<advance width="320"/>
	<outline>
		<contour>
			<point x="182" y="364" type="line"/>
			<point x="248" y="540" type="line"/>
			<point x="282" y="676" type="line"/>
			<point x="112" y="690" type="line"/>
			<point x="70" y="372" type="line"/>
		</contour>
	</outline>
</glyph>
<glyph name="interrobang" format="2">
	<unicode hex="203D"/>
	<advance width="498"/>
	<outline>
		<contour>
			<point x="172" y="244" type="line"/>
			<point x="286" y="244" type="line"/>
			<point x="286" y="322"/>
			<point x="458" y="346"/>
			<point x="458" y="512" type="curve" smooth="yes"/>
			<point x="458" y="620"/>
			<point x="358" y="682"/>
			<point x="230" y="682" type="curve" smooth="yes"/>
			<point x="152" y="682"/>
			<point x="70" y="654"/>
			<point x="12" y="578" type="curve"/>
			<point x="106" y="492" type="line"/>
			<point x="144" y="540"/>
			<point x="172" y="554"/>
			<point x="218" y="554" type="curve" smooth="yes"/>
			<point x="263" y="554"/>
			<point x="304" y="530"/>
			<point x="304" y="480" type="curve" smooth="yes"/>
			<point x="304" y="436"/>
			<point x="290" y="410"/>
			<point x="252" y="362" type="curve"/>
			<point x="266" y="356" type="line"/>
			<point x="274" y="432" type="line"/>
			<point x="274" y="500" type="line"/>
			<point x="138" y="500" type="line"/>
			<point x="152" y="382" type="line"/>
		</contour>
		<contour>
			<point x="226" y="-12" type="curve" smooth="yes"/>
			<point x="284" y="-12"/>
			<point x="326" y="34"/>
			<point x="326" y="92" type="curve" smooth="yes"/>
			<point x="326" y="150"/>
			<point x="284" y="196"/>
			<point x="226" y="196" type="curve" smooth="yes"/>
			<point x="168" y="196"/>
			<point x="126" y="150"/>
			<point x="126" y="92" type="curve" smooth="yes"/>
			<point x="126" y="34"/>
			<point x="168" y="-12"/>
		</contour>
	</outline>
</glyph>
<glyph name="undertie" format="1">
	<unicode hex="203F"/>
	<advance width="596"/>
	<outline>
		<contour>
			<point x="298" y="-230" type="curve" smooth="yes"/>
			<point x="420" y="-230"/>
			<point x="526" y="-178"/>
			<point x="596" y="-108" type="curve"/>
			<point x="542" y="-30" type="line"/>
			<point x="480" y="-82"/>
			<point x="384" y="-122"/>
			<point x="298" y="-122" type="curve" smooth="yes"/>
			<point x="212" y="-122"/>
			<point x="116" y="-82"/>
			<point x="54" y="-30" type="curve"/>
			<point x="0" y="-108" type="line"/>
			<point x="70" y="-178"/>
			<point x="176" y="-230"/>
		</contour>
	</outline>
</glyph>
<glyph name="franc" format="2">
	<unicode hex="20A3"/>
	<advance width="540"/>
	<outline>
		<contour>
			<point x="118" y="0" type="line"/>
			<point x="280" y="0" type="line"/>
			<point x="280" y="254" type="line"/>
			<point x="468" y="254" type="line"/>
			<point x="468" y="398" type="line"/>
			<point x="280" y="398" type="line"/>
			<point x="280" y="490" type="line"/>
			<point x="507" y="490" type="line"/>
			<point x="507" y="634" type="line"/>
			<point x="118" y="634" type="line"/>
		</contour>
		<contour>
			<point x="44" y="86" type="line"/>
			<point x="416" y="86" type="line"/>
			<point x="416" y="190" type="line"/>
			<point x="120" y="190" type="line"/>
			<point x="44" y="184" type="line"/>
		</contour>
	</outline>
</glyph>
<glyph name="naira" format="2">
	<unicode hex="20A6"/>
	<advance width="540"/>
	<outline>
		<contour>
			<point x="68" y="0" type="line"/>
			<point x="190" y="0" type="line"/>
			<point x="190" y="234" type="line"/>
			<point x="158" y="511" type="line"/>
			<point x="162" y="511" type="line"/>
			<point x="244" y="216" type="line"/>
			<point x="316" y="0" type="line"/>
			<point x="472" y="0" type="line"/>
			<point x="472" y="634" type="line"/>
			<point x="350" y="634" type="line"/>
			<point x="350" y="400" type="line"/>
			<point x="382" y="123" type="line"/>
			<point x="378" y="123" type="line"/>
			<point x="296" y="418" type="line"/>
			<point x="224" y="634" type="line"/>
			<point x="68" y="634" type="line"/>
		</contour>
		<contour>
			<point x="0" y="340" type="line"/>
			<point x="540" y="340" type="line"/>
			<point x="540" y="424" type="line"/>
			<point x="68" y="424" type="line"/>
			<point x="0" y="418" type="line"/>
		</contour>
		<contour>
			<point x="0" y="212" type="line"/>
			<point x="540" y="212" type="line"/>
			<point x="540" y="296" type="line"/>
			<point x="68" y="296" type="line"/>
			<point x="0" y="290" type="line"/>
		</contour>
	</outline>
</glyph>
<glyph name="Euro" format="2">
	<unicode hex="20AC"/>
	<advance width="540"/>
	<outline>
		<contour>
			<point x="346" y="-12" type="curve" smooth="yes"/>
			<point x="426" y="-12"/>
			<point x="492" y="34"/>
			<point x="524" y="102" type="curve"/>
			<point x="434" y="166" type="line"/>
			<point x="414" y="136"/>
			<point x="389" y="120"/>
			<point x="354" y="120" type="curve" smooth="yes"/>
			<point x="284" y="120"/>
			<point x="244" y="190"/>
			<point x="244" y="318" type="curve" smooth="yes"/>
			<point x="244" y="442"/>
			<point x="280" y="514"/>
			<point x="348" y="514" type="curve" smooth="yes"/>
			<point x="380" y="514"/>
			<point x="404" y="502"/>
			<point x="428" y="476" type="curve"/>
			<point x="516" y="556" type="line"/>
			<point x="480" y="608"/>
			<point x="420" y="646"/>
			<point x="338" y="646" type="curve" smooth="yes"/>
			<point x="194" y="646"/>
			<point x="72" y="524"/>
			<point x="72" y="312" type="curve" smooth="yes"/>
			<point x="72" y="97"/>
			<point x="190" y="-12"/>
		</contour>
		<contour>
			<point x="20" y="212" type="line"/>
			<point x="412" y="212" type="line"/>
			<point x="412" y="296" type="line"/>
			<point x="96" y="296" type="line"/>
			<point x="20" y="290" type="line"/>
		</contour>
		<contour>
			<point x="20" y="340" type="line"/>
			<point x="452" y="340" type="line"/>
			<point x="452" y="424" type="line"/>
			<point x="96" y="424" type="line"/>
			<point x="20" y="418" type="line"/>
		</contour>
	</outline>
</glyph>
<glyph name="tugrik" format="2">
	<unicode hex="20AE"/>
	<advance width="540"/>
	<outline>
		<contour>
			<point x="184" y="0" type="line"/>
			<point x="356" y="0" type="line"/>
			<point x="356" y="510" type="line"/>
			<point x="508" y="510" type="line"/>
			<point x="508" y="634" type="line"/>
			<point x="32" y="634" type="line"/>
			<point x="32" y="510" type="line"/>
			<point x="184" y="510" type="line"/>
		</contour>
		<contour>
			<point x="100" y="60" type="line"/>
			<point x="188" y="108" type="line"/>
			<point x="352" y="186" type="line"/>
			<point x="478" y="254" type="line"/>
			<point x="442" y="326" type="line"/>
			<point x="352" y="276" type="line"/>
			<point x="188" y="198" type="line"/>
			<point x="64" y="132" type="line"/>
		</contour>
		<contour>
			<point x="100" y="200" type="line"/>
			<point x="188" y="248" type="line"/>
			<point x="352" y="326" type="line"/>
			<point x="478" y="394" type="line"/>
			<point x="442" y="466" type="line"/>
			<point x="352" y="416" type="line"/>
			<point x="188" y="338" type="line"/>
			<point x="64" y="272" type="line"/>
		</contour>
	</outline>
</glyph>
<glyph name="litre" format="2">
	<unicode hex="2113"/>
	<advance width="494"/>
	<outline>
		<contour>
			<point x="320" y="-12" type="curve" smooth="yes"/>
			<point x="395" y="-12"/>
			<point x="455" y="28"/>
			<point x="504" y="70" type="curve"/>
			<point x="442" y="174" type="line"/>
			<point x="418" y="154"/>
			<point x="386" y="130"/>
			<point x="348" y="130" type="curve" smooth="yes"/>
			<point x="308" y="130"/>
			<point x="276" y="153"/>
			<point x="276" y="209" type="curve" smooth="yes"/>
			<point x="276" y="477" type="line" smooth="yes"/>
			<point x="276" y="558"/>
			<point x="296" y="584"/>
			<point x="318" y="584" type="curve" smooth="yes"/>
			<point x="336" y="584"/>
			<point x="348" y="566"/>
			<point x="348" y="534" type="curve" smooth="yes"/>
			<point x="348" y="402"/>
			<point x="241" y="340"/>
			<point x="6" y="204" type="curve"/>
			<point x="69" y="100" type="line"/>
			<point x="380" y="281"/>
			<point x="486" y="368"/>
			<point x="486" y="534" type="curve" smooth="yes"/>
			<point x="486" y="642"/>
			<point x="417" y="708"/>
			<point x="312" y="708" type="curve" smooth="yes"/>
			<point x="194" y="708"/>
			<point x="108" y="628"/>
			<point x="108" y="455" type="curve" smooth="yes"/>
			<point x="108" y="193" type="line" smooth="yes"/>
			<point x="108" y="57"/>
			<point x="207" y="-12"/>
		</contour>
	</outline>
</glyph>
<glyph name="numero" format="2">
	<unicode hex="2116"/>
	<advance width="996"/>
	<outline>
		<contour>
			<point x="100" y="-12" type="curve" smooth="yes"/>
			<point x="194" y="-12"/>
			<point x="234" y="39"/>
			<point x="234" y="132" type="curve" smooth="yes"/>
			<point x="234" y="204" type="line" smooth="yes"/>
			<point x="234" y="258"/>
			<point x="226" y="330"/>
			<point x="210" y="451" type="curve"/>
			<point x="214" y="451" type="line"/>
			<point x="226" y="414"/>
			<point x="238" y="376"/>
			<point x="250" y="344" type="curve" smooth="yes"/>
			<point x="378" y="0" type="line"/>
			<point x="566" y="0" type="line"/>
			<point x="566" y="464" type="line" smooth="yes"/>
			<point x="566" y="500"/>
			<point x="576" y="508"/>
			<point x="608" y="508" type="curve"/>
			<point x="596" y="640" type="line"/>
			<point x="580" y="644"/>
			<point x="573" y="646"/>
			<point x="548" y="646" type="curve" smooth="yes"/>
			<point x="454" y="646"/>
			<point x="414" y="595"/>
			<point x="414" y="502" type="curve" smooth="yes"/>
			<point x="414" y="430" type="line" smooth="yes"/>
			<point x="414" y="376"/>
			<point x="422" y="304"/>
			<point x="438" y="183" type="curve"/>
			<point x="434" y="183" type="line"/>
			<point x="422" y="220"/>
			<point x="410" y="258"/>
			<point x="398" y="290" type="curve" smooth="yes"/>
			<point x="270" y="634" type="line"/>
			<point x="82" y="634" type="line"/>
			<point x="82" y="170" type="line" smooth="yes"/>
			<point x="82" y="134"/>
			<point x="72" y="126"/>
			<point x="40" y="126" type="curve"/>
			<point x="52" y="-6" type="line"/>
			<point x="68" y="-10"/>
			<point x="75" y="-12"/>
		</contour>
		<contour>
			<point x="808" y="266" type="curve" smooth="yes"/>
			<point x="898" y="266"/>
			<point x="978" y="326"/>
			<point x="978" y="435" type="curve" smooth="yes"/>
			<point x="978" y="544"/>
			<point x="898" y="606"/>
			<point x="808" y="606" type="curve" smooth="yes"/>
			<point x="718" y="606"/>
			<point x="638" y="544"/>
			<point x="638" y="435" type="curve" smooth="yes"/>
			<point x="638" y="326"/>
			<point x="718" y="266"/>
		</contour>
		<contour>
			<point x="808" y="370" type="curve" smooth="yes"/>
			<point x="784" y="370"/>
			<point x="770" y="386"/>
			<point x="770" y="435" type="curve" smooth="yes"/>
			<point x="770" y="484"/>
			<point x="784" y="502"/>
			<point x="808" y="502" type="curve" smooth="yes"/>
			<point x="832" y="502"/>
			<point x="846" y="484"/>
			<point x="846" y="435" type="curve" smooth="yes"/>
			<point x="846" y="386"/>
			<point x="832" y="370"/>
		</contour>
		<contour>
			<point x="674" y="120" type="line"/>
			<point x="942" y="120" type="line"/>
			<point x="942" y="208" type="line"/>
			<point x="674" y="208" type="line"/>
		</contour>
	</outline>
</glyph>
<glyph name="Omega" format="2">
	<unicode hex="2126"/>
	<unicode hex="03A9"/>
	<advance width="724"/>
	<outline>
		<contour>
			<point x="44" y="0" type="line"/>
			<point x="324" y="0" type="line"/>
			<point x="324" y="124" type="line"/>
			<point x="260" y="188"/>
			<point x="236" y="254"/>
			<point x="236" y="342" type="curve" smooth="yes"/>
			<point x="236" y="444"/>
			<point x="284" y="514"/>
			<point x="362" y="514" type="curve" smooth="yes"/>
			<point x="440" y="514"/>
			<point x="488" y="444"/>
			<point x="488" y="342" type="curve" smooth="yes"/>
			<point x="488" y="254"/>
			<point x="464" y="188"/>
			<point x="400" y="124" type="curve"/>
			<point x="400" y="0" type="line"/>
			<point x="680" y="0" type="line"/>
			<point x="680" y="138" type="line"/>
			<point x="578" y="138" type="line"/>
			<point x="578" y="142" type="line"/>
			<point x="616" y="182"/>
			<point x="664" y="262"/>
			<point x="664" y="360" type="curve" smooth="yes"/>
			<point x="664" y="540"/>
			<point x="542" y="662"/>
			<point x="362" y="662" type="curve" smooth="yes"/>
			<point x="182" y="662"/>
			<point x="60" y="540"/>
			<point x="60" y="360" type="curve" smooth="yes"/>
			<point x="60" y="262"/>
			<point x="108" y="182"/>
			<point x="146" y="142" type="curve"/>
			<point x="146" y="138" type="line"/>
			<point x="44" y="138" type="line"/>
		</contour>
	</outline>
	<anchor name="belowLC" x="360" y="-22"/>
</glyph>
<glyph name="arrowdown" format="2">
	<unicode hex="2193"/>
	<advance width="616"/>
	<outline>
		<contour>
			<point x="306" y="-26" type="line"/>
			<point x="310" y="-26" type="line"/>
			<point x="578" y="254" type="line"/>
			<point x="486" y="334" type="line"/>
			<point x="376" y="204" type="line"/>
			<point x="376" y="530" type="line"/>
			<point x="240" y="530" type="line"/>
			<point x="240" y="204" type="line"/>
			<point x="130" y="334" type="line"/>
			<point x="38" y="254" type="line"/>
		</contour>
	</outline>
</glyph>
<glyph name="arrowupdn" format="2">
	<unicode hex="2195"/>
	<advance width="616"/>
	<outline>
		<contour>
			<point x="310" y="-56" type="line"/>
			<point x="538" y="124" type="line"/>
			<point x="470" y="214" type="line"/>
			<point x="376" y="136" type="line"/>
			<point x="376" y="368" type="line"/>
			<point x="470" y="290" type="line"/>
			<point x="538" y="380" type="line"/>
			<point x="310" y="560" type="line"/>
			<point x="306" y="560" type="line"/>
			<point x="78" y="380" type="line"/>
			<point x="146" y="290" type="line"/>
			<point x="240" y="368" type="line"/>
			<point x="240" y="136" type="line"/>
			<point x="146" y="214" type="line"/>
			<point x="78" y="124" type="line"/>
			<point x="306" y="-56" type="line"/>
		</contour>
	</outline>
</glyph>
<glyph name="arrowupleft" format="2">
	<unicode hex="2196"/>
	<advance width="616"/>
	<outline>
		<contour>
			<point x="446" y="7" type="line"/>
			<point x="543" y="104" type="line"/>
			<point x="312" y="334" type="line"/>
			<point x="482" y="320" type="line"/>
			<point x="490" y="442" type="line"/>
			<point x="103" y="450" type="line"/>
			<point x="100" y="447" type="line"/>
			<point x="108" y="60" type="line"/>
			<point x="230" y="68" type="line"/>
			<point x="216" y="238" type="line"/>
		</contour>
	</outline>
</glyph>
<glyph name="arrowupright" format="2">
	<unicode hex="2197"/>
	<advance width="616"/>
	<outline>
		<contour>
			<point x="160" y="7" type="line"/>
			<point x="390" y="238" type="line"/>
			<point x="376" y="68" type="line"/>
			<point x="498" y="60" type="line"/>
			<point x="506" y="447" type="line"/>
			<point x="503" y="450" type="line"/>
			<point x="116" y="442" type="line"/>
			<point x="124" y="320" type="line"/>
			<point x="294" y="334" type="line"/>
			<point x="63" y="104" type="line"/>
		</contour>
	</outline>
</glyph>
<glyph name="arrowdownright" format="2">
	<unicode hex="2198"/>
	<advance width="616"/>
	<outline>
		<contour>
			<point x="513" y="54" type="line"/>
			<point x="516" y="57" type="line"/>
			<point x="508" y="444" type="line"/>
			<point x="386" y="436" type="line"/>
			<point x="400" y="266" type="line"/>
			<point x="170" y="497" type="line"/>
			<point x="73" y="400" type="line"/>
			<point x="304" y="170" type="line"/>
			<point x="134" y="184" type="line"/>
			<point x="126" y="62" type="line"/>
		</contour>
	</outline>
</glyph>
<glyph name="arrowdownleft" format="2">
	<unicode hex="2199"/>
	<advance width="616"/>
	<outline>
		<contour>
			<point x="113" y="54" type="line"/>
			<point x="500" y="62" type="line"/>
			<point x="492" y="184" type="line"/>
			<point x="322" y="170" type="line"/>
			<point x="553" y="400" type="line"/>
			<point x="456" y="497" type="line"/>
			<point x="226" y="266" type="line"/>
			<point x="240" y="436" type="line"/>
			<point x="118" y="444" type="line"/>
			<point x="110" y="57" type="line"/>
		</contour>
	</outline>
</glyph>
<glyph name="arrowupdnbse" format="2">
	<unicode hex="21A8"/>
	<advance width="616"/>
	<outline>
		<contour>
			<point x="68" y="-186" type="line"/>
			<point x="548" y="-186" type="line"/>
			<point x="548" y="-60" type="line"/>
			<point x="68" y="-60" type="line"/>
		</contour>
		<component base="arrowupdn" xOffset="8"/>
	</outline>
</glyph>
<glyph name="arrowdblleft" format="2">
	<unicode hex="21D0"/>
	<advance width="616"/>
	<outline>
		<contour>
			<point x="300" y="-18" type="line"/>
			<point x="380" y="74" type="line"/>
			<point x="172" y="250" type="line"/>
			<point x="172" y="254" type="line"/>
			<point x="380" y="430" type="line"/>
			<point x="300" y="522" type="line"/>
			<point x="20" y="254" type="line"/>
			<point x="20" y="250" type="line"/>
		</contour>
		<contour>
			<point x="170" y="278" type="line"/>
			<point x="576" y="278" type="line"/>
			<point x="576" y="376" type="line"/>
			<point x="170" y="376" type="line"/>
		</contour>
		<contour>
			<point x="170" y="128" type="line"/>
			<point x="576" y="128" type="line"/>
			<point x="576" y="226" type="line"/>
			<point x="170" y="226" type="line"/>
		</contour>
	</outline>
</glyph>
<glyph name="universal" format="2">
	<unicode hex="2200"/>
	<advance width="584"/>
	<outline>
		<contour>
			<point x="188" y="0" type="line"/>
			<point x="396" y="0" type="line"/>
			<point x="594" y="650" type="line"/>
			<point x="418" y="650" type="line"/>
			<point x="344" y="334" type="line" smooth="yes"/>
			<point x="328" y="272"/>
			<point x="312" y="194"/>
			<point x="298" y="128" type="curve"/>
			<point x="294" y="128" type="line"/>
			<point x="278" y="193"/>
			<point x="262" y="272"/>
			<point x="246" y="334" type="curve" smooth="yes"/>
			<point x="172" y="650" type="line"/>
			<point x="-10" y="650" type="line"/>
		</contour>
		<contour>
			<point x="134" y="379" type="line"/>
			<point x="452" y="379" type="line"/>
			<point x="452" y="512" type="line"/>
			<point x="134" y="512" type="line"/>
		</contour>
	</outline>
</glyph>
<glyph name="infinity" format="2">
	<unicode hex="221E"/>
	<advance width="826"/>
	<outline>
		<contour>
			<point x="583" y="100" type="curve" smooth="yes"/>
			<point x="695" y="100"/>
			<point x="790" y="185"/>
			<point x="790" y="342" type="curve" smooth="yes"/>
			<point x="790" y="462"/>
			<point x="702" y="550"/>
			<point x="593" y="550" type="curve" smooth="yes"/>
			<point x="515" y="550"/>
			<point x="455" y="514"/>
			<point x="402" y="446" type="curve"/>
			<point x="398" y="446" type="line"/>
			<point x="362" y="496"/>
			<point x="311" y="534"/>
			<point x="236" y="534" type="curve" smooth="yes"/>
			<point x="116" y="534"/>
			<point x="36" y="454"/>
			<point x="36" y="314" type="curve" smooth="yes"/>
			<point x="36" y="217"/>
			<point x="112" y="128"/>
			<point x="213" y="128" type="curve" smooth="yes"/>
			<point x="284" y="128"/>
			<point x="338" y="168"/>
			<point x="374" y="216" type="curve"/>
			<point x="378" y="216" type="line"/>
			<point x="441" y="132"/>
			<point x="500" y="100"/>
		</contour>
		<contour>
			<point x="228" y="252" type="curve" smooth="yes"/>
			<point x="183" y="252"/>
			<point x="160" y="286"/>
			<point x="160" y="318" type="curve" smooth="yes"/>
			<point x="160" y="350"/>
			<point x="178" y="376"/>
			<point x="222" y="376" type="curve" smooth="yes"/>
			<point x="258" y="376"/>
			<point x="294" y="347"/>
			<point x="318" y="308" type="curve"/>
			<point x="294" y="273"/>
			<point x="264" y="252"/>
		</contour>
		<contour>
			<point x="582" y="258" type="curve" smooth="yes"/>
			<point x="528" y="258"/>
			<point x="493" y="305"/>
			<point x="458" y="354" type="curve"/>
			<point x="494" y="404"/>
			<point x="536" y="426"/>
			<point x="576" y="426" type="curve" smooth="yes"/>
			<point x="630" y="426"/>
			<point x="666" y="394"/>
			<point x="666" y="338" type="curve" smooth="yes"/>
			<point x="666" y="296"/>
			<point x="634" y="258"/>
		</contour>
	</outline>
</glyph>
<glyph name="orthogonal" format="2">
	<unicode hex="221F"/>
	<advance width="540"/>
	<outline>
		<contour>
			<point x="34" y="90" type="line"/>
			<point x="506" y="90" type="line"/>
			<point x="506" y="210" type="line"/>
			<point x="158" y="210" type="line"/>
			<point x="158" y="570" type="line"/>
			<point x="34" y="570" type="line"/>
		</contour>
	</outline>
</glyph>
<glyph name="lessequal" format="2">
	<unicode hex="2264"/>
	<advance width="540"/>
	<outline>
		<contour>
			<point x="506" y="154" type="line"/>
			<point x="506" y="294" type="line"/>
			<point x="348" y="330" type="line"/>
			<point x="208" y="360" type="line"/>
			<point x="208" y="364" type="line"/>
			<point x="348" y="394" type="line"/>
			<point x="506" y="430" type="line"/>
			<point x="506" y="570" type="line"/>
			<point x="34" y="432" type="line"/>
			<point x="34" y="292" type="line"/>
		</contour>
		<contour>
			<point x="34" y="0" type="line"/>
			<point x="506" y="0" type="line"/>
			<point x="506" y="120" type="line"/>
			<point x="34" y="120" type="line"/>
		</contour>
	</outline>
</glyph>
<glyph name="integralbt" format="2">
	<unicode hex="2321"/>
	<advance width="412"/>
	<outline>
		<contour>
			<point x="81" y="-158" type="curve" smooth="yes"/>
			<point x="254" y="-158"/>
			<point x="288" y="-49"/>
			<point x="288" y="96" type="curve"/>
			<point x="288" y="1000" type="line"/>
			<point x="134" y="1000" type="line"/>
			<point x="134" y="92" type="line"/>
			<point x="134" y="0"/>
			<point x="122" y="-30"/>
			<point x="72" y="-30" type="curve" smooth="yes"/>
			<point x="58" y="-30"/>
			<point x="46" y="-29"/>
			<point x="36" y="-26" type="curve"/>
			<point x="20" y="-150" type="line"/>
			<point x="32" y="-153"/>
			<point x="56" y="-158"/>
		</contour>
	</outline>
</glyph>
<glyph name="deleteright" format="2">
	<unicode hex="2326"/>
	<advance width="1000"/>
	<outline>
		<contour>
			<point x="58" y="-12" type="line"/>
			<point x="720" y="-12" type="line"/>
			<point x="980" y="324" type="line"/>
			<point x="980" y="328" type="line"/>
			<point x="720" y="662" type="line"/>
			<point x="58" y="662" type="line"/>
		</contour>
		<contour>
			<point x="208" y="114" type="line"/>
			<point x="208" y="536" type="line"/>
			<point x="630" y="536" type="line"/>
			<point x="795" y="326" type="line"/>
			<point x="630" y="114" type="line"/>
		</contour>
		<contour>
			<point x="326" y="134" type="line"/>
			<point x="432" y="242" type="line"/>
			<point x="538" y="134" type="line"/>
			<point x="624" y="218" type="line"/>
			<point x="516" y="326" type="line"/>
			<point x="624" y="434" type="line"/>
			<point x="538" y="518" type="line"/>
			<point x="432" y="410" type="line"/>
			<point x="326" y="518" type="line"/>
			<point x="240" y="434" type="line"/>
			<point x="348" y="326" type="line"/>
			<point x="240" y="218" type="line"/>
		</contour>
	</outline>
</glyph>
<glyph name="bulletsquare" format="2">
	<unicode hex="25AA"/>
	<advance width="360"/>
	<outline>
		<contour>
			<point x="32" y="118" type="line"/>
			<point x="328" y="118" type="line"/>
			<point x="328" y="406" type="line"/>
			<point x="32" y="406" type="line"/>
		</contour>
	</outline>
</glyph>
<glyph name="trianglesmallupwhite" format="2">
	<unicode hex="25B5"/>
	<advance width="360"/>
	<outline>
		<contour>
			<point x="-30" y="98" type="line"/>
			<point x="390" y="98" type="line"/>
			<point x="390" y="102" type="line"/>
			<point x="182" y="478" type="line"/>
			<point x="178" y="478" type="line"/>
			<point x="-30" y="102" type="line"/>
		</contour>
		<contour>
			<point x="108" y="178" type="line"/>
			<point x="180" y="324" type="line"/>
			<point x="252" y="178" type="line"/>
		</contour>
	</outline>
</glyph>
<glyph name="trianglesmallrightblack" format="2">
	<unicode hex="25B8"/>
	<advance width="360"/>
	<outline>
		<contour>
			<point x="30" y="88" type="line"/>
			<point x="34" y="88" type="line"/>
			<point x="350" y="260" type="line"/>
			<point x="350" y="264" type="line"/>
			<point x="34" y="436" type="line"/>
			<point x="30" y="436" type="line"/>
		</contour>
	</outline>
</glyph>
<glyph name="trianglesmalldownblack" format="2">
	<unicode hex="25BE"/>
	<advance width="360"/>
	<outline>
		<contour>
			<point x="178" y="86" type="line"/>
			<point x="182" y="86" type="line"/>
			<point x="354" y="402" type="line"/>
			<point x="354" y="406" type="line"/>
			<point x="6" y="406" type="line"/>
			<point x="6" y="402" type="line"/>
		</contour>
	</outline>
</glyph>
<glyph name="trianglesmalldownwhite" format="2">
	<unicode hex="25BF"/>
	<advance width="360"/>
	<outline>
		<contour>
			<point x="178" y="46" type="line"/>
			<point x="182" y="46" type="line"/>
			<point x="390" y="422" type="line"/>
			<point x="390" y="426" type="line"/>
			<point x="-30" y="426" type="line"/>
			<point x="-30" y="422" type="line"/>
		</contour>
		<contour>
			<point x="180" y="200" type="line"/>
			<point x="108" y="346" type="line"/>
			<point x="252" y="346" type="line"/>
		</contour>
	</outline>
</glyph>
<glyph name="trianglesmallleftwhite" format="2">
	<unicode hex="25C3"/>
	<advance width="360"/>
	<outline>
		<contour>
			<point x="356" y="52" type="line"/>
			<point x="360" y="52" type="line"/>
			<point x="360" y="472" type="line"/>
			<point x="356" y="472" type="line"/>
			<point x="-20" y="264" type="line"/>
			<point x="-20" y="260" type="line"/>
		</contour>
		<contour>
			<point x="280" y="190" type="line"/>
			<point x="134" y="262" type="line"/>
			<point x="280" y="334" type="line"/>
		</contour>
	</outline>
</glyph>
<glyph name="invbullet" format="2">
	<unicode hex="25D8"/>
	<advance width="360"/>
	<outline>
		<contour>
			<point x="28" y="114" type="line"/>
			<point x="332" y="114" type="line"/>
			<point x="332" y="410" type="line"/>
			<point x="28" y="410" type="line"/>
		</contour>
		<contour>
			<point x="180" y="126" type="curve" smooth="yes"/>
			<point x="100" y="126"/>
			<point x="40" y="184"/>
			<point x="40" y="262" type="curve" smooth="yes"/>
			<point x="40" y="340"/>
			<point x="100" y="398"/>
			<point x="180" y="398" type="curve" smooth="yes"/>
			<point x="260" y="398"/>
			<point x="320" y="340"/>
			<point x="320" y="262" type="curve" smooth="yes"/>
			<point x="320" y="184"/>
			<point x="260" y="126"/>
		</contour>
	</outline>
</glyph>
<glyph name="bulletwhite" format="2">
	<unicode hex="25E6"/>
	<advance width="360"/>
	<outline>
		<contour>
			<point x="180" y="86" type="curve" smooth="yes"/>
			<point x="284" y="86"/>
			<point x="360" y="163"/>
			<point x="360" y="262" type="curve" smooth="yes"/>
			<point x="360" y="361"/>
			<point x="284" y="438"/>
			<point x="180" y="438" type="curve" smooth="yes"/>
			<point x="76" y="438"/>
			<point x="0" y="361"/>
			<point x="0" y="262" type="curve" smooth="yes"/>
			<point x="0" y="163"/>
			<point x="76" y="86"/>
		</contour>
		<contour>
			<point x="180" y="170" type="curve" smooth="yes"/>
			<point x="130" y="170"/>
			<point x="94" y="209"/>
			<point x="94" y="262" type="curve" smooth="yes"/>
			<point x="94" y="315"/>
			<point x="130" y="354"/>
			<point x="180" y="354" type="curve" smooth="yes"/>
			<point x="230" y="354"/>
			<point x="266" y="315"/>
			<point x="266" y="262" type="curve" smooth="yes"/>
			<point x="266" y="209"/>
			<point x="230" y="170"/>
		</contour>
	</outline>
</glyph>
<glyph name="checkbox" format="2">
	<unicode hex="2610"/>
	<advance width="810"/>
	<outline>
		<contour>
			<point x="74" y="-10" type="line"/>
			<point x="666" y="-10" type="line"/>
			<point x="736" y="70" type="line"/>
			<point x="736" y="676" type="line"/>
			<point x="154" y="676" type="line"/>
			<point x="74" y="606" type="line"/>
		</contour>
		<contour>
			<point x="138" y="54" type="line"/>
			<point x="138" y="582" type="line"/>
			<point x="642" y="582" type="line"/>
			<point x="642" y="54" type="line"/>
		</contour>
	</outline>
</glyph>
<glyph name="earth" format="2">
	<unicode hex="2641"/>
	<advance width="600"/>
	<outline>
		<contour>
			<point x="300" y="30" type="curve" smooth="yes"/>
			<point x="480" y="30"/>
			<point x="604" y="154"/>
			<point x="604" y="330" type="curve" smooth="yes"/>
			<point x="604" y="506"/>
			<point x="480" y="630"/>
			<point x="300" y="630" type="curve" smooth="yes"/>
			<point x="120" y="630"/>
			<point x="-4" y="506"/>
			<point x="-4" y="330" type="curve" smooth="yes"/>
			<point x="-4" y="154"/>
			<point x="120" y="30"/>
		</contour>
		<contour>
			<point x="300" y="126" type="curve" smooth="yes"/>
			<point x="182" y="126"/>
			<point x="102" y="208"/>
			<point x="102" y="330" type="curve" smooth="yes"/>
			<point x="102" y="452"/>
			<point x="182" y="534"/>
			<point x="300" y="534" type="curve" smooth="yes"/>
			<point x="418" y="534"/>
			<point x="498" y="452"/>
			<point x="498" y="330" type="curve" smooth="yes"/>
			<point x="498" y="208"/>
			<point x="418" y="126"/>
		</contour>
		<contour>
			<point x="248" y="96" type="line"/>
			<point x="352" y="96" type="line"/>
			<point x="352" y="280" type="line"/>
			<point x="530" y="280" type="line"/>
			<point x="530" y="380" type="line"/>
			<point x="352" y="380" type="line"/>
			<point x="352" y="564" type="line"/>
			<point x="248" y="564" type="line"/>
			<point x="248" y="380" type="line"/>
			<point x="70" y="380" type="line"/>
			<point x="70" y="280" type="line"/>
			<point x="248" y="280" type="line"/>
		</contour>
	</outline>
</glyph>
<glyph name="eighthnote" format="2">
	<unicode hex="266A"/>
	<advance width="560"/>
	<outline>
		<contour>
			<point x="140" y="-30" type="curve" smooth="yes"/>
			<point x="270" y="-30"/>
			<point x="348" y="44"/>
			<point x="348" y="182" type="curve" smooth="yes"/>
			<point x="348" y="525" type="line"/>
			<point x="414" y="503"/>
			<point x="452" y="444"/>
			<point x="452" y="386" type="curve" smooth="yes"/>
			<point x="452" y="350"/>
			<point x="448" y="324"/>
			<point x="438" y="294" type="curve"/>
			<point x="492" y="272" type="line"/>
			<point x="520" y="308"/>
			<point x="548" y="368"/>
			<point x="548" y="426" type="curve" smooth="yes"/>
			<point x="548" y="508"/>
			<point x="514" y="566"/>
			<point x="418" y="630" type="curve" smooth="yes"/>
			<point x="368" y="664"/>
			<point x="358" y="672"/>
			<point x="346" y="694" type="curve"/>
			<point x="256" y="694" type="line"/>
			<point x="256" y="186" type="line"/>
			<point x="248" y="192"/>
			<point x="224" y="198"/>
			<point x="198" y="198" type="curve" smooth="yes"/>
			<point x="103" y="198"/>
			<point x="24" y="136"/>
			<point x="24" y="60" type="curve" smooth="yes"/>
			<point x="24" y="-4"/>
			<point x="84" y="-30"/>
		</contour>
	</outline>
</glyph>
<glyph name="check" format="2">
	<unicode hex="2713"/>
	<advance width="660"/>
	<outline>
		<contour>
			<point x="170" y="-20" type="curve"/>
			<point x="328" y="-2" type="line"/>
			<point x="410" y="294"/>
			<point x="534" y="482"/>
			<point x="660" y="600" type="curve"/>
			<point x="556" y="690" type="line"/>
			<point x="428" y="558"/>
			<point x="316" y="346"/>
			<point x="244" y="106" type="curve"/>
			<point x="240" y="106" type="line"/>
			<point x="207" y="187"/>
			<point x="170" y="269"/>
			<point x="118" y="350" type="curve"/>
			<point x="10" y="280" type="line"/>
			<point x="83" y="178"/>
			<point x="127" y="94"/>
		</contour>
	</outline>
</glyph>
<glyph name="xballot" format="2">
	<unicode hex="2717"/>
	<advance width="600"/>
	<outline>
		<contour>
			<point x="178" y="-44" type="line"/>
			<point x="264" y="200"/>
			<point x="417" y="442"/>
			<point x="594" y="596" type="curve"/>
			<point x="496" y="690" type="line"/>
			<point x="320" y="530"/>
			<point x="140" y="280"/>
			<point x="56" y="32" type="curve"/>
		</contour>
		<contour>
			<point x="422" y="-20" type="curve"/>
			<point x="560" y="28" type="line"/>
			<point x="504" y="282"/>
			<point x="388" y="512"/>
			<point x="260" y="682" type="curve"/>
			<point x="134" y="612" type="line"/>
			<point x="262" y="435"/>
			<point x="362" y="225"/>
		</contour>
	</outline>
</glyph>
<glyph name="Lbardbl" format="2">
	<unicode hex="2C60"/>
	<advance width="560"/>
	<outline>
		<contour>
			<point x="24" y="256" type="line"/>
			<point x="448" y="256" type="line"/>
			<point x="448" y="340" type="line"/>
			<point x="104" y="340" type="line"/>
			<point x="24" y="334" type="line"/>
		</contour>
		<contour>
			<point x="24" y="384" type="line"/>
			<point x="448" y="384" type="line"/>
			<point x="448" y="468" type="line"/>
			<point x="104" y="468" type="line"/>
			<point x="24" y="462" type="line"/>
		</contour>
		<component base="L" xOffset="30"/>
	</outline>
	<anchor name="aboveUC" x="190" y="672"/>
	<anchor name="belowLC" x="320" y="-22"/>
</glyph>
<glyph name="astroke" format="2">
	<unicode hex="2C65"/>
	<advance width="536"/>
	<outline>
		<contour>
			<point x="240" y="-46" type="line"/>
			<point x="364" y="548" type="line"/>
			<point x="318" y="558" type="line"/>
			<point x="194" y="-36" type="line"/>
		</contour>
		<component base="a"/>
	</outline>
	<anchor name="aboveLC" x="280" y="522"/>
	<anchor name="belowLC" x="260" y="-22"/>
</glyph>
<glyph name="brackhalftopright" format="2">
	<unicode hex="2E23"/>
	<advance width="360"/>
	<outline>
		<contour>
			<point x="148" y="278" type="line"/>
			<point x="276" y="278" type="line"/>
			<point x="276" y="708" type="line"/>
			<point x="52" y="708" type="line"/>
			<point x="52" y="618" type="line"/>
			<point x="148" y="618" type="line"/>
		</contour>
	</outline>
</glyph>
<glyph name="alefEgypt" format="2">
	<unicode hex="A723"/>
	<advance width="340"/>
	<outline>
		<contour>
			<point x="98" y="-12" type="line"/>
			<point x="250" y="-10"/>
			<point x="304" y="48"/>
			<point x="304" y="132" type="curve" smooth="yes"/>
			<point x="304" y="204"/>
			<point x="251" y="244"/>
			<point x="166" y="244" type="curve" smooth="yes"/>
			<point x="93" y="244"/>
			<point x="56" y="216"/>
			<point x="56" y="168" type="curve" smooth="yes"/>
			<point x="56" y="123"/>
			<point x="94" y="100"/>
			<point x="146" y="100" type="curve" smooth="yes"/>
			<point x="172" y="100"/>
			<point x="202" y="111"/>
			<point x="220" y="122" type="curve"/>
			<point x="172" y="122" type="line"/>
			<point x="172" y="116"/>
			<point x="172" y="111"/>
			<point x="172" y="104" type="curve" smooth="yes"/>
			<point x="172" y="82"/>
			<point x="152" y="64"/>
			<point x="78" y="58" type="curve"/>
		</contour>
		<contour>
			<point x="98" y="256" type="line"/>
			<point x="250" y="258"/>
			<point x="304" y="316"/>
			<point x="304" y="400" type="curve" smooth="yes"/>
			<point x="304" y="472"/>
			<point x="254" y="512"/>
			<point x="174" y="512" type="curve" smooth="yes"/>
			<point x="96" y="512"/>
			<point x="56" y="484"/>
			<point x="56" y="436" type="curve" smooth="yes"/>
			<point x="56" y="391"/>
			<point x="94" y="368"/>
			<point x="146" y="368" type="curve" smooth="yes"/>
			<point x="172" y="368"/>
			<point x="202" y="379"/>
			<point x="220" y="390" type="curve"/>
			<point x="172" y="390" type="line"/>
			<point x="172" y="384"/>
			<point x="172" y="379"/>
			<point x="172" y="372" type="curve" smooth="yes"/>
			<point x="172" y="350"/>
			<point x="152" y="332"/>
			<point x="78" y="326" type="curve"/>
		</contour>
	</outline>
</glyph>
<glyph name="tshook" format="2">
	<unicode hex="AB67"/>
	<advance width="752"/>
	<outline>
		<contour>
			<point x="492" y="-188" type="curve" smooth="yes"/>
			<point x="533" y="-188"/>
			<point x="556" y="-181"/>
			<point x="576" y="-174" type="curve"/>
			<point x="546" y="-52" type="line"/>
			<point x="532" y="-56"/>
			<point x="522" y="-58"/>
			<point x="510" y="-58" type="curve" smooth="yes"/>
			<point x="480" y="-58"/>
			<point x="458" y="-45"/>
			<point x="458" y="24" type="curve" smooth="yes"/>
			<point x="458" y="34" type="line"/>
			<point x="318" y="66" type="line"/>
			<point x="318" y="26" type="line" smooth="yes"/>
			<point x="318" y="-86"/>
			<point x="358" y="-188"/>
		</contour>
		<component base="ts"/>
	</outline>
	<anchor name="aboveLC" x="420" y="662"/>
	<anchor name="belowLC" x="380" y="-182"/>
</glyph>
<glyph name="f_f" format="2">
	<unicode hex="FB00"/>
	<advance width="688"/>
	<outline>
		<contour>
			<point x="88" y="0" type="line"/>
			<point x="260" y="0" type="line"/>
			<point x="260" y="508" type="line" smooth="yes"/>
			<point x="260" y="548"/>
			<point x="284" y="564"/>
			<point x="312" y="564" type="curve" smooth="yes"/>
			<point x="340" y="564"/>
			<point x="354" y="560"/>
			<point x="368" y="554" type="curve"/>
			<point x="398" y="680" type="line"/>
			<point x="376" y="689"/>
			<point x="336" y="698"/>
			<point x="290" y="698" type="curve" smooth="yes"/>
			<point x="142" y="698"/>
			<point x="88" y="608"/>
			<point x="88" y="506" type="curve" smooth="yes"/>
		</contour>
		<contour>
			<point x="416" y="0" type="line"/>
			<point x="588" y="0" type="line"/>
			<point x="588" y="512" type="line" smooth="yes"/>
			<point x="588" y="559"/>
			<point x="608" y="574"/>
			<point x="640" y="574" type="curve" smooth="yes"/>
			<point x="656" y="574"/>
			<point x="674" y="570"/>
			<point x="690" y="564" type="curve"/>
			<point x="720" y="690" type="line"/>
			<point x="698" y="698"/>
			<point x="660" y="708"/>
			<point x="614" y="708" type="curve" smooth="yes"/>
			<point x="466" y="708"/>
			<point x="416" y="613"/>
			<point x="416" y="506" type="curve" smooth="yes"/>
		</contour>
		<contour>
			<point x="14" y="366" type="line"/>
			<point x="672" y="366" type="line"/>
			<point x="672" y="500" type="line"/>
			<point x="90" y="500" type="line"/>
			<point x="14" y="494" type="line"/>
		</contour>
	</outline>
</glyph>
<glyph name="norights" format="2">
	<unicode hex="1F10D"/>
	<advance width="752"/>
	<outline>
		<contour>
			<point x="376" y="-8" type="curve" smooth="yes"/>
			<point x="554" y="-8"/>
			<point x="708" y="118"/>
			<point x="708" y="326" type="curve" smooth="yes"/>
			<point x="708" y="534"/>
			<point x="554" y="656"/>
			<point x="376" y="656" type="curve" smooth="yes"/>
			<point x="198" y="656"/>
			<point x="44" y="533"/>
			<point x="44" y="326" type="curve" smooth="yes"/>
			<point x="44" y="118"/>
			<point x="198" y="-8"/>
		</contour>
		<contour>
			<point x="376" y="60" type="curve" smooth="yes"/>
			<point x="230" y="60"/>
			<point x="120" y="166"/>
			<point x="120" y="326" type="curve" smooth="yes"/>
			<point x="120" y="486"/>
			<point x="230" y="588"/>
			<point x="376" y="588" type="curve" smooth="yes"/>
			<point x="522" y="588"/>
			<point x="632" y="486"/>
			<point x="632" y="326" type="curve" smooth="yes"/>
			<point x="632" y="166"/>
			<point x="522" y="60"/>
		</contour>
		<contour>
			<point x="376" y="128" type="curve" smooth="yes"/>
			<point x="494" y="128"/>
			<point x="566" y="220"/>
			<point x="566" y="326" type="curve" smooth="yes"/>
			<point x="566" y="429"/>
			<point x="494" y="518"/>
			<point x="376" y="518" type="curve" smooth="yes"/>
			<point x="258" y="518"/>
			<point x="186" y="429"/>
			<point x="186" y="326" type="curve" smooth="yes"/>
			<point x="186" y="220"/>
			<point x="258" y="128"/>
		</contour>
		<contour>
			<point x="376" y="226" type="curve" smooth="yes"/>
			<point x="336" y="226"/>
			<point x="308" y="264"/>
			<point x="308" y="326" type="curve" smooth="yes"/>
			<point x="308" y="386"/>
			<point x="336" y="420"/>
			<point x="376" y="420" type="curve" smooth="yes"/>
			<point x="416" y="420"/>
			<point x="444" y="386"/>
			<point x="444" y="326" type="curve" smooth="yes"/>
			<point x="444" y="264"/>
			<point x="416" y="226"/>
		</contour>
		<contour>
			<point x="440" y="180" type="line"/>
			<point x="510" y="204" type="line"/>
			<point x="312" y="470" type="line"/>
			<point x="242" y="446" type="line"/>
		</contour>
	</outline>
</glyph>
<glyph name="marcaregistrada" format="2">
	<unicode hex="1F16C"/>
	<advance width="744"/>
	<outline>
		<contour>
			<point x="22" y="360" type="line"/>
			<point x="122" y="360" type="line"/>
			<point x="122" y="440" type="line"/>
			<point x="110" y="560" type="line"/>
			<point x="114" y="560" type="line"/>
			<point x="164" y="406" type="line"/>
			<point x="240" y="406" type="line"/>
			<point x="290" y="560" type="line"/>
			<point x="294" y="560" type="line"/>
			<point x="282" y="440" type="line"/>
			<point x="282" y="360" type="line"/>
			<point x="382" y="360" type="line"/>
			<point x="382" y="676" type="line"/>
			<point x="260" y="676" type="line"/>
			<point x="224" y="584" type="line"/>
			<point x="204" y="522" type="line"/>
			<point x="200" y="522" type="line"/>
			<point x="180" y="584" type="line"/>
			<point x="144" y="676" type="line"/>
			<point x="22" y="676" type="line"/>
		</contour>
		<contour>
			<point x="444" y="360" type="line"/>
			<point x="554" y="360" type="line"/>
			<point x="554" y="448" type="line"/>
			<point x="586" y="448" type="line" smooth="yes"/>
			<point x="660" y="448"/>
			<point x="725" y="488"/>
			<point x="725" y="576" type="curve" smooth="yes"/>
			<point x="725" y="652"/>
			<point x="664" y="676"/>
			<point x="596" y="676" type="curve" smooth="yes"/>
			<point x="444" y="676" type="line"/>
		</contour>
		<contour>
			<point x="554" y="522" type="line"/>
			<point x="554" y="598" type="line"/>
			<point x="574" y="598" type="line" smooth="yes"/>
			<point x="604" y="598"/>
			<point x="618" y="586"/>
			<point x="618" y="562" type="curve" smooth="yes"/>
			<point x="618" y="536"/>
			<point x="604" y="522"/>
			<point x="574" y="522" type="curve" smooth="yes"/>
		</contour>
		<contour>
			<point x="623" y="360" type="line"/>
			<point x="744" y="360" type="line"/>
			<point x="640" y="545" type="line"/>
			<point x="558" y="487" type="line"/>
		</contour>
	</outline>
</glyph>
<glyph name="publicdomain" format="2">
	<unicode hex="1F16E"/>
	<advance width="752"/>
	<outline>
		<contour>
			<point x="624" y="114" type="line"/>
			<point x="653" y="174" type="line"/>
			<point x="126" y="524" type="line"/>
			<point x="97" y="464" type="line"/>
		</contour>
		<component base="copyright"/>
	</outline>
</glyph>
<glyph name="Acyr.sc" format="1">
	<advance width="516"/>
	<outline>
		<component base="A.sc"/>
		<contour>
			<point name="aboveUC" x="260" y="564" type="move"/>
		</contour>
	</outline>
</glyph>
<glyph name="Aogonek.d" format="1">
	<advance width="584"/>
	<outline>
		<component base="A"/>
		<component base="ogonekcmb.cap" xOffset="288"/>
		<contour>
			<point name="aboveUC" x="290" y="672" type="move"/>
		</contour>
	</outline>
</glyph>
<glyph name="Aogonek.ds" format="2">
	<advance width="516"/>
	<outline>
		<contour>
			<point x="274" y="-228" type="curve" smooth="yes"/>
			<point x="312" y="-228"/>
			<point x="360" y="-212"/>
			<point x="388" y="-190" type="curve"/>
			<point x="350" y="-104" type="line"/>
			<point x="342" y="-110"/>
			<point x="328" y="-118"/>
			<point x="314" y="-118" type="curve" smooth="yes"/>
			<point x="296" y="-118"/>
			<point x="276" y="-108"/>
			<point x="276" y="-84" type="curve" smooth="yes"/>
			<point x="276" y="-64"/>
			<point x="286" y="-46"/>
			<point x="310" y="-26" type="curve"/>
			<point x="248" y="24" type="line"/>
			<point x="192" y="-16"/>
			<point x="152" y="-68"/>
			<point x="152" y="-130" type="curve" smooth="yes"/>
			<point x="152" y="-192"/>
			<point x="206" y="-228"/>
		</contour>
		<component base="A.sc"/>
	</outline>
	<anchor name="aboveUC" x="254" y="564"/>
</glyph>
<glyph name="Astroke.sc" format="2">
	<advance width="516"/>
	<outline>
		<contour>
			<point x="224" y="-46" type="line"/>
			<point x="352" y="568" type="line"/>
			<point x="306" y="578" type="line"/>
			<point x="178" y="-36" type="line"/>
		</contour>
		<component base="A.sc"/>
	</outline>
	<anchor name="aboveUC" x="260" y="562"/>
	<anchor name="belowLC" x="260" y="-22"/>
</glyph>
<glyph name="Be.sc" format="2">
	<advance width="552"/>
	<outline>
		<contour>
			<point x="72" y="0" type="line"/>
			<point x="298" y="0" type="line" smooth="yes"/>
			<point x="412" y="0"/>
			<point x="518" y="41"/>
			<point x="518" y="166" type="curve" smooth="yes"/>
			<point x="518" y="294"/>
			<point x="412" y="324"/>
			<point x="298" y="324" type="curve" smooth="yes"/>
			<point x="244" y="324" type="line"/>
			<point x="244" y="400" type="line"/>
			<point x="482" y="400" type="line"/>
			<point x="482" y="532" type="line"/>
			<point x="72" y="532" type="line"/>
		</contour>
		<contour>
			<point x="244" y="124" type="line"/>
			<point x="244" y="218" type="line"/>
			<point x="284" y="218" type="line" smooth="yes"/>
			<point x="328" y="218"/>
			<point x="352" y="208"/>
			<point x="352" y="174" type="curve" smooth="yes"/>
			<point x="352" y="142"/>
			<point x="330" y="124"/>
			<point x="284" y="124" type="curve" smooth="yes"/>
		</contour>
	</outline>
</glyph>
<glyph name="Bstroke.sc" format="2">
	<advance width="574"/>
	<outline>
		<contour>
			<point x="22" y="124" type="line"/>
			<point x="346" y="124" type="line"/>
			<point x="346" y="222" type="line"/>
			<point x="94" y="222" type="line"/>
			<point x="22" y="216" type="line"/>
		</contour>
		<contour>
			<point x="92" y="0" type="line"/>
			<point x="321" y="0" type="line" smooth="yes"/>
			<point x="441" y="0"/>
			<point x="544" y="44"/>
			<point x="544" y="155" type="curve" smooth="yes"/>
			<point x="544" y="238"/>
			<point x="507" y="284"/>
			<point x="429" y="300" type="curve"/>
			<point x="429" y="304" type="line"/>
			<point x="495" y="320"/>
			<point x="521" y="369"/>
			<point x="521" y="408" type="curve" smooth="yes"/>
			<point x="521" y="509"/>
			<point x="421" y="532"/>
			<point x="303" y="532" type="curve" smooth="yes"/>
			<point x="92" y="532" type="line"/>
		</contour>
		<contour>
			<point x="264" y="340" type="line"/>
			<point x="264" y="436" type="line"/>
			<point x="307" y="436" type="line" smooth="yes"/>
			<point x="348" y="436"/>
			<point x="366" y="423"/>
			<point x="366" y="392" type="curve" smooth="yes"/>
			<point x="366" y="364"/>
			<point x="350" y="340"/>
			<point x="308" y="340" type="curve" smooth="yes"/>
		</contour>
		<contour>
			<point x="264" y="96" type="line"/>
			<point x="264" y="248" type="line"/>
			<point x="304" y="248" type="line" smooth="yes"/>
			<point x="365" y="248"/>
			<point x="390" y="225"/>
			<point x="390" y="174" type="curve" smooth="yes"/>
			<point x="390" y="127"/>
			<point x="366" y="96"/>
			<point x="304" y="96" type="curve" smooth="yes"/>
		</contour>
	</outline>
</glyph>
<glyph name="C.sc" format="2">
	<advance width="526"/>
	<outline>
		<contour>
			<point x="317" y="-12" type="curve" smooth="yes"/>
			<point x="390" y="-12"/>
			<point x="452" y="14"/>
			<point x="504" y="70" type="curve"/>
			<point x="416" y="166" type="line"/>
			<point x="395" y="146"/>
			<point x="365" y="128"/>
			<point x="325" y="128" type="curve" smooth="yes"/>
			<point x="261" y="128"/>
			<point x="218" y="174"/>
			<point x="218" y="267" type="curve" smooth="yes"/>
			<point x="218" y="354"/>
			<point x="271" y="404"/>
			<point x="329" y="404" type="curve" smooth="yes"/>
			<point x="362" y="404"/>
			<point x="388" y="392"/>
			<point x="412" y="370" type="curve"/>
			<point x="502" y="468" type="line"/>
			<point x="464" y="512"/>
			<point x="402" y="544"/>
			<point x="327" y="544" type="curve" smooth="yes"/>
			<point x="180" y="544"/>
			<point x="44" y="443"/>
			<point x="44" y="261" type="curve" smooth="yes"/>
			<point x="44" y="74"/>
			<point x="172" y="-12"/>
		</contour>
	</outline>
	<anchor name="aboverightUC" x="440" y="562"/>
	<anchor name="aboveUC" x="310" y="562"/>
	<anchor name="baseLC" x="310" y="0"/>
	<anchor name="belowLC" x="310" y="-22"/>
</glyph>
<glyph name="Chi.sc" format="1">
	<advance width="530"/>
	<outline>
		<component base="X.sc"/>
		<contour>
			<point name="aboveUC" x="312" y="564" type="move"/>
		</contour>
		<contour>
			<point name="baseLC" x="312" y="0" type="move"/>
		</contour>
		<contour>
			<point name="belowLC" x="312" y="-22" type="move"/>
		</contour>
	</outline>
</glyph>
<glyph name="D.sc" format="2">
	<advance width="590"/>
	<outline>
		<contour>
			<point x="72" y="0" type="line"/>
			<point x="257" y="0" type="line" smooth="yes"/>
			<point x="414" y="0"/>
			<point x="546" y="69"/>
			<point x="546" y="269" type="curve" smooth="yes"/>
			<point x="546" y="468"/>
			<point x="414" y="532"/>
			<point x="246" y="532" type="curve" smooth="yes"/>
			<point x="72" y="532" type="line"/>
		</contour>
		<contour>
			<point x="244" y="132" type="line"/>
			<point x="244" y="400" type="line"/>
			<point x="257" y="400" type="line" smooth="yes"/>
			<point x="326" y="400"/>
			<point x="370" y="372"/>
			<point x="370" y="269" type="curve" smooth="yes"/>
			<point x="370" y="167"/>
			<point x="326" y="132"/>
			<point x="257" y="132" type="curve" smooth="yes"/>
		</contour>
	</outline>
	<anchor name="aboveUC" x="300" y="562"/>
	<anchor name="belowLC" x="290" y="-22"/>
</glyph>
<glyph name="Dzhe.sc" format="2">
	<advance width="611"/>
	<outline>
		<contour>
			<point x="228" y="-172" type="line"/>
			<point x="376" y="-172" type="line"/>
			<point x="395" y="0" type="line"/>
			<point x="542" y="0" type="line"/>
			<point x="542" y="532" type="line"/>
			<point x="370" y="532" type="line"/>
			<point x="370" y="142" type="line"/>
			<point x="244" y="142" type="line"/>
			<point x="244" y="532" type="line"/>
			<point x="72" y="532" type="line"/>
			<point x="72" y="0" type="line"/>
			<point x="222" y="0" type="line"/>
		</contour>
	</outline>
</glyph>
<glyph name="Ecyr.sc" format="2">
	<advance width="522"/>
	<outline>
		<contour>
			<point x="196" y="-12" type="curve" smooth="yes"/>
			<point x="344" y="-12"/>
			<point x="478" y="62"/>
			<point x="478" y="272" type="curve" smooth="yes"/>
			<point x="478" y="454"/>
			<point x="357" y="544"/>
			<point x="214" y="544" type="curve" smooth="yes"/>
			<point x="143" y="544"/>
			<point x="73" y="520"/>
			<point x="24" y="470" type="curve"/>
			<point x="110" y="366" type="line"/>
			<point x="132" y="386"/>
			<point x="168" y="404"/>
			<point x="206" y="404" type="curve" smooth="yes"/>
			<point x="272" y="404"/>
			<point x="310" y="358"/>
			<point x="310" y="267" type="curve" smooth="yes"/>
			<point x="310" y="152"/>
			<point x="258" y="128"/>
			<point x="196" y="128" type="curve" smooth="yes"/>
			<point x="162" y="128"/>
			<point x="138" y="139"/>
			<point x="110" y="162" type="curve"/>
			<point x="18" y="60" type="line"/>
			<point x="60" y="20"/>
			<point x="124" y="-12"/>
		</contour>
		<contour>
			<point x="144" y="206" type="line"/>
			<point x="378" y="206" type="line"/>
			<point x="378" y="330" type="line"/>
			<point x="144" y="330" type="line"/>
		</contour>
	</outline>
	<anchor name="aboveUC" x="250" y="562"/>
</glyph>
<glyph name="Ef.sc" format="2">
	<advance width="712"/>
	<outline>
		<contour>
			<point x="386" y="58" type="line" smooth="yes"/>
			<point x="556" y="58"/>
			<point x="668" y="121"/>
			<point x="668" y="268" type="curve" smooth="yes"/>
			<point x="668" y="416"/>
			<point x="556" y="478"/>
			<point x="386" y="478" type="curve" smooth="yes"/>
			<point x="326" y="478" type="line" smooth="yes"/>
			<point x="156" y="478"/>
			<point x="44" y="416"/>
			<point x="44" y="268" type="curve" smooth="yes"/>
			<point x="44" y="121"/>
			<point x="156" y="58"/>
			<point x="326" y="58" type="curve" smooth="yes"/>
		</contour>
		<contour>
			<point x="312" y="182" type="line" smooth="yes"/>
			<point x="252" y="182"/>
			<point x="210" y="200"/>
			<point x="210" y="268" type="curve" smooth="yes"/>
			<point x="210" y="336"/>
			<point x="252" y="354"/>
			<point x="312" y="354" type="curve" smooth="yes"/>
			<point x="400" y="354" type="line" smooth="yes"/>
			<point x="460" y="354"/>
			<point x="502" y="336"/>
			<point x="502" y="268" type="curve" smooth="yes"/>
			<point x="502" y="200"/>
			<point x="460" y="182"/>
			<point x="400" y="182" type="curve" smooth="yes"/>
		</contour>
		<contour>
			<point x="284" y="-12" type="line"/>
			<point x="428" y="-12" type="line"/>
			<point x="428" y="544" type="line"/>
			<point x="284" y="544" type="line"/>
		</contour>
	</outline>
</glyph>
<glyph name="El.sc" format="2">
	<advance width="602"/>
	<outline>
		<contour>
			<point x="64" y="-12" type="curve" smooth="yes"/>
			<point x="170" y="-12"/>
			<point x="222" y="50"/>
			<point x="264" y="242" type="curve" smooth="yes"/>
			<point x="274" y="288"/>
			<point x="284" y="340"/>
			<point x="294" y="392" type="curve"/>
			<point x="358" y="392" type="line"/>
			<point x="358" y="0" type="line"/>
			<point x="530" y="0" type="line"/>
			<point x="530" y="532" type="line"/>
			<point x="166" y="532" type="line"/>
			<point x="150" y="444"/>
			<point x="130" y="348"/>
			<point x="108" y="259" type="curve" smooth="yes"/>
			<point x="82" y="156"/>
			<point x="64" y="146"/>
			<point x="38" y="146" type="curve" smooth="yes"/>
			<point x="30" y="146"/>
			<point x="22" y="148"/>
			<point x="14" y="150" type="curve"/>
			<point x="-14" y="-2" type="line"/>
			<point x="6" y="-10"/>
			<point x="29" y="-12"/>
		</contour>
	</outline>
</glyph>
<glyph name="Eng.as" format="2">
	<advance width="614"/>
	<outline>
		<contour>
			<point x="364" y="-178" type="curve" smooth="yes"/>
			<point x="498" y="-178"/>
			<point x="542" y="-80"/>
			<point x="542" y="15" type="curve" smooth="yes"/>
			<point x="542" y="532" type="line"/>
			<point x="384" y="532" type="line"/>
			<point x="384" y="426" type="line" smooth="yes"/>
			<point x="384" y="356"/>
			<point x="394" y="270"/>
			<point x="406" y="196" type="curve"/>
			<point x="402" y="196" type="line"/>
			<point x="378" y="262"/>
			<point x="364" y="294"/>
			<point x="345" y="330" type="curve" smooth="yes"/>
			<point x="240" y="532" type="line"/>
			<point x="72" y="532" type="line"/>
			<point x="72" y="0" type="line"/>
			<point x="230" y="0" type="line"/>
			<point x="230" y="106" type="line" smooth="yes"/>
			<point x="230" y="176"/>
			<point x="220" y="262"/>
			<point x="208" y="336" type="curve"/>
			<point x="212" y="336" type="line"/>
			<point x="236" y="270"/>
			<point x="250" y="238"/>
			<point x="269" y="202" type="curve" smooth="yes"/>
			<point x="374" y="0" type="line"/>
			<point x="376" y="0" type="line"/>
			<point x="376" y="-30"/>
			<point x="363" y="-48"/>
			<point x="336" y="-48" type="curve" smooth="yes"/>
			<point x="327" y="-48"/>
			<point x="319" y="-47"/>
			<point x="307" y="-44" type="curve"/>
			<point x="278" y="-166" type="line"/>
			<point x="298" y="-172"/>
			<point x="324" y="-178"/>
		</contour>
	</outline>
	<anchor name="aboveUC" x="320" y="562"/>
	<anchor name="belowLC" x="310" y="-182"/>
</glyph>
<glyph name="Eng.sc" format="2">
	<advance width="615"/>
	<outline>
		<contour>
			<point x="372" y="-12" type="curve" smooth="yes"/>
			<point x="517" y="-12"/>
			<point x="576" y="93"/>
			<point x="576" y="270" type="curve" smooth="yes"/>
			<point x="576" y="468"/>
			<point x="490" y="544"/>
			<point x="381" y="544" type="curve" smooth="yes"/>
			<point x="326" y="544"/>
			<point x="282" y="526"/>
			<point x="238" y="482" type="curve"/>
			<point x="238" y="532" type="line"/>
			<point x="72" y="532" type="line"/>
			<point x="72" y="0" type="line"/>
			<point x="244" y="0" type="line"/>
			<point x="244" y="341" type="line"/>
			<point x="268" y="390"/>
			<point x="301" y="404"/>
			<point x="328" y="404" type="curve" smooth="yes"/>
			<point x="374" y="404"/>
			<point x="400" y="364"/>
			<point x="400" y="270" type="curve" smooth="yes"/>
			<point x="400" y="146"/>
			<point x="378" y="128"/>
			<point x="352" y="128" type="curve" smooth="yes"/>
			<point x="340" y="128"/>
			<point x="332" y="130"/>
			<point x="322" y="134" type="curve"/>
			<point x="288" y="8" type="line"/>
			<point x="305" y="-5"/>
			<point x="343" y="-12"/>
		</contour>
	</outline>
	<anchor name="aboveUC" x="330" y="562"/>
	<anchor name="belowLC" x="330" y="-22"/>
</glyph>
<glyph name="Enhook.sc" format="2">
	<advance width="632"/>
	<outline>
		<contour>
			<point x="386" y="-176" type="curve" smooth="yes"/>
			<point x="521" y="-176"/>
			<point x="560" y="-74"/>
			<point x="560" y="38" type="curve" smooth="yes"/>
			<point x="560" y="532" type="line"/>
			<point x="388" y="532" type="line"/>
			<point x="388" y="344" type="line"/>
			<point x="244" y="344" type="line"/>
			<point x="244" y="532" type="line"/>
			<point x="72" y="532" type="line"/>
			<point x="72" y="0" type="line"/>
			<point x="244" y="0" type="line"/>
			<point x="244" y="196" type="line"/>
			<point x="388" y="196" type="line"/>
			<point x="388" y="32" type="line" smooth="yes"/>
			<point x="388" y="-26"/>
			<point x="380" y="-46"/>
			<point x="354" y="-46" type="curve" smooth="yes"/>
			<point x="346" y="-46"/>
			<point x="338" y="-46"/>
			<point x="326" y="-42" type="curve"/>
			<point x="296" y="-164" type="line"/>
			<point x="316" y="-170"/>
			<point x="342" y="-176"/>
		</contour>
	</outline>
</glyph>
<glyph name="Eogonek.ds" format="1">
	<advance width="508"/>
	<outline>
		<component base="E.sc"/>
		<component base="ogonekcmb.cap" xOffset="272"/>
		<contour>
			<point name="aboveUC" x="270" y="564" type="move"/>
		</contour>
	</outline>
</glyph>
<glyph name="Eogonek.sc" format="2">
	<advance width="508"/>
	<outline>
		<contour>
			<point x="362" y="-228" type="curve" smooth="yes"/>
			<point x="400" y="-228"/>
			<point x="448" y="-212"/>
			<point x="476" y="-190" type="curve"/>
			<point x="438" y="-104" type="line"/>
			<point x="429" y="-110"/>
			<point x="416" y="-118"/>
			<point x="404" y="-118" type="curve" smooth="yes"/>
			<point x="384" y="-118"/>
			<point x="364" y="-108"/>
			<point x="364" y="-84" type="curve" smooth="yes"/>
			<point x="364" y="-43"/>
			<point x="402" y="0"/>
			<point x="448" y="0" type="curve" smooth="yes"/>
			<point x="454" y="0" type="line"/>
			<point x="454" y="132" type="line"/>
			<point x="244" y="132" type="line"/>
			<point x="244" y="206" type="line"/>
			<point x="416" y="206" type="line"/>
			<point x="416" y="330" type="line"/>
			<point x="244" y="330" type="line"/>
			<point x="244" y="400" type="line"/>
			<point x="444" y="400" type="line"/>
			<point x="444" y="532" type="line"/>
			<point x="72" y="532" type="line"/>
			<point x="72" y="0" type="line"/>
			<point x="320" y="0" type="line"/>
			<point x="287" y="-20"/>
			<point x="240" y="-67"/>
			<point x="240" y="-130" type="curve" smooth="yes"/>
			<point x="240" y="-192"/>
			<point x="294" y="-228"/>
		</contour>
	</outline>
	<anchor name="aboveUC" x="270" y="564"/>
</glyph>
<glyph name="Eopenogonek" format="2">
	<advance width="538"/>
	<outline>
		<contour>
			<point x="308" y="-228" type="curve" smooth="yes"/>
			<point x="348" y="-228"/>
			<point x="398" y="-212"/>
			<point x="428" y="-190" type="curve"/>
			<point x="390" y="-94" type="line"/>
			<point x="380" y="-100"/>
			<point x="364" y="-108"/>
			<point x="348" y="-108" type="curve" smooth="yes"/>
			<point x="322" y="-108"/>
			<point x="306" y="-98"/>
			<point x="306" y="-74" type="curve" smooth="yes"/>
			<point x="306" y="-42"/>
			<point x="326" y="-22"/>
			<point x="380" y="-6" type="curve" smooth="yes"/>
			<point x="460" y="18"/>
			<point x="486" y="36"/>
			<point x="532" y="76" type="curve"/>
			<point x="450" y="182" type="line"/>
			<point x="410" y="152"/>
			<point x="368" y="136"/>
			<point x="316" y="136" type="curve" smooth="yes"/>
			<point x="245" y="136"/>
			<point x="200" y="162"/>
			<point x="200" y="208" type="curve" smooth="yes"/>
			<point x="200" y="252"/>
			<point x="228" y="270"/>
			<point x="296" y="270" type="curve" smooth="yes"/>
			<point x="388" y="270" type="line"/>
			<point x="388" y="396" type="line"/>
			<point x="316" y="396" type="line" smooth="yes"/>
			<point x="254" y="396"/>
			<point x="232" y="419"/>
			<point x="232" y="455" type="curve" smooth="yes"/>
			<point x="232" y="498"/>
			<point x="262" y="514"/>
			<point x="308" y="514" type="curve" smooth="yes"/>
			<point x="358" y="514"/>
			<point x="396" y="502"/>
			<point x="438" y="474" type="curve"/>
			<point x="514" y="582" type="line"/>
			<point x="452" y="634"/>
			<point x="378" y="662"/>
			<point x="302" y="662" type="curve" smooth="yes"/>
			<point x="164" y="662"/>
			<point x="64" y="600"/>
			<point x="64" y="488" type="curve" smooth="yes"/>
			<point x="64" y="428"/>
			<point x="93" y="375"/>
			<point x="150" y="346" type="curve"/>
			<point x="150" y="342" type="line"/>
			<point x="82" y="322"/>
			<point x="32" y="268"/>
			<point x="32" y="194" type="curve" smooth="yes"/>
			<point x="32" y="62"/>
			<point x="138" y="-12"/>
			<point x="300" y="-12" type="curve"/>
			<point x="248" y="2" type="line"/>
			<point x="210" y="-22"/>
			<point x="172" y="-74"/>
			<point x="172" y="-126" type="curve" smooth="yes"/>
			<point x="172" y="-190"/>
			<point x="232" y="-228"/>
		</contour>
	</outline>
	<anchor name="aboveUC" x="290" y="672"/>
</glyph>
<glyph name="Eopenogonek.sc" format="2">
	<advance width="506"/>
	<outline>
		<contour>
			<point x="268" y="-228" type="curve" smooth="yes"/>
			<point x="308" y="-228"/>
			<point x="358" y="-212"/>
			<point x="388" y="-190" type="curve"/>
			<point x="350" y="-94" type="line"/>
			<point x="340" y="-100"/>
			<point x="324" y="-108"/>
			<point x="308" y="-108" type="curve" smooth="yes"/>
			<point x="282" y="-108"/>
			<point x="266" y="-98"/>
			<point x="266" y="-74" type="curve" smooth="yes"/>
			<point x="266" y="-42"/>
			<point x="286" y="-20"/>
			<point x="336" y="-6" type="curve" smooth="yes"/>
			<point x="400" y="12"/>
			<point x="430" y="32"/>
			<point x="470" y="62" type="curve"/>
			<point x="400" y="164" type="line"/>
			<point x="364" y="135"/>
			<point x="321" y="118"/>
			<point x="274" y="118" type="curve" smooth="yes"/>
			<point x="226" y="118"/>
			<point x="196" y="138"/>
			<point x="196" y="170" type="curve" smooth="yes"/>
			<point x="196" y="200"/>
			<point x="214" y="218"/>
			<point x="260" y="218" type="curve" smooth="yes"/>
			<point x="342" y="218" type="line"/>
			<point x="342" y="324" type="line"/>
			<point x="276" y="324" type="line" smooth="yes"/>
			<point x="238" y="324"/>
			<point x="220" y="340"/>
			<point x="220" y="368" type="curve" smooth="yes"/>
			<point x="220" y="396"/>
			<point x="246" y="414"/>
			<point x="282" y="414" type="curve" smooth="yes"/>
			<point x="311" y="414"/>
			<point x="349" y="408"/>
			<point x="386" y="376" type="curve"/>
			<point x="462" y="476" type="line"/>
			<point x="404" y="522"/>
			<point x="338" y="544"/>
			<point x="270" y="544" type="curve" smooth="yes"/>
			<point x="122" y="544"/>
			<point x="54" y="484"/>
			<point x="54" y="392" type="curve" smooth="yes"/>
			<point x="54" y="346"/>
			<point x="76" y="304"/>
			<point x="118" y="282" type="curve"/>
			<point x="118" y="278" type="line"/>
			<point x="68" y="262"/>
			<point x="30" y="216"/>
			<point x="30" y="160" type="curve" smooth="yes"/>
			<point x="30" y="46"/>
			<point x="130" y="-12"/>
			<point x="264" y="-12" type="curve"/>
			<point x="208" y="2" type="line"/>
			<point x="170" y="-22"/>
			<point x="132" y="-74"/>
			<point x="132" y="-126" type="curve" smooth="yes"/>
			<point x="132" y="-190"/>
			<point x="192" y="-228"/>
		</contour>
	</outline>
	<anchor name="aboveUC" x="250" y="562"/>
</glyph>
<glyph name="Epsilon.sc" format="1">
	<advance width="508"/>
	<outline>
		<component base="E.sc"/>
		<contour>
			<point name="aboveLC" x="271" y="564" type="move"/>
		</contour>
		<contour>
			<point name="belowLC" x="272" y="-22" type="move"/>
		</contour>
	</outline>
</glyph>
<glyph name="Esdescender.sc" format="2">
	<advance width="526"/>
	<outline>
		<contour>
			<point x="224" y="-172" type="line"/>
			<point x="372" y="-172" type="line"/>
			<point x="392" y="10" type="line"/>
			<point x="218" y="10" type="line"/>
		</contour>
		<component base="Es.sc"/>
	</outline>
</glyph>
<glyph name="Eth.sc" format="2">
	<advance width="616"/>
	<outline>
		<contour>
			<point x="24" y="214" type="line"/>
			<point x="352" y="214" type="line"/>
			<point x="352" y="326" type="line"/>
			<point x="100" y="326" type="line"/>
			<point x="24" y="320" type="line"/>
		</contour>
		<component base="D.sc" xOffset="26"/>
	</outline>
</glyph>
<glyph name="F.sc" format="2">
	<advance width="488"/>
	<outline>
		<contour>
			<point x="72" y="0" type="line"/>
			<point x="244" y="0" type="line"/>
			<point x="244" y="180" type="line"/>
			<point x="420" y="180" type="line"/>
			<point x="420" y="308" type="line"/>
			<point x="244" y="308" type="line"/>
			<point x="244" y="392" type="line"/>
			<point x="448" y="392" type="line"/>
			<point x="448" y="532" type="line"/>
			<point x="72" y="532" type="line"/>
		</contour>
	</outline>
	<anchor name="aboveUC" x="270" y="562"/>
	<anchor name="belowLC" x="168" y="-22"/>
</glyph>
<glyph name="Gamma.sc" format="2">
	<advance width="482"/>
	<outline>
		<contour>
			<point x="72" y="0" type="line"/>
			<point x="244" y="0" type="line"/>
			<point x="244" y="390" type="line"/>
			<point x="448" y="390" type="line"/>
			<point x="448" y="532" type="line"/>
			<point x="72" y="532" type="line"/>
		</contour>
	</outline>
</glyph>
<glyph name="Ghe.sc" format="1">
	<advance width="482"/>
	<outline>
		<component base="Gamma.sc"/>
		<contour>
			<point name="aboveUC" x="276" y="554" type="move"/>
		</contour>
	</outline>
</glyph>
<glyph name="Ghestroke.sc" format="1">
	<advance width="508"/>
	<outline>
		<contour>
			<point x="24" y="202" type="line"/>
			<point x="386" y="202" type="line"/>
			<point x="386" y="282" type="line"/>
			<point x="100" y="282" type="line"/>
			<point x="24" y="276" type="line"/>
		</contour>
		<component base="Ghe.sc" xOffset="26"/>
	</outline>
</glyph>
<glyph name="Ghook.sc" format="2">
	<advance width="586"/>
	<outline>
		<contour>
			<point x="333" y="-12" type="curve" smooth="yes"/>
			<point x="412" y="-12"/>
			<point x="489" y="16"/>
			<point x="532" y="55" type="curve"/>
			<point x="532" y="316" type="line"/>
			<point x="308" y="316" type="line"/>
			<point x="308" y="198" type="line"/>
			<point x="382" y="198" type="line"/>
			<point x="382" y="132" type="line"/>
			<point x="372" y="126"/>
			<point x="360" y="124"/>
			<point x="346" y="124" type="curve" smooth="yes"/>
			<point x="256" y="124"/>
			<point x="218" y="176"/>
			<point x="218" y="261" type="curve" smooth="yes"/>
			<point x="218" y="355"/>
			<point x="270" y="405"/>
			<point x="337" y="405" type="curve" smooth="yes"/>
			<point x="376" y="405"/>
			<point x="400" y="396"/>
			<point x="428" y="378" type="curve"/>
			<point x="520" y="478" type="line"/>
			<point x="509" y="487"/>
			<point x="489" y="501"/>
			<point x="489" y="519" type="curve" smooth="yes"/>
			<point x="489" y="546"/>
			<point x="506" y="554"/>
			<point x="527" y="554" type="curve" smooth="yes"/>
			<point x="535" y="554"/>
			<point x="539" y="553"/>
			<point x="547" y="550" type="curve"/>
			<point x="578" y="670" type="line"/>
			<point x="556" y="678"/>
			<point x="532" y="684"/>
			<point x="488" y="684" type="curve" smooth="yes"/>
			<point x="407" y="684"/>
			<point x="364" y="626"/>
			<point x="364" y="574" type="curve" smooth="yes"/>
			<point x="364" y="548"/>
			<point x="370" y="532"/>
			<point x="380" y="514" type="curve"/>
			<point x="385" y="540" type="line"/>
			<point x="372" y="542"/>
			<point x="352" y="544"/>
			<point x="335" y="544" type="curve" smooth="yes"/>
			<point x="180" y="544"/>
			<point x="44" y="443"/>
			<point x="44" y="261" type="curve" smooth="yes"/>
			<point x="44" y="74"/>
			<point x="176" y="-12"/>
		</contour>
	</outline>
</glyph>
<glyph name="I.as" format="2">
	<advance width="416"/>
	<outline>
		<contour>
			<point x="54" y="0" type="line"/>
			<point x="362" y="0" type="line"/>
			<point x="362" y="134" type="line"/>
			<point x="294" y="134" type="line"/>
			<point x="294" y="398" type="line"/>
			<point x="362" y="398" type="line"/>
			<point x="362" y="532" type="line"/>
			<point x="54" y="532" type="line"/>
			<point x="54" y="398" type="line"/>
			<point x="122" y="398" type="line"/>
			<point x="122" y="134" type="line"/>
			<point x="54" y="134" type="line"/>
		</contour>
	</outline>
	<anchor name="aboveUC" x="210" y="562"/>
	<anchor name="belowLC" x="210" y="-22"/>
	<anchor name="ogonekUC" x="210" y="0"/>
</glyph>
<glyph name="IJ.sc" format="2">
	<advance width="632"/>
	<outline>
		<contour>
			<point x="72" y="0" type="line"/>
			<point x="244" y="0" type="line"/>
			<point x="244" y="532" type="line"/>
			<point x="72" y="532" type="line"/>
		</contour>
		<contour>
			<point x="366" y="-176" type="curve" smooth="yes"/>
			<point x="516" y="-176"/>
			<point x="560" y="-74"/>
			<point x="560" y="38" type="curve" smooth="yes"/>
			<point x="560" y="532" type="line"/>
			<point x="388" y="532" type="line"/>
			<point x="388" y="32" type="line" smooth="yes"/>
			<point x="388" y="-22"/>
			<point x="374" y="-42"/>
			<point x="338" y="-42" type="curve" smooth="yes"/>
			<point x="326" y="-42"/>
			<point x="316" y="-40"/>
			<point x="302" y="-36" type="curve"/>
			<point x="272" y="-158" type="line"/>
			<point x="294" y="-168"/>
			<point x="324" y="-176"/>
		</contour>
	</outline>
</glyph>
<glyph name="Ie.sc" format="1">
	<advance width="508"/>
	<outline>
		<component base="E.sc"/>
		<contour>
			<point name="aboveUC" x="271" y="564" type="move"/>
		</contour>
	</outline>
</glyph>
<glyph name="Iogonek.a" format="1">
	<advance width="416"/>
	<outline>
		<contour>
			<point x="214" y="-228" type="curve" smooth="yes"/>
			<point x="252" y="-228"/>
			<point x="300" y="-212"/>
			<point x="328" y="-190" type="curve"/>
			<point x="290" y="-104" type="line"/>
			<point x="281" y="-110"/>
			<point x="268" y="-118"/>
			<point x="256" y="-118" type="curve" smooth="yes"/>
			<point x="236" y="-118"/>
			<point x="216" y="-108"/>
			<point x="216" y="-84" type="curve" smooth="yes"/>
			<point x="216" y="-56"/>
			<point x="235" y="-27"/>
			<point x="267" y="0" type="curve"/>
			<point x="362" y="0" type="line"/>
			<point x="362" y="144" type="line"/>
			<point x="294" y="144" type="line"/>
			<point x="294" y="506" type="line"/>
			<point x="362" y="506" type="line"/>
			<point x="362" y="650" type="line"/>
			<point x="54" y="650" type="line"/>
			<point x="54" y="506" type="line"/>
			<point x="122" y="506" type="line"/>
			<point x="122" y="144" type="line"/>
			<point x="54" y="144" type="line"/>
			<point x="54" y="0" type="line"/>
			<point x="165" y="0" type="line"/>
			<point x="140" y="-18"/>
			<point x="92" y="-67"/>
			<point x="92" y="-130" type="curve" smooth="yes"/>
			<point x="92" y="-192"/>
			<point x="146" y="-228"/>
		</contour>
		<contour>
			<point name="aboveUC" x="208" y="672" type="move"/>
		</contour>
	</outline>
</glyph>
<glyph name="Iogonek.sc" format="2">
	<advance width="342"/>
	<outline>
		<contour>
			<point x="182" y="-228" type="curve" smooth="yes"/>
			<point x="225" y="-228"/>
			<point x="279" y="-212"/>
			<point x="312" y="-190" type="curve"/>
			<point x="271" y="-94" type="line"/>
			<point x="260" y="-100"/>
			<point x="243" y="-108"/>
			<point x="225" y="-108" type="curve" smooth="yes"/>
			<point x="197" y="-108"/>
			<point x="180" y="-98"/>
			<point x="180" y="-74" type="curve" smooth="yes"/>
			<point x="180" y="-46"/>
			<point x="203" y="-18"/>
			<point x="264" y="0" type="curve"/>
			<point x="264" y="532" type="line"/>
			<point x="78" y="532" type="line"/>
			<point x="78" y="0" type="line"/>
			<point x="121" y="0" type="line"/>
			<point x="82" y="-20"/>
			<point x="35" y="-66"/>
			<point x="35" y="-126" type="curve" smooth="yes"/>
			<point x="35" y="-190"/>
			<point x="100" y="-228"/>
		</contour>
	</outline>
	<anchor name="aboveUC" x="171" y="562"/>
</glyph>
<glyph name="Iotalatin.as" format="2">
	<advance width="416"/>
	<outline>
		<contour>
			<point x="54" y="398" type="line"/>
			<point x="362" y="398" type="line"/>
			<point x="362" y="532" type="line"/>
			<point x="54" y="532" type="line"/>
		</contour>
		<component base="Iotalatin.sc" xOffset="50"/>
	</outline>
	<anchor name="aboveUC" x="210" y="562"/>
	<anchor name="belowLC" x="240" y="-22"/>
</glyph>
<glyph name="Istroke.as" format="2">
	<advance width="416"/>
	<outline>
		<contour>
			<point x="52" y="208" type="line"/>
			<point x="364" y="208" type="line"/>
			<point x="364" y="320" type="line"/>
			<point x="128" y="320" type="line"/>
			<point x="52" y="314" type="line"/>
		</contour>
		<component base="I.as"/>
	</outline>
	<anchor name="aboveUC" x="210" y="562"/>
	<anchor name="belowLC" x="210" y="-22"/>
</glyph>
<glyph name="Istroke.sc" format="2">
	<advance width="356"/>
	<outline>
		<contour>
			<point x="22" y="214" type="line"/>
			<point x="334" y="214" type="line"/>
			<point x="334" y="326" type="line"/>
			<point x="98" y="326" type="line"/>
			<point x="22" y="320" type="line"/>
		</contour>
		<component base="I.sc" xOffset="20"/>
	</outline>
	<anchor name="aboveUC" x="180" y="562"/>
	<anchor name="belowLC" x="180" y="-22"/>
</glyph>
<glyph name="K.sc" format="2">
	<advance width="570"/>
	<outline>
		<contour>
			<point x="72" y="0" type="line"/>
			<point x="244" y="0" type="line"/>
			<point x="244" y="140" type="line"/>
			<point x="286" y="192" type="line"/>
			<point x="398" y="0" type="line"/>
			<point x="580" y="0" type="line"/>
			<point x="384" y="310" type="line"/>
			<point x="548" y="532" type="line"/>
			<point x="364" y="532" type="line"/>
			<point x="248" y="358" type="line"/>
			<point x="244" y="358" type="line"/>
			<point x="244" y="532" type="line"/>
			<point x="72" y="532" type="line"/>
		</contour>
	</outline>
	<anchor name="aboverightUC" x="470" y="562"/>
	<anchor name="aboveUC" x="304" y="562"/>
	<anchor name="belowLC" x="324" y="-22"/>
</glyph>
<glyph name="Ka.sc" format="1">
	<advance width="586"/>
	<outline>
		<contour>
			<point x="72" y="0" type="line"/>
			<point x="244" y="0" type="line"/>
			<point x="244" y="202" type="line"/>
			<point x="276" y="202" type="line"/>
			<point x="406" y="0" type="line"/>
			<point x="582" y="0" type="line"/>
			<point x="408" y="280" type="line"/>
			<point x="458" y="358" type="line" smooth="yes"/>
			<point x="472" y="379"/>
			<point x="486" y="388"/>
			<point x="512" y="388" type="curve" smooth="yes"/>
			<point x="522" y="388"/>
			<point x="532" y="386"/>
			<point x="539" y="384" type="curve"/>
			<point x="566" y="534" type="line"/>
			<point x="552" y="540"/>
			<point x="530" y="544"/>
			<point x="510" y="544" type="curve" smooth="yes"/>
			<point x="436" y="544"/>
			<point x="384" y="520"/>
			<point x="344" y="452" type="curve" smooth="yes"/>
			<point x="276" y="338" type="line"/>
			<point x="244" y="338" type="line"/>
			<point x="244" y="532" type="line"/>
			<point x="72" y="532" type="line"/>
		</contour>
		<contour>
			<point name="aboveUC" x="312" y="554" type="move"/>
		</contour>
	</outline>
</glyph>
<glyph name="Kabashkir.a" format="2">
	<advance width="752"/>
	<outline>
		<contour>
			<point x="24" y="506" type="line"/>
			<point x="196" y="506" type="line"/>
			<point x="368" y="650" type="line"/>
			<point x="24" y="650" type="line"/>
		</contour>
		<component base="Ka.a" xOffset="124"/>
	</outline>
</glyph>
<glyph name="Kabashkir.as" format="2">
	<advance width="672"/>
	<outline>
		<contour>
			<point x="346" y="532" type="line"/>
			<point x="24" y="532" type="line"/>
			<point x="24" y="390" type="line"/>
			<point x="174" y="390" type="line"/>
		</contour>
		<component base="Ka.as" xOffset="102"/>
	</outline>
</glyph>
<glyph name="Kappa.sc" format="1">
	<advance width="570"/>
	<outline>
		<component base="K.sc"/>
		<contour>
			<point name="aboveLC" x="304" y="564" type="move"/>
		</contour>
		<contour>
			<point name="belowLC" x="324" y="-22" type="move"/>
		</contour>
	</outline>
</glyph>
<glyph name="Lbar.sc" format="2">
	<advance width="506"/>
	<outline>
		<contour>
			<point x="24" y="248" type="line"/>
			<point x="410" y="248" type="line"/>
			<point x="410" y="360" type="line"/>
			<point x="104" y="360" type="line"/>
			<point x="24" y="354" type="line"/>
		</contour>
		<component base="L.sc" xOffset="30"/>
	</outline>
	<anchor name="aboveUC" x="190" y="562"/>
	<anchor name="belowLC" x="300" y="-22"/>
</glyph>
<glyph name="Lbardbl.sc" format="2">
	<advance width="506"/>
	<outline>
		<contour>
			<point x="24" y="198" type="line"/>
			<point x="410" y="198" type="line"/>
			<point x="410" y="282" type="line"/>
			<point x="104" y="282" type="line"/>
			<point x="24" y="276" type="line"/>
		</contour>
		<contour>
			<point x="24" y="326" type="line"/>
			<point x="410" y="326" type="line"/>
			<point x="410" y="410" type="line"/>
			<point x="104" y="410" type="line"/>
			<point x="24" y="404" type="line"/>
		</contour>
		<component base="L.sc" xOffset="30"/>
	</outline>
	<anchor name="aboveUC" x="190" y="562"/>
	<anchor name="belowLC" x="300" y="-22"/>
	<guideline x="220" y="304" angle="0" identifier="gfCQgIir5Q"/>
</glyph>
<glyph name="Lbelt.sc" format="2">
	<advance width="572"/>
	<outline>
		<contour>
			<point x="156" y="210" type="curve" smooth="yes"/>
			<point x="460" y="210" type="line"/>
			<point x="460" y="322" type="line"/>
			<point x="142" y="322" type="line" smooth="yes"/>
			<point x="113" y="322"/>
			<point x="96" y="332"/>
			<point x="96" y="350" type="curve" smooth="yes"/>
			<point x="96" y="368"/>
			<point x="107" y="378"/>
			<point x="124" y="378" type="curve" smooth="yes"/>
			<point x="148" y="378"/>
			<point x="168" y="358"/>
			<point x="168" y="322" type="curve"/>
			<point x="224" y="302" type="line"/>
			<point x="224" y="396"/>
			<point x="176" y="458"/>
			<point x="108" y="458" type="curve" smooth="yes"/>
			<point x="41" y="458"/>
			<point x="-6" y="410"/>
			<point x="-6" y="344" type="curve" smooth="yes"/>
			<point x="-6" y="270"/>
			<point x="43" y="210"/>
		</contour>
		<component base="L.sc" xOffset="96"/>
	</outline>
	<anchor name="aboveUC" x="260" y="564"/>
	<anchor name="belowLC" x="370" y="-22"/>
</glyph>
<glyph name="Lje.as" format="2">
	<advance width="752"/>
	<outline>
		<contour>
			<point x="-11" y="0" type="line"/>
			<point x="162" y="0" type="line"/>
			<point x="210" y="212" type="line" smooth="yes"/>
			<point x="222" y="266"/>
			<point x="233" y="323"/>
			<point x="247" y="378" type="curve"/>
			<point x="251" y="378" type="line"/>
			<point x="265" y="323"/>
			<point x="276" y="266"/>
			<point x="288" y="212" type="curve" smooth="yes"/>
			<point x="338" y="0" type="line"/>
			<point x="486" y="0" type="line" smooth="yes"/>
			<point x="609" y="0"/>
			<point x="718" y="42"/>
			<point x="718" y="184" type="curve" smooth="yes"/>
			<point x="718" y="314"/>
			<point x="619" y="362"/>
			<point x="490" y="362" type="curve" smooth="yes"/>
			<point x="406" y="362" type="line"/>
			<point x="356" y="532" type="line"/>
			<point x="150" y="532" type="line"/>
		</contour>
		<contour>
			<point x="476" y="134" type="line"/>
			<point x="442" y="246" type="line"/>
			<point x="480" y="246" type="line" smooth="yes"/>
			<point x="530" y="246"/>
			<point x="556" y="230"/>
			<point x="556" y="190" type="curve" smooth="yes"/>
			<point x="556" y="150"/>
			<point x="524" y="134"/>
			<point x="480" y="134" type="curve" smooth="yes"/>
		</contour>
	</outline>
</glyph>
<glyph name="Lslash.sc" format="2">
	<advance width="484"/>
	<outline>
		<contour>
			<point x="28" y="108" type="line"/>
			<point x="99" y="150" type="line"/>
			<point x="235" y="208" type="line"/>
			<point x="430" y="314" type="line"/>
			<point x="372" y="408" type="line"/>
			<point x="235" y="334" type="line"/>
			<point x="99" y="276" type="line"/>
			<point x="-30" y="202" type="line"/>
		</contour>
		<component base="L.sc" xOffset="8"/>
	</outline>
</glyph>
<glyph name="O.sc" format="2">
	<advance width="626"/>
	<outline>
		<contour>
			<point x="314" y="-12" type="curve" smooth="yes"/>
			<point x="472" y="-12"/>
			<point x="582" y="92"/>
			<point x="582" y="268" type="curve" smooth="yes"/>
			<point x="582" y="446"/>
			<point x="472" y="544"/>
			<point x="314" y="544" type="curve" smooth="yes"/>
			<point x="154" y="544"/>
			<point x="44" y="446"/>
			<point x="44" y="268" type="curve" smooth="yes"/>
			<point x="44" y="92"/>
			<point x="154" y="-12"/>
		</contour>
		<contour>
			<point x="314" y="128" type="curve" smooth="yes"/>
			<point x="254" y="128"/>
			<point x="220" y="182"/>
			<point x="220" y="268" type="curve" smooth="yes"/>
			<point x="220" y="356"/>
			<point x="254" y="404"/>
			<point x="314" y="404" type="curve" smooth="yes"/>
			<point x="372" y="404"/>
			<point x="406" y="356"/>
			<point x="406" y="268" type="curve" smooth="yes"/>
			<point x="406" y="182"/>
			<point x="372" y="128"/>
		</contour>
	</outline>
	<anchor name="aboverightUC" x="570" y="562"/>
	<anchor name="aboveUC" x="310" y="562"/>
	<anchor name="belowLC" x="310" y="-22"/>
	<anchor name="hornLC" x="448" y="512"/>
	<anchor name="ogonekUC" x="310" y="0"/>
</glyph>
<glyph name="OU.sc" format="2">
	<advance width="626"/>
	<outline>
		<contour>
			<point x="314" y="-12" type="curve" smooth="yes"/>
			<point x="480" y="-12"/>
			<point x="582" y="58"/>
			<point x="582" y="176" type="curve" smooth="yes"/>
			<point x="582" y="264"/>
			<point x="522" y="310"/>
			<point x="430" y="338" type="curve"/>
			<point x="430" y="304" type="line"/>
			<point x="522" y="330"/>
			<point x="550" y="392"/>
			<point x="550" y="500" type="curve" smooth="yes"/>
			<point x="550" y="532" type="line"/>
			<point x="386" y="532" type="line"/>
			<point x="386" y="498" type="line" smooth="yes"/>
			<point x="386" y="414"/>
			<point x="369" y="382"/>
			<point x="314" y="382" type="curve" smooth="yes"/>
			<point x="260" y="382"/>
			<point x="240" y="414"/>
			<point x="240" y="498" type="curve" smooth="yes"/>
			<point x="240" y="532" type="line"/>
			<point x="70" y="532" type="line"/>
			<point x="70" y="500" type="line" smooth="yes"/>
			<point x="70" y="393"/>
			<point x="100" y="330"/>
			<point x="196" y="304" type="curve"/>
			<point x="196" y="338" type="line"/>
			<point x="100" y="310"/>
			<point x="44" y="264"/>
			<point x="44" y="174" type="curve" smooth="yes"/>
			<point x="44" y="58"/>
			<point x="148" y="-12"/>
		</contour>
		<contour>
			<point x="314" y="128" type="curve" smooth="yes"/>
			<point x="254" y="128"/>
			<point x="220" y="151"/>
			<point x="220" y="188" type="curve" smooth="yes"/>
			<point x="220" y="229"/>
			<point x="254" y="250"/>
			<point x="314" y="250" type="curve" smooth="yes"/>
			<point x="372" y="250"/>
			<point x="406" y="229"/>
			<point x="406" y="188" type="curve" smooth="yes"/>
			<point x="406" y="151"/>
			<point x="372" y="128"/>
		</contour>
	</outline>
	<anchor name="aboveUC" x="310" y="562"/>
	<anchor name="belowLC" x="310" y="-22"/>
</glyph>
<glyph name="Omega.sc" format="2">
	<advance width="648"/>
	<outline>
		<contour>
			<point x="44" y="0" type="line"/>
			<point x="296" y="0" type="line"/>
			<point x="296" y="120" type="line"/>
			<point x="244" y="174"/>
			<point x="230" y="222"/>
			<point x="230" y="280" type="curve" smooth="yes"/>
			<point x="230" y="358"/>
			<point x="266" y="404"/>
			<point x="324" y="404" type="curve" smooth="yes"/>
			<point x="382" y="404"/>
			<point x="418" y="358"/>
			<point x="418" y="280" type="curve" smooth="yes"/>
			<point x="418" y="222"/>
			<point x="402" y="174"/>
			<point x="352" y="120" type="curve"/>
			<point x="352" y="0" type="line"/>
			<point x="604" y="0" type="line"/>
			<point x="604" y="134" type="line"/>
			<point x="524" y="134" type="line"/>
			<point x="524" y="138" type="line"/>
			<point x="552" y="166"/>
			<point x="594" y="230"/>
			<point x="594" y="302" type="curve" smooth="yes"/>
			<point x="594" y="446"/>
			<point x="484" y="544"/>
			<point x="324" y="544" type="curve" smooth="yes"/>
			<point x="164" y="544"/>
			<point x="54" y="446"/>
			<point x="54" y="302" type="curve" smooth="yes"/>
			<point x="54" y="230"/>
			<point x="96" y="166"/>
			<point x="124" y="138" type="curve"/>
			<point x="124" y="134" type="line"/>
			<point x="44" y="134" type="line"/>
		</contour>
	</outline>
</glyph>
<glyph name="Oogonek.sc" format="2">
	<advance width="626"/>
	<outline>
		<contour>
			<point x="328" y="-228" type="curve" smooth="yes"/>
			<point x="366" y="-228"/>
			<point x="414" y="-212"/>
			<point x="442" y="-190" type="curve"/>
			<point x="404" y="-104" type="line"/>
			<point x="395" y="-110"/>
			<point x="382" y="-118"/>
			<point x="370" y="-118" type="curve" smooth="yes"/>
			<point x="350" y="-118"/>
			<point x="330" y="-108"/>
			<point x="330" y="-84" type="curve" smooth="yes"/>
			<point x="330" y="-58"/>
			<point x="349" y="-22"/>
			<point x="398" y="-4" type="curve" smooth="yes"/>
			<point x="512" y="38"/>
			<point x="582" y="120"/>
			<point x="582" y="268" type="curve" smooth="yes"/>
			<point x="582" y="446"/>
			<point x="473" y="544"/>
			<point x="314" y="544" type="curve" smooth="yes"/>
			<point x="153" y="544"/>
			<point x="44" y="447"/>
			<point x="44" y="268" type="curve" smooth="yes"/>
			<point x="44" y="92"/>
			<point x="154" y="-12"/>
			<point x="314" y="-12" type="curve"/>
			<point x="282" y="2" type="line"/>
			<point x="246" y="-22"/>
			<point x="206" y="-76"/>
			<point x="206" y="-130" type="curve" smooth="yes"/>
			<point x="206" y="-192"/>
			<point x="260" y="-228"/>
		</contour>
		<contour>
			<point x="314" y="128" type="curve" smooth="yes"/>
			<point x="254" y="128"/>
			<point x="220" y="182"/>
			<point x="220" y="268" type="curve" smooth="yes"/>
			<point x="220" y="356"/>
			<point x="254" y="404"/>
			<point x="314" y="404" type="curve" smooth="yes"/>
			<point x="372" y="404"/>
			<point x="406" y="356"/>
			<point x="406" y="268" type="curve" smooth="yes"/>
			<point x="406" y="182"/>
			<point x="372" y="128"/>
		</contour>
	</outline>
	<anchor name="aboveUC" x="314" y="564"/>
</glyph>
